<?xml version="1.0" encoding="UTF-8"?>
<!DOCTYPE svg PUBLIC "-//W3C//DTD SVG 1.1//EN" "http://www.w3.org/Graphics/SVG/1.1/DTD/svg11.dtd">
<svg version="1.2" xmlns="http://www.w3.org/2000/svg" xmlns:xlink="http://www.w3.org/1999/xlink" x="0" y="0" width="556" height="412" viewBox="0 0 556 412">
<style type="text/css"><![CDATA[
text { font:12px Dialog; }
]]></style>
<rect x="-1068" y="-1047" width="3056" height="2764" style="fill:rgb(255,255,255);stroke:none" />
<clipPath id="clip1"><path d="M12,14 L176,14 L176,140 L12,140 L12,14 Z" /></clipPath>
<path d="M16,18 L16,135 L171,135 L171,18 Z" style="fill:rgb(255,255,255);stroke:none" clip-path="url(#clip1)" />
<clipPath id="clip2"><path d="M12,14 L176,14 L176,140 L12,140 L12,14 Z" /></clipPath>
<path d="M16,18 L16,135 L171,135 L171,18 Z" style="fill:none;stroke:rgb(127,127,127);stroke-width:5" clip-path="url(#clip2)" />
<clipPath id="clip3"><path d="M47,34 L141,34 L141,120 L47,120 L47,34 Z" /></clipPath>
<path d="M83.2333984,42.2993164 L77.5014648,58.1826172 L74.753418,58.1826172 L69.1137695,42.2993164 L71.8105469,42.2993164 L75.8300781,54.3476563 C75.9804688,54.7919922 76.0864258,55.2841797 76.1479492,55.8242188 L76.1992188,55.8242188 C76.2470703,55.3730469 76.3666992,54.8740234 76.5581055,54.3271484 L80.6289063,42.2993164 Z M85.2739258,42.9453125 C85.2739258,42.5419922 85.4123535,42.2087402 85.689209,41.9455566 C85.9660645,41.682373 86.3164063,41.5507813 86.7402344,41.5507813 C87.1572266,41.5507813 87.5092773,41.682373 87.7963867,41.9455566 C88.0834961,42.2087402 88.2270508,42.5419922 88.2270508,42.9453125 C88.2270508,43.3486328 88.0834961,43.6818848 87.7963867,43.9450684 C87.5092773,44.208252 87.1572266,44.3398438 86.7402344,44.3398438 C86.3232422,44.3398438 85.9746094,44.206543 85.6943359,43.9399414 C85.4140625,43.6733398 85.2739258,43.3417969 85.2739258,42.9453125 Z M85.5097656,58.1826172 L85.5097656,46.8417969 L87.9194336,46.8417969 L87.9194336,58.1826172 Z M100.9829102,53.1582031 L93.1899414,53.1582031 C93.2924805,55.4482422 94.4580078,56.5932617 96.6865234,56.5932617 C97.9443359,56.5932617 99.0893555,56.2172852 100.121582,55.465332 L100.121582,57.4545898 C99.1098633,58.1176758 97.7802734,58.4492188 96.1328125,58.4492188 C94.4511719,58.4492188 93.1352539,57.9365234 92.1850586,56.9111328 C91.2348633,55.8857422 90.7597656,54.4501953 90.7597656,52.6044922 C90.7597656,50.8544922 91.270752,49.4121094 92.2927246,48.2773438 C93.3146973,47.1425781 94.5947266,46.5751953 96.1328125,46.5751953 C97.6640625,46.5751953 98.8552246,47.0588379 99.7062988,48.026123 C100.557373,48.9934082 100.9829102,50.324707 100.9829102,52.0200195 Z M98.6450195,51.4047852 C98.6381836,50.434082 98.4160156,49.6889648 97.9785156,49.1694336 C97.5410156,48.6499023 96.9189453,48.3901367 96.1123047,48.3901367 C95.3808594,48.3901367 94.7451172,48.6652832 94.2050781,49.2155762 C93.6650391,49.7658691 93.3300781,50.4956055 93.2001953,51.4047852 Z M118.8862305,46.8417969 L115.543457,58.1826172 L113.03125,58.1826172 L110.9189453,50.5844727 C110.8232422,50.2495117 110.7651367,49.8530273 110.7446289,49.3950195 L110.6933594,49.3950195 C110.6728516,49.6958008 110.5976563,50.0820313 110.4677734,50.5537109 L108.1914063,58.1826172 L105.7304688,58.1826172 L102.3774414,46.8417969 L104.8691406,46.8417969 L106.9404297,54.9731445 C107.0224609,55.3081055 107.0771484,55.6772461 107.1044922,56.0805664 L107.1762695,56.0805664 C107.2036133,55.6977539 107.2719727,55.3183594 107.3813477,54.9423828 L109.7705078,46.8417969 L112.0161133,46.8417969 L114.1489258,54.9936523 C114.1967773,55.1782227 114.2514648,55.5473633 114.3129883,56.1010742 L114.3950195,56.1010742 C114.4155273,55.7592773 114.4770508,55.3901367 114.5795898,54.9936523 L116.5996094,46.8417969 Z" style="fill:rgb(117,117,117);stroke:none" clip-path="url(#clip3)" />
<clipPath id="clip4"><path d="M47,34 L141,34 L141,120 L47,120 L47,34 Z" /></clipPath>
<path d="M59.9057693,77.661377 L50.4926834,77.661377 L50.4926834,76.338623 L59.9057693,76.338623 Z M69.6059647,77.661377 L60.1928787,77.661377 L60.1928787,76.338623 L69.6059647,76.338623 Z M79.30616,77.661377 L69.893074,77.661377 L69.893074,76.338623 L79.30616,76.338623 Z M89.0063553,77.661377 L79.5932693,77.661377 L79.5932693,76.338623 L89.0063553,76.338623 Z M98.7065506,77.661377 L89.2934647,77.661377 L89.2934647,76.338623 L98.7065506,76.338623 Z M108.4067459,77.661377 L98.99366,77.661377 L98.99366,76.338623 L108.4067459,76.338623 Z M118.1069412,77.661377 L108.6938553,77.661377 L108.6938553,76.338623 L118.1069412,76.338623 Z M127.8071365,77.661377 L118.3940506,77.661377 L118.3940506,76.338623 L127.8071365,76.338623 Z M137.5073242,77.661377 L128.0942383,77.661377 L128.0942383,76.338623 L137.5073242,76.338623 Z" style="fill:rgb(117,117,117);stroke:none" clip-path="url(#clip4)" />
<clipPath id="clip5"><path d="M47,34 L141,34 L141,120 L47,120 L47,34 Z" /></clipPath>
<path d="M70.5954666,111.0700684 C70.5954666,111.6374512 70.3903885,112.1330566 69.9802322,112.5568848 C69.570076,112.9807129 68.8488846,113.192627 67.816658,113.192627 C67.3449783,113.192627 66.8562088,113.1755371 66.3503494,113.1413574 L65.7863846,111.2956543 L68.1345291,111.2751465 C68.2985916,111.2751465 68.4455643,111.2050781 68.5754471,111.0649414 C68.7053299,110.9248047 68.7702713,110.7727051 68.7702713,110.6086426 L68.7702713,106.8249512 L63.6023026,106.8249512 L63.6023026,112.7004395 L61.8181229,112.7004395 L61.8181229,106.8249512 L56.7321854,106.8249512 C56.4997597,109.5251465 55.8776894,111.6750488 54.8659744,113.2746582 L53.2048416,112.197998 C53.7927284,111.322998 54.2473183,110.1660156 54.5686111,108.7270508 C54.8898964,107.2880859 55.0505447,105.9123535 55.0505447,104.5998535 L55.0505447,95.2995605 L70.5954666,95.2995605 Z M68.7702713,100.170166 L68.7702713,97.1247559 L63.6023026,97.1247559 L63.6023026,100.170166 Z M61.8181229,100.170166 L61.8181229,97.1247559 L56.9167557,97.1247559 L56.9167557,100.170166 Z M68.7702713,105.0612793 L68.7702713,101.9133301 L63.6023026,101.9133301 L63.6023026,105.0612793 Z M61.8181229,105.0612793 L61.8181229,101.9133301 L56.9167557,101.9133301 L56.9167557,105.0612793 Z M92.0876541,103.8820801 L78.4807205,103.8820801 C78.4123611,108.2980957 77.6091385,111.4631348 76.0710526,113.3771973 L74.6149979,112.0134277 C75.2165604,111.1999512 75.696785,110.1882324 76.0556717,108.9782715 C76.4145584,107.7683105 76.5940018,106.0559082 76.5940018,103.8410645 L76.5940018,96.9709473 L83.464119,96.9709473 C83.1701736,96.3898926 82.8181229,95.7746582 82.4079666,95.1252441 L84.3459549,94.6228027 C84.6057205,95.0534668 84.995369,95.8361816 85.5149002,96.9709473 L92.0876541,96.9709473 Z M90.2214432,102.0979004 L90.2214432,98.755127 L78.5012283,98.755127 L78.5012283,102.0979004 Z M114.9128494,102.9387207 L102.8645096,102.9387207 L102.8645096,101.2365723 L105.991951,101.2365723 C105.882576,100.8537598 105.5100174,99.9445801 104.8742752,98.5090332 L103.3259354,98.5090332 L103.3259354,96.786377 L107.8171463,96.786377 C107.5778885,96.2600098 107.3112869,95.7849121 107.0173416,95.361084 L108.8630447,94.7868652 C109.2048416,95.3200684 109.5637283,95.9865723 109.9397049,96.786377 L114.4719315,96.786377 L114.4719315,98.5090332 L112.9851151,98.5090332 C112.6774979,99.3908691 112.3562088,100.3000488 112.0212479,101.2365723 L114.9128494,101.2365723 Z M111.0676346,98.5090332 L106.8532791,98.5090332 C107.3181229,99.6437988 107.6735916,100.5529785 107.9196854,101.2365723 L110.0832596,101.2365723 C110.5275955,100.2111816 110.8557205,99.302002 111.0676346,98.5090332 Z M102.5671463,100.4777832 L100.7624588,100.4777832 L100.7624588,103.779541 C101.1042557,103.6633301 101.5793533,103.4685059 102.1877518,103.1950684 L102.3107986,105.0612793 C101.7844315,105.307373 101.2683182,105.536377 100.7624588,105.748291 L100.7624588,111.3981934 C100.7624588,111.8972168 100.5813065,112.3295898 100.2190018,112.6953125 C99.8566971,113.0610352 98.8483963,113.2028809 97.1940994,113.1208496 L96.6198807,111.2751465 C97.2898026,111.3024902 97.9084549,111.3161621 98.4758377,111.3161621 C98.7971268,111.3161621 98.9577713,111.1555176 98.9577713,110.8342285 L98.9577713,106.4660645 C98.0896072,106.8146973 97.3889236,107.067627 96.8557205,107.2248535 L96.5378494,105.3996582 C97.1735916,105.201416 97.9802322,104.9211426 98.9577713,104.5588379 L98.9577713,100.4777832 L96.6198807,100.4777832 L96.6198807,98.6936035 L98.9577713,98.6936035 L98.9577713,94.8791504 L100.7624588,94.8791504 L100.7624588,98.6936035 L102.5671463,98.6936035 Z M114.9333572,111.8186035 L113.9284744,113.3771973 C112.3698807,112.5090332 110.8215408,111.7536621 109.2834549,111.111084 C107.5471268,112.2185059 105.5612869,112.9396973 103.3259354,113.2746582 L102.4235916,111.654541 C104.3103104,111.3674316 105.8894119,110.9060059 107.1608963,110.2702637 C106.3132401,109.907959 105.2365799,109.5148926 103.9309158,109.0910645 C104.5461502,108.0861816 104.9939041,107.3308105 105.2741776,106.8249512 L102.8850174,106.8249512 L102.8850174,105.0817871 L106.1970291,105.0817871 C106.5183182,104.5212402 106.8122635,103.9196777 107.0788651,103.2770996 L108.8630447,103.779541 C108.6784744,104.2648926 108.4768143,104.6989746 108.2580643,105.0817871 L111.0676346,105.0817871 C111.2316971,104.6647949 111.3444901,104.2990723 111.4060135,103.9846191 L113.1286697,104.3024902 C113.0603104,104.6101074 112.9987869,104.869873 112.9440994,105.0817871 L114.9128494,105.0817871 L114.9128494,106.8249512 L112.3493729,106.8249512 C111.8024979,108.0964355 111.2351151,109.0842285 110.6472244,109.7883301 C111.6452713,110.232666 113.0739822,110.9094238 114.9333572,111.8186035 Z M110.4011307,106.8249512 L107.3762283,106.8249512 C107.0344315,107.4470215 106.7678299,107.8879395 106.5764236,108.1477051 C107.5949783,108.5236816 108.394783,108.8312988 108.9758377,109.0705566 C109.4748611,108.489502 109.9499588,107.7409668 110.4011307,106.8249512 Z M134.795166,112.6184082 L132.8674316,112.6184082 L132.8674316,111.1315918 L121.8855057,111.1315918 L121.8855057,112.6184082 L119.9270096,112.6184082 L119.9270096,96.0480957 L134.795166,96.0480957 Z M132.8674316,109.3063965 L132.8674316,97.9040527 L121.8855057,97.9040527 L121.8855057,109.3063965 Z" style="fill:rgb(117,117,117);stroke:none" clip-path="url(#clip5)" />
<clipPath id="clip6"><path d="M134,305 L357,305 L357,398 L134,398 L134,305 Z" /></clipPath>
<path d="M145,308 C140.5817261,308 137,311.5817261 137,316 L137,386 C137,390.4182739 140.5817261,394 145,394 L345,394 C349.4182739,394 353,390.4182739 353,386 L353,316 C353,311.5817261 349.4182739,308 345,308 Z" style="fill:none;stroke:rgb(127,127,127);stroke-width:4" clip-path="url(#clip6)" />
<clipPath id="clip7"><path d="M150,316 L341,316 L341,387 L150,387 L150,316 Z" /></clipPath>
<path d="M231.3388672,336.1862793 L231.3388672,327.885498 C231.3388672,327.160553 231.377594,326.3000488 231.4550781,325.3039551 L231.4052734,325.3039551 C231.2392426,326.0178223 231.1092072,326.4854126 231.0151367,326.7067871 L227.1054688,336.1862793 L225.8022461,336.1862793 L221.8759766,326.7814941 C221.7763672,326.5435181 221.6463165,326.0510254 221.4858398,325.3039551 L221.4360352,325.3039551 C221.4913635,326.0786743 221.519043,327.013916 221.519043,328.1096191 L221.519043,336.1862793 L219.6679688,336.1862793 L219.6679688,323.3283691 L222.4487305,323.3283691 L225.9267578,331.8200684 C226.1979065,332.4841309 226.3777618,333.034729 226.4663086,333.4719238 L226.5244141,333.4719238 C226.6295471,333.123291 226.8232422,332.5643616 227.1054688,331.795166 L230.6416016,323.3283691 L233.3144531,323.3283691 L233.3144531,336.1862793 Z M236.2197266,331.6789551 C236.2197266,330.1682129 236.6499786,328.975647 237.510498,328.1013184 C238.3710022,327.2269592 239.5428009,326.7897949 241.0258789,326.7897949 C242.4259338,326.7897949 243.5326996,327.2131348 244.3461914,328.0598145 C245.159668,328.9064941 245.5664063,330.0630493 245.5664063,331.529541 C245.5664063,333.0070801 245.1375275,334.1885376 244.2797852,335.0739746 C243.4220276,335.9593811 242.2765198,336.4020996 240.8432617,336.4020996 C239.4376526,336.4020996 238.3156738,335.9732056 237.4772949,335.1154785 C236.638916,334.2577209 236.2197266,333.1122131 236.2197266,331.6789551 Z M238.2036133,331.6374512 C238.2036133,332.6445923 238.4484863,333.4304199 238.9382324,333.994873 C239.4279785,334.5593262 240.0934143,334.8415527 240.9345703,334.8415527 C242.6998596,334.8415527 243.5825195,333.7541504 243.5825195,331.5793457 C243.5825195,330.5278931 243.3556213,329.7268677 242.9018555,329.1762695 C242.4480743,328.6256409 241.7923126,328.3503418 240.9345703,328.3503418 C240.0768127,328.3503418 239.4072266,328.6436157 238.9257813,329.2302246 C238.4443359,329.816803 238.2036133,330.6192017 238.2036133,331.6374512 Z M256.2993164,336.1862793 L254.3569336,336.1862793 L254.3569336,334.7336426 L254.3154297,334.7336426 C253.6513672,335.8459167 252.6386719,336.4020996 251.2773438,336.4020996 C250.1152344,336.4020996 249.1896973,335.9884338 248.5007324,335.1611328 C247.8117676,334.3338013 247.4672852,333.2173462 247.4672852,331.8117676 C247.4672852,330.2899475 247.8546448,329.0725098 248.6293945,328.1594238 C249.404129,327.2463379 250.4140625,326.7897949 251.6591797,326.7897949 C252.9042816,326.7897949 253.7897034,327.2601624 254.3154297,328.2009277 L254.3569336,328.2009277 L254.3569336,322.5979004 L256.2993164,322.5979004 Z M254.3735352,330.807373 C254.3735199,330.1101074 254.1480255,329.5262756 253.6970215,329.0559082 C253.2460022,328.5855103 252.6884766,328.3503418 252.0244141,328.3503418 C251.2386017,328.3503418 250.6132813,328.6519165 250.1484375,329.255127 C249.6835938,329.8583069 249.4511719,330.6828613 249.4511719,331.7287598 C249.4511719,332.6916504 249.669754,333.4511719 250.1069336,334.0073242 C250.5440979,334.5634766 251.1389923,334.8415527 251.8916016,334.8415527 C252.6220703,334.8415527 253.218338,334.5662231 253.6804199,334.015625 C254.1424866,333.4649963 254.3735199,332.769104 254.3735352,331.9279785 Z M267.0737305,332.1188965 L260.7651367,332.1188965 C260.8481445,333.9727173 261.7916565,334.8996582 263.5957031,334.8996582 C264.6139221,334.8996582 265.5408325,334.5952759 266.3764648,333.9865723 L266.3764648,335.5969238 C265.5574341,336.1336975 264.4811096,336.4020996 263.1474609,336.4020996 C261.7861328,336.4020996 260.7208557,335.98703 259.9516602,335.1569824 C259.1824341,334.3269043 258.7978516,333.1647949 258.7978516,331.6706543 C258.7978516,330.2539673 259.2114868,329.0863342 260.0388184,328.1677246 C260.8661194,327.2490845 261.9023438,326.7897949 263.1474609,326.7897949 C264.3870239,326.7897949 265.3513184,327.1813049 266.0402832,327.9643555 C266.729248,328.7473755 267.0737305,329.8251038 267.0737305,331.1975098 Z M265.1811523,330.6994629 C265.1755981,329.9136353 264.9957581,329.3104553 264.6416016,328.8898926 C264.2874146,328.4692993 263.783844,328.2590332 263.1308594,328.2590332 C262.5387268,328.2590332 262.0240784,328.4817505 261.5869141,328.9272461 C261.1497192,329.3727112 260.8785706,329.9634399 260.7734375,330.6994629 Z M269.3813477,336.1862793 L269.3813477,322.5979004 L271.3320313,322.5979004 L271.3320313,336.1862793 Z" style="fill:rgb(89,89,89);stroke:none" clip-path="url(#clip7)" />
<clipPath id="clip8"><path d="M150,316 L341,316 L341,387 L150,387 L150,316 Z" /></clipPath>
<path d="M225.7524414,352.0354004 L218.1323242,352.0354004 L218.1323242,350.9645996 L225.7524414,350.9645996 Z M233.6049805,352.0354004 L225.9848633,352.0354004 L225.9848633,350.9645996 L233.6049805,350.9645996 Z M241.4575195,352.0354004 L233.8374023,352.0354004 L233.8374023,350.9645996 L241.4575195,350.9645996 Z M249.3100586,352.0354004 L241.6899414,352.0354004 L241.6899414,350.9645996 L249.3100586,350.9645996 Z M257.1625977,352.0354004 L249.5424805,352.0354004 L249.5424805,350.9645996 L257.1625977,350.9645996 Z M265.0151367,352.0354004 L257.3950195,352.0354004 L257.3950195,350.9645996 L265.0151367,350.9645996 Z M272.8676758,352.0354004 L265.2475586,352.0354004 L265.2475586,350.9645996 L272.8676758,350.9645996 Z" style="fill:rgb(89,89,89);stroke:none" clip-path="url(#clip8)" />
<clipPath id="clip9"><path d="M150,316 L341,316 L341,387 L150,387 L150,316 Z" /></clipPath>
<path d="M167.9167633,372.9189453 L153.1247711,372.9189453 L153.1247711,371.4165039 L167.9167633,371.4165039 Z M185.6306305,371.5078125 L184.8088531,372.7944336 C181.9810486,371.3500977 179.7481384,369.4685669 178.1101227,367.1499023 C176.4001617,369.2859497 174.1174469,371.1508789 171.2619781,372.7446289 L170.4485016,371.4331055 C173.774353,369.6677856 176.2147827,367.5151367 177.7697906,364.9750977 L179.1809235,365.5063477 C179.1421814,365.605957 179.0757751,365.7359924 178.9817047,365.8964844 C180.5643921,368.1598206 182.7807007,370.0302734 185.6306305,371.5078125 Z M178.857193,379.9829102 L177.2800446,379.9829102 L177.2800446,369.6650391 L178.857193,369.6650391 Z M202.9460602,376.6542969 L188.2038727,376.6542969 L188.2038727,375.3261719 L189.7395172,375.3261719 L189.7395172,365.4150391 L201.3108063,365.4150391 L201.3108063,375.3261719 L202.9460602,375.3261719 Z M199.7502594,367.8803711 L199.7502594,366.7597656 L191.3166656,366.7597656 L191.3166656,367.8803711 Z M199.7502594,370.3125 L199.7502594,369.1586914 L191.3166656,369.1586914 L191.3166656,370.3125 Z M199.7502594,372.7446289 L199.7502594,371.5742188 L191.3166656,371.5742188 L191.3166656,372.7446289 Z M199.7502594,375.3261719 L199.7502594,374.0395508 L191.3166656,374.0395508 L191.3166656,375.3261719 Z M203.1203766,378.8623047 L202.2487946,380.1240234 C200.588623,379.3105469 198.8731384,378.6769104 197.1023102,378.2231445 L197.9987946,376.9116211 C199.8913727,377.4373169 201.5985718,378.0875549 203.1203766,378.8623047 Z M193.9895172,378.0820313 C192.2684937,378.9950867 190.5004272,379.6425781 188.685318,380.0244141 L187.9548492,378.5800781 C189.7201538,378.2535706 191.3222046,377.7140198 192.7610016,376.9614258 Z M220.485611,375.4506836 L219.2985992,375.4506836 L219.2985992,377.6088867 L213.8200836,377.6088867 L213.8200836,378.6630859 C213.8200836,378.9950867 213.713562,379.2759399 213.5005035,379.5056152 C213.2874451,379.73526 213.0411987,379.8722229 212.761734,379.9165039 C212.4822693,379.9607544 211.6342163,379.9829102 210.2175446,379.9829102 L209.7610016,378.6962891 L212.0354156,378.6464844 C212.096283,378.6464844 212.1599274,378.6118774 212.2263336,378.5427246 C212.2927399,378.4735413 212.325943,378.4057617 212.325943,378.3393555 L212.325943,377.6088867 L206.7312164,377.6088867 L206.7312164,376.4716797 L212.325943,376.4716797 L212.325943,375.4506836 L205.6936188,375.4506836 L205.6936188,374.3051758 L212.325943,374.3051758 L212.325943,373.3754883 L206.7312164,373.3754883 L206.7312164,372.2382813 L212.325943,372.2382813 L212.325943,371.3334961 L207.0217438,371.3334961 L207.0217438,368.1542969 L212.325943,368.1542969 L212.325943,367.2329102 L205.8347321,367.2329102 L205.8347321,366.0625 L212.325943,366.0625 L212.325943,365.1079102 L213.8200836,365.1079102 L213.8200836,366.0625 L220.2863922,366.0625 L220.2863922,367.2329102 L213.8200836,367.2329102 L213.8200836,368.1542969 L219.1408844,368.1542969 L219.1408844,371.3334961 L213.8200836,371.3334961 L213.8200836,372.2382813 L219.2985992,372.2382813 L219.2985992,374.3051758 L220.485611,374.3051758 Z M217.5969391,370.2294922 L217.5969391,369.2416992 L213.8200836,369.2416992 L213.8200836,370.2294922 Z M212.325943,370.2294922 L212.325943,369.2416992 L208.5490875,369.2416992 L208.5490875,370.2294922 Z M217.8044586,374.3051758 L217.8044586,373.3754883 L213.8200836,373.3754883 L213.8200836,374.3051758 Z M217.8044586,376.4716797 L217.8044586,375.4506836 L213.8200836,375.4506836 L213.8200836,376.4716797 Z M237.7180328,367.2910156 C237.6903534,369.2223206 237.6294861,371.3251953 237.5354156,373.5996094 C237.44133,375.8740234 237.3569489,377.3252563 237.2822418,377.9533691 C237.2075348,378.5814514 237.0581207,379.033844 236.8339996,379.3105469 C236.6098785,379.5872192 236.3594666,379.7726135 236.0827789,379.8666992 C235.806076,379.9607544 235.125412,380.0078125 234.0407867,380.0078125 C233.6534119,380.0078125 233.3269196,379.9995117 233.0612946,379.9829102 L232.6213531,378.5551758 C233.2632751,378.5883789 233.8000641,378.6049805 234.2317047,378.6049805 C234.940033,378.6049805 235.3661346,378.5523987 235.510025,378.4472656 C235.6539001,378.3421021 235.7576599,378.1705627 235.8213043,377.9326172 C235.8849335,377.6946411 235.958252,376.6819458 236.041275,374.8945313 C236.1242676,373.1070862 236.1851501,371.0540161 236.2238922,368.7353516 L235.7673492,368.7353516 C235.4851074,371.0706177 234.9580078,373.0669556 234.1860504,374.7243652 C233.4140778,376.3817444 232.2644196,378.0045471 230.7370758,379.5927734 L229.4753571,378.6132813 C230.9639587,377.1467896 232.0859528,375.655426 232.8413239,374.1391602 C233.5966949,372.6228638 234.0905914,370.8215942 234.3230133,368.7353516 L233.5593414,368.7353516 C232.9506073,371.7900391 231.6639862,374.3051758 229.6994781,376.2807617 L228.4709625,375.3427734 C230.3414001,373.6162109 231.556076,371.4137268 232.1150055,368.7353516 L231.4011383,368.7353516 C230.9362946,369.8642578 230.3856659,370.8547974 229.7492828,371.7070313 L228.4709625,370.9433594 C229.5445251,369.6539612 230.4022675,367.6977539 231.0442047,365.074707 L232.5051422,365.3320313 C232.3446503,366.018219 232.1509705,366.6712036 231.9240875,367.2910156 Z M229.1516266,373.6992188 C228.6978455,373.8818359 228.1195526,374.0921021 227.4167633,374.3300781 L227.4167633,379.9331055 L225.9392242,379.9331055 L225.9392242,374.8198242 C225.3692322,374.9968872 224.5142517,375.2459106 223.3742828,375.5668945 L223.0505524,374.105957 C223.9525604,373.8845825 224.915451,373.6189575 225.9392242,373.309082 L225.9392242,369.9555664 L224.7688141,369.9555664 C224.6692047,370.6251526 224.5031891,371.4137268 224.2707672,372.3212891 L222.9675446,371.9477539 C223.4102478,370.3041992 223.6869354,368.4558716 223.7976227,366.402832 L225.1423492,366.6435547 C225.0870056,367.390625 225.0233612,368.024231 224.9514313,368.5444336 L225.9392242,368.5444336 L225.9392242,365.1826172 L227.4167633,365.1826172 L227.4167633,368.5444336 L228.794693,368.5444336 L228.8112946,369.9555664 L227.4167633,369.9555664 L227.4167633,372.8110352 C228.4128571,372.4513245 228.9524078,372.2548828 229.0354156,372.2216797 Z M255.2990875,367.6977539 C255.2880096,369.324707 255.2299042,371.4344788 255.1247711,374.0270996 C255.0196228,376.6196899 254.8646698,378.1484375 254.6599274,378.6132813 C254.4551697,379.0780945 254.1438904,379.4198303 253.7260895,379.6384277 C253.3082733,379.8569946 252.2914276,379.9718323 250.6755524,379.9829102 L250.1110992,378.4887695 L252.3855133,378.472168 C252.6013336,378.472168 252.8309784,378.3808594 253.0744781,378.1982422 C253.3179626,378.015625 253.5005798,376.7843323 253.6223297,374.5043945 C253.7440643,372.2244263 253.8021698,370.4480591 253.7966461,369.175293 L250.385025,369.175293 C249.853775,370.5255432 249.2533417,371.6765747 248.5837555,372.628418 L247.4216461,371.5908203 C248.6390839,369.6207581 249.4968414,367.421051 249.9948883,364.9916992 L251.4890289,365.3154297 C251.3783417,365.8909302 251.1791229,366.6850586 250.8913727,367.6977539 Z M247.0813141,379.8168945 L245.6203766,379.8168945 L245.6203766,378.6962891 L242.5490875,378.6962891 L242.5490875,379.9829102 L241.0466461,379.9829102 L241.0466461,367.6147461 L242.5656891,367.6147461 C242.9917908,366.8289185 243.323822,365.9656372 243.5617828,365.0249023 L245.1306305,365.2822266 C245.0476227,365.8190002 244.7819977,366.5964966 244.3337555,367.6147461 L247.0813141,367.6147461 Z M245.6203766,372.2382813 L245.6203766,369.0922852 L242.5490875,369.0922852 L242.5490875,372.2382813 Z M245.6203766,377.2353516 L245.6203766,373.6660156 L242.5490875,373.6660156 L242.5490875,377.2353516 Z M252.8337555,375.2929688 L251.5056305,376.1479492 C250.7751617,374.6870117 249.9921112,373.4667969 249.1565094,372.4873047 L250.4846344,371.6572266 C251.6135406,373.0683594 252.3965759,374.2802734 252.8337555,375.2929688 Z M273.0710449,378.9702148 L272.0002441,380.0742188 C270.0634155,378.1484375 268.7712402,375.9763794 268.1237793,373.5581055 C267.4929199,375.8269653 266.1343689,377.9990234 264.0480957,380.0742188 L263.1765137,378.8457031 C264.3718262,377.6337891 265.2697144,376.4384766 265.8701172,375.2597656 C266.4705505,374.0810547 266.9063416,372.6201172 267.1774902,370.8769531 L263.467041,370.8769531 L263.467041,369.4160156 L267.3435059,369.4160156 L267.3435059,365.1328125 L268.8210449,365.1328125 L268.8210449,369.4160156 L272.8884277,369.4160156 L272.8884277,370.8769531 L268.9455566,370.8769531 C269.4436035,374.1695862 270.8187866,376.8673401 273.0710449,378.9702148 Z M262.8776855,379.9331055 L261.3586426,379.9331055 L261.3586426,374.5458984 C260.5783691,375.3427734 259.7399902,376.0732422 258.8435059,376.7373047 L257.9802246,375.4672852 C259.0704041,374.6925354 260.1965332,373.7351685 261.3586426,372.5952148 L261.3586426,365.1328125 L262.8776855,365.1328125 Z M272.4484863,368.3950195 L271.2365723,369.1918945 C270.6942749,368.3064575 270.0661621,367.4570313 269.3522949,366.6435547 L270.4230957,365.7387695 C271.2365723,366.5909729 271.9117126,367.4763794 272.4484863,368.3950195 Z M260.8190918,370.84375 L259.4245605,371.3500977 C259.1976929,370.1879883 258.7881775,368.9373169 258.1960449,367.5981445 L259.5407715,366.9838867 C260.088623,368.2234497 260.51474,369.5100708 260.8190918,370.84375 Z M290.6520996,373.3588867 L289.8137207,374.753418 C287.8990173,373.9067383 286.4602051,373.0351563 285.4973145,372.1386719 C284.5344238,371.2421875 283.7126465,370.03302 283.0319824,368.5112305 C282.7221069,369.3357544 282.3098145,370.1022034 281.795166,370.8105469 C282.8355408,371.4082031 283.7680054,372.0141602 284.5925293,372.628418 L283.5217285,373.7324219 C282.6750488,373.0794067 281.7536621,372.4900513 280.7575684,371.9643555 C279.7338257,372.9604492 278.2645874,373.867981 276.3498535,374.6870117 L275.4533691,373.4418945 C278.6851501,372.1967773 280.671814,370.5366211 281.4133301,368.4614258 L275.9431152,368.4614258 L275.9431152,367.050293 L281.911377,367.050293 C282.0939941,366.5245667 282.2572632,365.8494263 282.401123,365.0249023 L283.8786621,365.1660156 C283.7901306,365.7027893 283.654541,366.3308716 283.4719238,367.050293 L290.1374512,367.050293 L290.1374512,368.4614258 L284.6340332,368.4614258 C285.5803223,370.7413635 287.5863647,372.3738403 290.6520996,373.3588867 Z M285.2399902,376.5048828 L283.9533691,377.3017578 C283.4442749,376.4606018 282.8300171,375.6333008 282.1105957,374.8198242 L283.3723145,374.1225586 C284.1359863,374.902832 284.7585449,375.6969299 285.2399902,376.5048828 Z M287.3649902,377.484375 C287.121521,378.5800781 286.8254395,379.248291 286.4768066,379.4890137 C286.1281738,379.7297363 285.6661072,379.8500977 285.0905762,379.8500977 C282.5062866,379.8500977 281.0508728,379.8362427 280.7243652,379.8085938 C280.3978882,379.7809143 280.1336365,379.6342468 279.9316406,379.3686523 C279.7296753,379.1030273 279.6286621,378.8208008 279.6286621,378.5219727 L279.6286621,374.5625 L281.114502,374.5625 L281.114502,378.0322266 C281.114502,378.2148438 281.1836853,378.3282776 281.3220215,378.3725586 C281.4603882,378.4168091 282.2378845,378.4389648 283.654541,378.4389648 C284.5565796,378.4389648 285.1196289,378.4154358 285.34375,378.3684082 C285.5678711,378.3213501 285.7380371,377.8413086 285.854248,376.9282227 Z M278.9562988,375.359375 C278.3365173,377.0748596 277.6281738,378.4859924 276.8312988,379.5927734 L275.5529785,378.7128906 C276.377533,377.6171875 277.0526733,376.2973633 277.5783691,374.753418 Z M290.4943848,378.8623047 L289.1164551,379.6508789 C288.6516113,378.2839966 287.9211426,376.8950195 286.9250488,375.4838867 L288.286377,374.8032227 C289.1884155,376.1313477 289.924408,377.484375 290.4943848,378.8623047 Z M296.1472168,382.0249023 C294.2712402,379.905426 293.333252,377.2934265 293.333252,374.1889648 C293.333252,371.1231995 294.2712402,368.4752502 296.1472168,366.2451172 L297.8156738,366.2451172 C295.9673767,368.5582581 295.0432129,371.2034302 295.0432129,374.1806641 C295.0432129,377.1412659 295.9673767,379.756012 297.8156738,382.0249023 Z M314.3093262,379.1362305 L313.3713379,380.2236328 C312.120697,379.4322815 311.088623,378.4915161 310.2751465,377.4013672 C309.5170288,378.3310547 308.4517517,379.2662659 307.0793457,380.2070313 L306.0915527,379.0864258 C307.5358887,378.162262 308.6481934,377.1716919 309.4284668,376.1147461 C308.8972168,375.1186523 308.518158,374.1087036 308.2912598,373.0849609 L309.5114746,372.4873047 C309.7217712,373.3671875 309.9818726,374.1114807 310.291748,374.7202148 C311.0166931,373.1762695 311.4815369,371.2781372 311.6862793,369.0258789 L309.7189941,369.0258789 C309.2098999,370.5919495 308.6703491,371.9006958 308.1003418,372.9521484 L306.9631348,372.097168 C307.9315796,370.2820435 308.6786499,367.9606018 309.2043457,365.1328125 L310.5490723,365.4731445 C310.4550171,366.0874023 310.3028259,366.8012695 310.0925293,367.6147461 L314.0354004,367.6147461 L314.0354004,369.0258789 L313.1140137,369.0258789 C312.798584,372.1082153 312.1428223,374.4988403 311.1467285,376.1977539 C311.9214783,377.3321838 312.9756775,378.311676 314.3093262,379.1362305 Z M307.4030762,369.3413086 L304.1740723,369.3413086 L304.1740723,372.2880859 L302.7131348,372.2880859 L302.7131348,369.3413086 L299.4509277,369.3413086 L299.4509277,368.0214844 L302.7131348,368.0214844 L302.7131348,365.1826172 L304.1740723,365.1826172 L304.1740723,368.0214844 L307.4030762,368.0214844 Z M302.322998,367.1000977 L301.2189941,367.8637695 C300.9257202,367.3657227 300.4830017,366.7652893 299.8908691,366.0625 L300.9616699,365.2490234 C301.5814819,365.9020081 302.0352478,366.519043 302.322998,367.1000977 Z M307.1789551,366.1289063 C306.8414001,366.6324768 306.3101501,367.2052307 305.5852051,367.847168 L304.447998,367.050293 C305.0069275,366.5964966 305.5492554,366.0403442 306.0749512,365.3818359 Z M302.2150879,370.3125 C301.7890015,371.0318909 301.0695801,371.8425903 300.0568848,372.7446289 L299.0773926,371.7402344 C299.8355408,371.109375 300.5079041,370.3733521 301.0944824,369.5322266 Z M307.1789551,371.1508789 L306.1662598,372.0141602 C305.7733765,371.4663086 305.2559509,370.9212036 304.6140137,370.3789063 L305.6516113,369.5820313 C306.1330566,369.9859924 306.6421814,370.5089417 307.1789551,371.1508789 Z M307.486084,375.0605469 L305.892334,375.0605469 C305.626709,375.8740234 305.2808533,376.568512 304.8547363,377.144043 L306.5895996,377.8994141 L305.8093262,379.1030273 C305.0899353,378.7543945 304.4203491,378.472168 303.8005371,378.2563477 C302.7601929,379.1029968 301.4901733,379.7421875 299.9904785,380.1738281 L299.1936035,378.9536133 C300.3446655,378.6603088 301.3573608,378.2341919 302.2316895,377.675293 C301.6727905,377.4539185 300.859314,377.204895 299.7912598,376.9282227 C300.2948608,376.2032776 300.6905212,375.580719 300.9782715,375.0605469 L299.3596191,375.0605469 L299.3596191,373.765625 L301.642334,373.765625 C301.8581543,373.3782349 302.0850525,372.8967896 302.322998,372.3212891 L303.6428223,372.777832 C303.6040955,372.9272461 303.4629822,373.2565002 303.2194824,373.765625 L304.8215332,373.765625 C304.9100952,373.455719 304.9709473,373.1485901 305.0041504,372.8442383 L306.3820801,373.1015625 L306.2658691,373.765625 L307.486084,373.765625 Z M304.4147949,375.0605469 L302.5720215,375.0605469 C302.4668884,375.2874146 302.2593689,375.655426 301.9494629,376.1645508 C302.6688843,376.3803711 303.1835327,376.5491333 303.4934082,376.6708984 C303.8143921,376.2835083 304.121521,375.7467346 304.4147949,375.0605469 Z M321.7302246,372.6948242 C321.2543335,372.9493713 320.7341309,373.2039185 320.1696777,373.4584961 L320.1696777,378.5800781 C320.1696777,379.0061646 320.0354919,379.3464966 319.7670898,379.6010742 C319.4987183,379.8556213 319.0352478,379.9829102 318.376709,379.9829102 L317.239502,379.9829102 L316.9240723,378.472168 C317.1952515,378.4942932 317.463623,378.5053711 317.729248,378.5053711 C318.1940918,378.5053711 318.4735718,378.4693909 318.567627,378.3974609 C318.6617126,378.3255005 318.7087402,378.2148438 318.7087402,378.0654297 L318.7087402,374.0893555 C317.9782715,374.371582 317.3999939,374.5763245 316.973877,374.7036133 L316.6501465,373.2924805 C317.2976074,373.0821838 317.9838257,372.8248596 318.7087402,372.5205078 L318.7087402,369.2416992 L316.8161621,369.2416992 L316.8161621,367.8139648 L318.7087402,367.8139648 L318.7087402,365.074707 L320.1696777,365.074707 L320.1696777,367.8139648 L321.5476074,367.8139648 L321.5476074,369.2416992 L320.1696777,369.2416992 L320.1696777,371.8647461 C320.5127869,371.7097778 320.9416504,371.5050354 321.4562988,371.2504883 Z M331.6247559,373.0351563 L328.3625488,373.0351563 L328.3625488,374.6621094 L330.7946777,374.6621094 L330.7946777,380.0576172 L329.3337402,380.0576172 L329.3337402,379.2192383 L325.5734863,379.2192383 L325.5734863,380.0576172 L324.1291504,380.0576172 L324.1291504,374.6621094 L326.8684082,374.6621094 L326.8684082,373.0351563 L323.5979004,373.0351563 C323.4650879,376.0123596 322.9172363,378.3476563 321.9543457,380.0410156 L320.692627,378.9370117 C321.6887207,377.2270508 322.1867676,374.783844 322.1867676,371.6074219 L322.1867676,365.5561523 L331.010498,365.5561523 L331.010498,369.9223633 L323.6726074,369.9223633 L323.6726074,371.640625 L326.8684082,371.640625 L326.8684082,370.3623047 L328.3625488,370.3623047 L328.3625488,371.640625 L331.6247559,371.640625 Z M329.4831543,368.5112305 L329.4831543,366.934082 L323.6726074,366.934082 L323.6726074,368.5112305 Z M329.3337402,377.8828125 L329.3337402,376.0566406 L325.5734863,376.0566406 L325.5734863,377.8828125 Z M333.3762207,382.0249023 C335.230072,379.7670898 336.1569824,377.1523438 336.1569824,374.1806641 C336.1569824,371.2145081 335.2272949,368.5693359 333.3679199,366.2451172 L335.0446777,366.2451172 C336.9317322,368.4807739 337.8752441,371.1287231 337.8752441,374.1889648 C337.8752441,377.2879028 336.9289551,379.8999023 335.036377,382.0249023 Z" style="fill:rgb(89,89,89);stroke:none" clip-path="url(#clip9)" />
<clipPath id="clip10"><path d="M405,30 L542,30 L542,123 L405,123 L405,30 Z" /></clipPath>
<path d="M416,33 C411.5817261,33 408,36.5817184 408,41 L408,111 C408,115.4182816 411.5817261,119 416,119 L530,119 C534.4182739,119 538,115.4182816 538,111 L538,41 C538,36.5817184 534.4182739,33 530,33 Z" style="fill:none;stroke:rgb(127,127,127);stroke-width:4" clip-path="url(#clip10)" />
<clipPath id="clip11"><path d="M421,41 L526,41 L526,112 L421,112 L421,41 Z" /></clipPath>
<path d="M435.6525879,48.3283691 L431.0124512,61.1862793 L428.7878418,61.1862793 L424.2224121,48.3283691 L426.4055176,48.3283691 L429.6594238,58.0817871 C429.7811584,58.4414902 429.8669434,58.8399277 429.916748,59.2770996 L429.958252,59.2770996 C429.9969788,58.9118652 430.093811,58.5078964 430.2487793,58.0651855 L433.5441895,48.3283691 Z M437.3044434,48.8513184 C437.3044434,48.5248222 437.4165039,48.2550468 437.640625,48.0419922 C437.8647156,47.8289413 438.1483459,47.7224121 438.4914551,47.7224121 C438.82901,47.7224121 439.1140137,47.8289413 439.3464355,48.0419922 C439.5788269,48.2550468 439.6950378,48.5248222 439.6950684,48.8513184 C439.6950378,49.1778183 439.5788269,49.4475937 439.3464355,49.6606445 C439.1140137,49.8736992 438.82901,49.9802246 438.4914551,49.9802246 C438.1538696,49.9802246 437.8716431,49.8723145 437.6447754,49.6564941 C437.4178772,49.4406738 437.3044434,49.1722832 437.3044434,48.8513184 Z M437.4953613,61.1862793 L437.4953613,52.0056152 L439.4460449,52.0056152 L439.4460449,61.1862793 Z M450.0212402,57.1188965 L443.7126465,57.1188965 C443.7956543,58.9727402 444.7391663,59.8996582 446.5432129,59.8996582 C447.5614319,59.8996582 448.4883423,59.5952988 449.3239746,58.9865723 L449.3239746,60.5969238 C448.5049438,61.133709 447.4286194,61.4020996 446.0949707,61.4020996 C444.7336426,61.4020996 443.6683655,60.9870605 442.8991699,60.1569824 C442.1299438,59.3269043 441.7453613,58.1647949 441.7453613,56.6706543 C441.7453613,55.2539902 442.1589966,54.0863419 442.9863281,53.1677246 C443.8136292,52.2491074 444.8498535,51.7897949 446.0949707,51.7897949 C447.3345337,51.7897949 448.2987976,52.1813164 448.987793,52.9643555 C449.6767578,53.7473984 450.0212402,54.8251152 450.0212402,56.1975098 Z M448.1286621,55.6994629 C448.1231079,54.9136581 447.9432678,54.310463 447.5891113,53.8898926 C447.2349243,53.4693222 446.7313538,53.2590332 446.0783691,53.2590332 C445.4862366,53.2590332 444.9715881,53.4817734 444.5344238,53.9272461 C444.097229,54.3727188 443.8260803,54.9634628 443.7209473,55.6994629 Z M464.5144043,52.0056152 L461.8083496,61.1862793 L459.7746582,61.1862793 L458.0646973,55.0354004 C457.9872131,54.7642441 457.9401855,54.4432755 457.923584,54.0725098 L457.8820801,54.0725098 C457.8654785,54.3160019 457.8045959,54.6286621 457.6994629,55.010498 L455.8566895,61.1862793 L453.864502,61.1862793 L451.1501465,52.0056152 L453.1672363,52.0056152 L454.8439941,58.5881348 C454.9104004,58.8592911 454.9546509,59.1581192 454.9768066,59.4846191 L455.0349121,59.4846191 C455.0570374,59.1747208 455.1123657,58.8675919 455.2009277,58.5632324 L457.1350098,52.0056152 L458.9528809,52.0056152 L460.6794434,58.6047363 C460.7181702,58.7541504 460.7624512,59.0529785 460.8122559,59.5012207 L460.8786621,59.5012207 C460.8952637,59.2245255 460.9450684,58.9256973 461.0280762,58.6047363 L462.6633301,52.0056152 Z M482.7844238,61.1862793 L482.7844238,52.885498 C482.7844238,52.1605644 482.8231506,51.3000488 482.9006348,50.3039551 L482.8508301,50.3039551 C482.6847839,51.0178223 482.5547485,51.4854355 482.4606934,51.7067871 L478.5510254,61.1862793 L477.2478027,61.1862793 L473.3215332,51.7814941 C473.2219238,51.543541 473.0918579,51.0510254 472.9313965,50.3039551 L472.8815918,50.3039551 C472.9369202,51.0786972 472.9645691,52.013916 472.9645996,53.1096191 L472.9645996,61.1862793 L471.1135254,61.1862793 L471.1135254,48.3283691 L473.8942871,48.3283691 L477.3723145,56.8200684 C477.6434631,57.4841309 477.8233032,58.0347519 477.9118652,58.4719238 L477.9699707,58.4719238 C478.0751038,58.123291 478.2687988,57.5643692 478.5510254,56.795166 L482.0871582,48.3283691 L484.7600098,48.3283691 L484.7600098,61.1862793 Z M487.6652832,56.6789551 C487.6652832,55.1682129 488.09552,53.9756699 488.9560547,53.1013184 C489.8165588,52.2269707 490.9883423,51.7897949 492.4714355,51.7897949 C493.8714905,51.7897949 494.978241,52.2131348 495.791748,53.0598145 C496.6052246,53.9064941 497.0119629,55.0630722 497.0119629,56.529541 C497.0119629,58.0070801 496.5830688,59.1885605 495.7253418,60.0739746 C494.8675842,60.9593887 493.7220764,61.4020996 492.2888184,61.4020996 C490.8832092,61.4020996 489.7612305,60.9732285 488.9228516,60.1154785 C488.0844727,59.2577286 487.6652832,58.1122208 487.6652832,56.6789551 Z M489.6491699,56.6374512 C489.6491699,57.6446152 489.894043,58.4304199 490.3837891,58.994873 C490.8735352,59.5593262 491.5389709,59.8415527 492.380127,59.8415527 C494.1454163,59.8415527 495.0280762,58.7541504 495.0280762,56.5793457 C495.0280762,55.527916 494.801178,54.7268906 494.3474121,54.1762695 C493.8936157,53.6256485 493.237854,53.3503418 492.380127,53.3503418 C491.5223694,53.3503418 490.8527832,53.6436386 490.3713379,54.2302246 C489.8898926,54.8168106 489.6491699,55.6192245 489.6491699,56.6374512 Z M507.744873,61.1862793 L505.8024902,61.1862793 L505.8024902,59.7336426 L505.7609863,59.7336426 C505.0969238,60.8459473 504.0842285,61.4020996 502.7229004,61.4020996 C501.560791,61.4020996 500.6352539,60.9884415 499.9462891,60.1611328 C499.2573242,59.3338242 498.9128418,58.2173691 498.9128418,56.8117676 C498.9128418,55.2899551 499.3002014,54.0725098 500.0749512,53.1594238 C500.8496704,52.2463379 501.8596191,51.7897949 503.1047363,51.7897949 C504.349823,51.7897949 505.23526,52.2601738 505.7609863,53.2009277 L505.8024902,53.2009277 L505.8024902,47.5979004 L507.744873,47.5979004 Z M505.8190918,55.807373 C505.8190613,55.1101074 505.5935669,54.5262871 505.1425781,54.0559082 C504.6915588,53.5855331 504.1340332,53.3503418 503.4699707,53.3503418 C502.6841431,53.3503418 502.0588379,53.6519394 501.5939941,54.255127 C501.1291504,54.8583145 500.8967285,55.6828613 500.8967285,56.7287598 C500.8967285,57.6916504 501.1152954,58.4511719 501.5524902,59.0073242 C501.9896545,59.5634766 502.5845337,59.8415527 503.3371582,59.8415527 C504.067627,59.8415527 504.6638794,59.566246 505.1259766,59.015625 C505.5880432,58.465004 505.8190613,57.7691269 505.8190918,56.9279785 Z M518.5192871,57.1188965 L512.2106934,57.1188965 C512.2937012,58.9727402 513.2371826,59.8996582 515.0412598,59.8996582 C516.0594482,59.8996582 516.9863892,59.5952988 517.8220215,58.9865723 L517.8220215,60.5969238 C517.0029907,61.133709 515.9266357,61.4020996 514.5930176,61.4020996 C513.2316895,61.4020996 512.1663818,60.9870605 511.3972168,60.1569824 C510.6279907,59.3269043 510.2434082,58.1647949 510.2434082,56.6706543 C510.2434082,55.2539902 510.6570435,54.0863419 511.484375,53.1677246 C512.3116455,52.2491074 513.3479004,51.7897949 514.5930176,51.7897949 C515.8325806,51.7897949 516.796875,52.1813164 517.4858398,52.9643555 C518.1748047,53.7473984 518.5192871,54.8251152 518.5192871,56.1975098 Z M516.626709,55.6994629 C516.6211548,54.9136581 516.4412842,54.310463 516.0871582,53.8898926 C515.7329712,53.4693222 515.2293701,53.2590332 514.576416,53.2590332 C513.9842529,53.2590332 513.4696045,53.4817734 513.0324707,53.9272461 C512.5952759,54.3727188 512.3240967,54.9634628 512.2189941,55.6994629 Z M520.8269043,61.1862793 L520.8269043,47.5979004 L522.7775879,47.5979004 L522.7775879,61.1862793 Z" style="fill:rgb(89,89,89);stroke:none" clip-path="url(#clip11)" />
<clipPath id="clip12"><path d="M421,41 L526,41 L526,112 L421,112 L421,41 Z" /></clipPath>
<path d="M453.7524414,77.0354004 L446.1323242,77.0354004 L446.1323242,75.9645996 L453.7524414,75.9645996 Z M461.6049805,77.0354004 L453.9848633,77.0354004 L453.9848633,75.9645996 L461.6049805,75.9645996 Z M469.4575195,77.0354004 L461.8374023,77.0354004 L461.8374023,75.9645996 L469.4575195,75.9645996 Z M477.3100586,77.0354004 L469.6899414,77.0354004 L469.6899414,75.9645996 L477.3100586,75.9645996 Z M485.1625977,77.0354004 L477.5424805,77.0354004 L477.5424805,75.9645996 L485.1625977,75.9645996 Z M493.0151367,77.0354004 L485.3950195,77.0354004 L485.3950195,75.9645996 L493.0151367,75.9645996 Z M500.8676758,77.0354004 L493.2475586,77.0354004 L493.2475586,75.9645996 L500.8676758,75.9645996 Z" style="fill:rgb(89,89,89);stroke:none" clip-path="url(#clip12)" />
<clipPath id="clip13"><path d="M421,41 L526,41 L526,112 L421,112 L421,41 Z" /></clipPath>
<path d="M446.0825195,104.9455566 L445.0117188,106.0495605 C443.0748596,104.1237793 441.7827148,101.9517365 441.1352539,99.5334473 C440.5043945,101.8023224 439.145813,103.9743652 437.0595703,106.0495605 L436.1879883,104.8210449 C437.3833008,103.6091309 438.2811584,102.4138184 438.8815918,101.2351074 C439.4819946,100.0563965 439.9177856,98.595459 440.1889648,96.8522949 L436.4785156,96.8522949 L436.4785156,95.3913574 L440.3549805,95.3913574 L440.3549805,91.1081543 L441.8325195,91.1081543 L441.8325195,95.3913574 L445.8999023,95.3913574 L445.8999023,96.8522949 L441.9570313,96.8522949 C442.4550781,100.1449356 443.8302307,102.8426895 446.0825195,104.9455566 Z M435.8891602,105.9084473 L434.3701172,105.9084473 L434.3701172,100.5212402 C433.5898438,101.3181152 432.7514648,102.048584 431.8549805,102.7126465 L430.9916992,101.442627 C432.0818481,100.6678848 433.2080078,99.7105255 434.3701172,98.5705566 L434.3701172,91.1081543 L435.8891602,91.1081543 Z M445.4599609,94.3703613 L444.2480469,95.1672363 C443.705719,94.2818146 443.0776367,93.432373 442.3637695,92.6188965 L443.4345703,91.7141113 C444.2480469,92.5663223 444.9231567,93.4517365 445.4599609,94.3703613 Z M433.8305664,96.8190918 L432.4360352,97.3254395 C432.209137,96.1633301 431.7996216,94.912674 431.2075195,93.5734863 L432.5522461,92.9592285 C433.1000977,94.1988068 433.5261841,95.4854279 433.8305664,96.8190918 Z M463.6635742,99.3342285 L462.8251953,100.7287598 C460.9104614,99.8820801 459.4716797,99.010498 458.5087891,98.1140137 C457.5458984,97.2175293 456.7241211,96.0083771 456.043457,94.4865723 C455.733551,95.3111115 455.3212891,96.0775528 454.8066406,96.7858887 C455.8469849,97.3835449 456.7794495,97.989502 457.6040039,98.6037598 L456.5332031,99.7077637 C455.6865234,99.0547638 454.7651367,98.4654083 453.769043,97.9396973 C452.7452698,98.935791 451.2760315,99.843338 449.3613281,100.6623535 L448.4648438,99.4172363 C451.6965942,98.1721191 453.6832581,96.5119629 454.4248047,94.4367676 L448.9545898,94.4367676 L448.9545898,93.0256348 L454.9228516,93.0256348 C455.1054382,92.4999161 455.2687073,91.824791 455.4125977,91.0002441 L456.8901367,91.1413574 C456.8015747,91.6781387 456.6660156,92.3062363 456.4833984,93.0256348 L463.1489258,93.0256348 L463.1489258,94.4367676 L457.6455078,94.4367676 C458.5917969,96.716713 460.5978088,98.3491974 463.6635742,99.3342285 Z M458.2514648,102.4802246 L456.9648438,103.2770996 C456.455719,102.4359512 455.8414612,101.6086426 455.1220703,100.795166 L456.3837891,100.0979004 C457.1474609,100.8781738 457.7700195,101.6722794 458.2514648,102.4802246 Z M460.3764648,103.4597168 C460.1329651,104.5554199 459.8369141,105.2236328 459.4882813,105.4643555 C459.1396484,105.7050781 458.6775513,105.8254395 458.1020508,105.8254395 C455.5177307,105.8254395 454.0623169,105.8115997 453.7358398,105.7839355 C453.4093323,105.7562637 453.1450806,105.6096191 452.9431152,105.3439941 C452.7411194,105.0783691 452.6401367,104.7961426 452.6401367,104.4973145 L452.6401367,100.5378418 L454.1259766,100.5378418 L454.1259766,104.0075684 C454.125946,104.1901855 454.1951294,104.303627 454.3334961,104.3479004 C454.4718323,104.3921661 455.2493286,104.4143066 456.6660156,104.4143066 C457.5680237,104.4143066 458.1311035,104.3907852 458.3552246,104.34375 C458.5793457,104.2967072 458.7495117,103.8166504 458.8657227,102.9035645 Z M451.9677734,101.3347168 C451.3479614,103.050209 450.6396179,104.4613419 449.8427734,105.5681152 L448.5644531,104.6882324 C449.3889771,103.5925293 450.0641174,102.2727051 450.5898438,100.7287598 Z M463.5058594,104.8376465 L462.1279297,105.6262207 C461.6630859,104.2593536 460.9326172,102.8703613 459.9365234,101.4592285 L461.2978516,100.7785645 C462.1998596,102.1066895 462.9358521,103.4597168 463.5058594,104.8376465 Z M480.7216797,97.2092285 C480.688446,98.7421036 480.583313,100.3317032 480.40625,101.9780273 C480.2291565,103.6243439 479.9995117,104.6232071 479.7172852,104.9746094 C479.4350586,105.326004 479.1168518,105.5847168 478.7626953,105.7507324 C478.4085083,105.916748 477.4981995,105.9997559 476.0317383,105.9997559 C475.6609497,105.9997559 475.2652893,105.9942169 474.8447266,105.9831543 L474.2802734,104.4143066 C474.7727661,104.4364395 475.8325195,104.4475098 477.4594727,104.4475098 C477.6808167,104.4475098 477.8911133,104.3852539 478.090332,104.2607422 C478.2895508,104.1362305 478.4223633,103.9619141 478.4887695,103.737793 C478.5551758,103.5136719 478.6547852,102.9049454 478.7875977,101.9116211 C478.9204102,100.9182892 479.0117188,99.8322754 479.0615234,98.6535645 L468.1791992,98.6535645 L468.1791992,91.1247559 L469.7729492,91.1247559 L469.7729492,93.3327637 L479.6342773,93.3327637 L479.6342773,94.7937012 L469.7729492,94.7937012 L469.7729492,97.2092285 Z M477.7001953,102.2561035 L466.2202148,102.2561035 L466.2202148,100.795166 L477.7001953,100.795166 Z M488.4580078,95.2004395 L486.9389648,95.2004395 L486.9389648,97.8566895 C487.2654419,97.7404785 487.6970825,97.5357208 488.2338867,97.2424316 L488.3334961,98.670166 C488.2172852,98.7587051 487.7524414,99.0132599 486.9389648,99.4338379 L486.9389648,104.3312988 C486.9389648,104.8846817 486.788147,105.2845001 486.4865723,105.5307617 C486.184967,105.7770157 485.4309692,105.9029083 484.2246094,105.9084473 L483.8012695,104.4309082 C484.0668945,104.4530411 484.3518677,104.4641113 484.65625,104.4641113 C485.0380859,104.4641113 485.2705078,104.4419708 485.3535156,104.3977051 C485.4365234,104.3534317 485.4780273,104.2731934 485.4780273,104.1569824 L485.4780273,100.0979004 C484.7862854,100.3967285 484.2827148,100.5904083 483.9672852,100.6789551 L483.6435547,99.2678223 C484.080719,99.1405411 484.6921997,98.9081192 485.4780273,98.5705566 L485.4780273,95.2004395 L483.6933594,95.2004395 L483.6933594,93.7727051 L485.4780273,93.7727051 L485.4780273,91.1081543 L486.9389648,91.1081543 L486.9389648,93.7727051 L488.4580078,93.7727051 Z M497.3149414,94.5695801 L489.5454102,94.5695801 L489.5454102,91.3737793 L497.3149414,91.3737793 Z M495.8374023,93.4157715 L495.8374023,92.5690918 L491.0395508,92.5690918 L491.0395508,93.4157715 Z M497.9790039,98.9606934 L493.7788086,98.9606934 L493.7788086,95.3913574 L497.9790039,95.3913574 Z M496.5678711,97.7653809 L496.5678711,96.6115723 L495.1567383,96.6115723 L495.1567383,97.7653809 Z M493.081543,98.9606934 L488.8979492,98.9606934 L488.8979492,95.3913574 L493.081543,95.3913574 Z M491.7036133,97.7653809 L491.7036133,96.6115723 L490.2758789,96.6115723 L490.2758789,97.7653809 Z M498.5351563,101.4592285 L494.1689453,101.4592285 L494.1689453,105.9084473 L492.6582031,105.9084473 L492.6582031,101.4592285 L488.034668,101.4592285 L488.034668,100.0812988 L492.6582031,100.0812988 L492.6582031,99.4338379 L494.1689453,99.4338379 L494.1689453,100.0812988 L498.5351563,100.0812988 Z M498.6928711,104.4807129 L497.6220703,105.501709 C497.0188599,104.6494904 496.1279297,103.7087402 494.9492188,102.6794434 L496.0366211,101.7663574 C497.2042542,102.7956543 498.0896606,103.7004395 498.6928711,104.4807129 Z M491.7368164,102.6794434 C490.8956604,103.7862091 489.9050903,104.7380371 488.7651367,105.5349121 L487.7109375,104.4641113 C488.8840942,103.7225723 489.8580627,102.8288574 490.6328125,101.782959 Z M505.9643555,91.2907715 C505.7208557,91.9825058 505.4856567,92.5995255 505.2587891,93.1418457 L504.5366211,94.8269043 L504.5366211,105.8918457 L503.0009766,105.8918457 L503.0009766,97.4250488 C502.5637817,98.0337677 502.1847229,98.5041504 501.8637695,98.8361816 L501.1499023,97.2590332 C502.5610352,95.5214005 503.6539612,93.4185333 504.4287109,90.9504395 Z M516.0083008,94.6442871 L510.7207031,94.6442871 L510.7207031,97.1428223 L515.6181641,97.1428223 L515.6181641,98.5539551 L510.7207031,98.5539551 L510.7207031,101.0192871 L515.6347656,101.0192871 L515.6347656,102.4055176 L510.7207031,102.4055176 L510.7207031,105.9084473 L509.1933594,105.9084473 L509.1933594,94.6442871 L508.6123047,94.6442871 C507.7932739,96.2324982 506.9770508,97.4831543 506.1635742,98.3962402 L505.0595703,97.342041 C506.5260315,95.5822754 507.6383362,93.4572754 508.3964844,90.967041 L509.9072266,91.2907715 C509.8242188,91.633873 509.6028442,92.2813339 509.2431641,93.2331543 L516.0083008,93.2331543 Z" style="fill:rgb(89,89,89);stroke:none" clip-path="url(#clip13)" />
<clipPath id="clip14"><path d="M165,54 L414,54 L414,57 L165,57 L165,54 Z" /></clipPath>
<path d="M171,67.9859161 L408,67.6666641" style="fill:none;stroke:rgb(127,127,127);stroke-width:5" clip-path="url(#clip14)" />
<clipPath id="clip15"><path d="M165,55 L231,55 L231,82 L165,82 L165,55 Z" /></clipPath>
<path d="M171,67.9859161 L408,67.6666641" style="fill:none;stroke:rgb(127,127,127);stroke-width:5" clip-path="url(#clip15)" />
<clipPath id="clip16"><path d="M348,55 L414,55 L414,82 L348,82 L348,55 Z" /></clipPath>
<path d="M171,67.9859161 L408,67.6666641" style="fill:none;stroke:rgb(127,127,127);stroke-width:5" clip-path="url(#clip16)" />
<clipPath id="clip17"><path d="M229,55 L350,55 L350,82 L229,82 L229,55 Z" /></clipPath>
<path d="M171,67.9859161 L408,67.6666641" style="fill:none;stroke:rgb(127,127,127);opacity:0.09803921568627451;stroke-width:5" clip-path="url(#clip17)" />
<clipPath id="clip18"><path d="M165,54 L414,54 L414,82 L165,82 L165,54 Z" /></clipPath>
<path d="M395.8850708,74.682991 L408,67.6666641 L395.8662109,60.6830063 Z" style="fill:rgb(127,127,127);stroke:none" clip-path="url(#clip18)" />
<clipPath id="clip19"><path d="M165,54 L414,54 L414,82 L165,82 L165,54 Z" /></clipPath>
<path d="M395.8850708,74.682991 L408,67.6666641 L395.8662109,60.6830063 Z" style="fill:none;stroke:rgb(127,127,127);stroke-width:5" clip-path="url(#clip19)" />
<clipPath id="clip20"><path d="M229,55 L350,55 L350,82 L229,82 L229,55 Z" /></clipPath>
<path d="M234.3828125,65.4375 C234.658844,65.4322891 234.9973907,65.421875 235.3984375,65.40625 C235.5859222,65.0729141 235.7734222,64.7291641 235.9609375,64.375 L237.6171875,65.015625 C236.5755157,66.9947891 235.7161407,68.46875 235.0390625,69.4375 L236.7109375,69.265625 C236.6484375,70.0052109 236.6171875,70.640625 236.6171875,71.171875 C235.0130157,71.2447891 233.8255157,71.3645859 233.0546875,71.53125 L232.5234375,69.796875 C233.127594,69.03125 233.7473907,68.140625 234.3828125,67.125 C233.7890625,67.1614609 233.2473907,67.2083359 232.7578125,67.265625 L232.2578125,65.578125 C232.8202972,64.859375 233.6640625,63.21875 234.7890625,60.65625 L236.6953125,61.4375 C235.6536407,63.3854179 234.8828125,64.71875 234.3828125,65.4375 Z M242.1953125,71.78125 L240.3125,71.78125 C239.9479065,73.5572891 239.1848907,75.03125 238.0234375,76.203125 C237.5234375,75.8072891 236.940094,75.390625 236.2734375,74.953125 C237.236969,74.1458359 237.9166565,73.0885391 238.3125,71.78125 L236.8984375,71.78125 L236.8984375,69.96875 L238.6484375,69.96875 C238.690094,69.453125 238.7161407,68.859375 238.7265625,68.1875 L237.2265625,68.1875 L237.2265625,66.359375 L238.7265625,66.359375 L238.7265625,64.59375 L237.0859375,64.59375 L237.0859375,62.78125 L238.7265625,62.78125 L238.7265625,60.78125 L240.6015625,60.78125 L240.6015625,62.78125 L242.1328125,62.78125 L242.1328125,64.59375 L240.6015625,64.59375 L240.6015625,66.359375 L241.9765625,66.359375 L241.9765625,68.1875 L240.6015625,68.1875 C240.596344,68.8333359 240.5755157,69.4270859 240.5390625,69.96875 L242.1953125,69.96875 Z M246.5390625,67.953125 C247.393219,69.359375 247.8202972,70.828125 247.8203125,72.359375 C247.8202972,72.9739609 247.6484222,73.5013046 247.3046875,73.9414063 C246.9609222,74.3815079 246.1171722,74.6145859 244.7734375,74.640625 C244.643219,74.1197891 244.4921875,73.5885391 244.3203125,73.046875 L244.3203125,76.171875 L242.4453125,76.171875 L242.4453125,61.5 L247.6484375,61.5 L247.6484375,63.265625 C247.3046875,64.953125 246.9348907,66.515625 246.5390625,67.953125 Z M244.5859375,68.015625 C245.0442657,66.234375 245.4036407,64.6666641 245.6640625,63.3125 L244.3203125,63.3125 L244.3203125,72.6171875 C245.0598907,72.6640625 245.502594,72.609375 245.6484375,72.453125 C245.7942657,72.296875 245.8671875,72.0989609 245.8671875,71.859375 C245.8671875,70.7395859 245.440094,69.4583359 244.5859375,68.015625 Z M232.3203125,72.71875 C233.736969,72.5416641 235.2890625,72.328125 236.9765625,72.078125 C236.9036407,72.6510391 236.8567657,73.265625 236.8359375,73.921875 C235.408844,74.140625 233.9817657,74.3802109 232.5546875,74.640625 Z M255,61.21875 L257.390625,60.65625 C257.6041565,61.1979179 257.828125,61.796875 258.0625,62.453125 L263.703125,62.453125 L263.703125,65.53125 L261.546875,65.53125 L261.546875,64.359375 L251.609375,64.359375 L251.609375,65.53125 L249.453125,65.53125 L249.453125,62.453125 L255.4765625,62.453125 Z M263.125,69.6875 L263.125,71.609375 L257.90625,71.609375 L257.90625,73.7265625 C259.609375,73.7630234 261.75,73.7447891 264.328125,73.671875 C264.036438,74.5364609 263.8125,75.2395859 263.65625,75.78125 C259.9479065,75.78125 257.252594,75.7252579 255.5703125,75.6132813 C253.8880157,75.5013046 252.703125,74.7942734 252.015625,73.4921875 C251.484375,74.5651016 250.8385315,75.4635391 250.078125,76.1875 C249.609375,75.4895859 249.1770782,74.8854141 248.78125,74.375 C250.0833282,73.0520859 250.9166565,71.171875 251.28125,68.734375 L253.375,68.984375 C253.2395782,69.7864609 253.0703125,70.5364609 252.8671875,71.234375 C253.3984375,72.6041641 254.3333282,73.3932266 255.671875,73.6015625 L255.671875,68 L249.203125,68 L249.203125,66.078125 L263.9375,66.078125 L263.9375,68 L257.90625,68 L257.90625,69.6875 Z M265.6171875,63.8125 L266.8359375,63.8125 C266.5598755,63.2552109 266.190094,62.6614609 265.7265625,62.03125 L267.1328125,61.15625 C267.455719,61.5416679 267.893219,62.1458359 268.4453125,62.96875 L267.0390625,63.8125 L268.7890625,63.8125 L268.7890625,60.75 L270.7734375,60.75 L270.7734375,63.8125 L272.4140625,63.8125 L271.1171875,62.96875 C271.6380005,62.3333359 272.0755005,61.7135429 272.4296875,61.109375 L273.8984375,61.984375 C273.549469,62.578125 273.1171875,63.1875 272.6015625,63.8125 L273.5078125,63.8125 L273.5078125,65.40625 L270.7734375,65.40625 L270.7734375,66.5 L271.3046875,65.78125 C271.955719,66.1302109 272.5729065,66.4739609 273.15625,66.8125 C274.0104065,65.2291641 274.7473755,63.1822891 275.3671875,60.671875 L277.5078125,60.875 C277.299469,61.6822929 277.078125,62.453125 276.84375,63.1875 L280.7578125,63.1875 L280.7578125,65.09375 L280.125,65.09375 C279.9010315,67.8541641 279.315094,70.1223984 278.3671875,71.8984375 C279.033844,72.6744766 279.8515625,73.34375 280.8203125,73.90625 C280.4453125,74.3333359 279.9921875,75.0260391 279.4609375,75.984375 C278.549469,75.375 277.7604065,74.6354141 277.09375,73.765625 C276.234375,74.7760391 275.236969,75.59375 274.1015625,76.21875 C273.6796875,75.6197891 273.2135315,75.0572891 272.703125,74.53125 L272.1484375,75.453125 C271.5234375,75.09375 270.8411255,74.7291641 270.1015625,74.359375 C268.9609375,75.1197891 267.596344,75.6614609 266.0078125,75.984375 C265.8203125,75.4114609 265.5442505,74.7708359 265.1796875,74.0625 C266.268219,73.9479141 267.2265625,73.7291641 268.0546875,73.40625 C267.3359375,73.0885391 266.5755005,72.765625 265.7734375,72.4375 C266.127594,71.921875 266.4453125,71.40625 266.7265625,70.890625 L265.4453125,70.890625 L265.4453125,69.296875 L267.5,69.296875 C267.671875,68.8854141 267.8203125,68.4739609 267.9453125,68.0625 L268.7890625,68.140625 L268.7890625,66.640625 C268.018219,67.453125 267.049469,68.2083359 265.8828125,68.90625 C265.6640625,68.2083359 265.4192505,67.5833359 265.1484375,67.03125 C266.1848755,66.6302109 267.1197815,66.0885391 267.953125,65.40625 L265.6171875,65.40625 Z M276.0078125,65.5390625 C276.2161255,67.2734375 276.580719,68.7239609 277.1015625,69.890625 C277.721344,68.5260391 278.0911255,66.9270859 278.2109375,65.09375 L276.1796875,65.09375 C276.127594,65.2447891 276.0703125,65.3932266 276.0078125,65.5390625 Z M270.7734375,68.5 L269.984375,68.5 C269.864563,68.7552109 269.7317505,69.0208359 269.5859375,69.296875 L273.2265625,69.296875 L273.2265625,70.75 C272.8203125,71.5989609 272.3125,72.3515625 271.703125,73.0078125 L273.2578125,73.625 L272.9453125,74.1328125 C274.096344,73.5338516 275.078125,72.7578125 275.890625,71.8046875 C275.380188,70.7578125 274.989563,69.5859375 274.71875,68.2890625 C274.536438,68.6171875 274.3515625,68.9322891 274.1640625,69.234375 C273.924469,68.8177109 273.645813,68.3880234 273.328125,67.9453125 L272.8671875,68.640625 C272.221344,68.203125 271.5234375,67.7604141 270.7734375,67.3125 Z M268.2734375,71.703125 L269.8984375,72.3125 C270.3671875,71.90625 270.752594,71.4322891 271.0546875,70.890625 L268.734375,70.890625 Z M297.234375,69.25 L293.671875,69.25 L293.671875,70.5625 L296.296875,70.5625 L296.296875,76.171875 L294.453125,76.171875 L294.453125,75.390625 L290.96875,75.390625 L290.96875,76.171875 L289.125,76.171875 L289.125,70.5625 L291.703125,70.5625 L291.703125,69.25 L288.96875,69.25 C288.78125,72.1041641 288.114563,74.3697891 286.96875,76.046875 C286.53125,75.4739609 286.0625,74.9427109 285.5625,74.453125 C286.6041565,72.6302109 287.125,70.15625 287.125,67.03125 L287.125,61.328125 L296.578125,61.328125 L296.578125,66.21875 L293.671875,66.21875 L293.671875,67.609375 L297.234375,67.609375 Z M281.921875,63.671875 L283.40625,63.671875 L283.40625,60.90625 L285.296875,60.90625 L285.296875,63.671875 L286.640625,63.671875 L286.640625,65.671875 L285.296875,65.671875 L285.296875,67.859375 C285.7447815,67.765625 286.21875,67.65625 286.71875,67.53125 C286.6666565,68.3645859 286.645813,69.0416641 286.65625,69.5625 C286.1979065,69.6770859 285.7447815,69.7916641 285.296875,69.90625 L285.296875,74.1875 C285.296875,75.34375 284.8229065,75.9375 283.875,75.96875 C283.3229065,76.0208359 282.7916565,76.0364609 282.28125,76.015625 C282.177063,75.4010391 282.0260315,74.7239609 281.828125,73.984375 C282.171875,73.9947891 282.520813,74.0052109 282.875,74.015625 C283.2291565,74.0260391 283.40625,73.7760391 283.40625,73.265625 L283.40625,70.390625 C282.90625,70.5260391 282.40625,70.65625 281.90625,70.78125 L281.734375,68.625 C282.203125,68.53125 282.7604065,68.4166641 283.40625,68.28125 L283.40625,65.671875 L281.921875,65.671875 Z M294.65625,64.578125 L294.65625,62.96875 L289.03125,62.96875 L289.03125,64.578125 Z M294.453125,72.203125 L290.96875,72.203125 L290.96875,73.75 L294.453125,73.75 Z M291.703125,67.609375 L291.703125,66.21875 L289.03125,66.21875 L289.03125,67.609375 Z M313.3203125,64.671875 L302.9765625,64.671875 L302.8671875,66.4375 L312.5703125,66.4375 L312.3203125,72.6875 C312.2734375,73.8697891 311.9518127,74.6979141 311.3554688,75.171875 C310.7590942,75.6458359 309.9505005,75.8854141 308.9296875,75.890625 L305.5546875,75.890625 C305.4296875,75.2552109 305.2473755,74.5 305.0078125,73.625 C306.0911255,73.6770859 307.1484375,73.703125 308.1796875,73.703125 C309.2630005,73.703125 309.848938,73.3763046 309.9375,72.7226563 C310.0260315,72.0690079 310.0911255,70.6458359 310.1328125,68.453125 L300.3984375,68.453125 L300.8359375,60.859375 L303.2109375,60.859375 L303.1015625,62.625 L313.3203125,62.625 Z M309.1171875,72.125 L298.4296875,72.125 L298.4296875,70.078125 L309.1171875,70.078125 Z M324.15625,60.75 L323.75,61.21875 C325.302063,62.9791679 327.473938,64.140625 330.265625,64.703125 C329.8697815,65.3697891 329.536438,66.0885391 329.265625,66.859375 C328.192688,66.546875 327.203125,66.1614609 326.296875,65.703125 L326.296875,66.640625 L318.609375,66.640625 L318.609375,65.78125 C317.765625,66.2604141 316.848938,66.6927109 315.859375,67.078125 C315.515625,66.3072891 315.1197815,65.6041641 314.671875,64.96875 C317.7447815,64.0729141 320.015625,62.6666679 321.484375,60.75 Z M315.796875,74.96875 L315.796875,67.796875 L321.703125,67.796875 L321.703125,74.71875 L319.671875,74.71875 L319.671875,74.015625 L317.828125,74.015625 L317.828125,74.96875 Z M324.859375,76.203125 L322.828125,76.203125 L322.828125,67.71875 L329.140625,67.71875 L329.140625,72.859375 C329.140625,73.859375 328.583313,74.4114609 327.46875,74.515625 C327,74.5677109 326.380188,74.59375 325.609375,74.59375 C325.515625,73.7916641 325.359375,73.0885391 325.140625,72.484375 C325.515625,72.5260391 325.942688,72.5520859 326.421875,72.5625 C326.880188,72.5625 327.109375,72.3489609 327.109375,71.921875 L327.109375,69.53125 L324.859375,69.53125 Z M319.671875,69.546875 L317.828125,69.546875 L317.828125,72.265625 L319.671875,72.265625 Z M322.421875,62.75 C321.734375,63.5104179 320.953125,64.203125 320.078125,64.828125 L324.8125,64.828125 C323.90625,64.2239609 323.109375,63.53125 322.421875,62.75 Z M345.4609375,68.296875 L345.4609375,70.3125 C343.9296875,71.6354141 342.486969,72.8020859 341.1328125,73.8125 C341.611969,74.03125 342.1015625,74.2291641 342.6015625,74.40625 L341.2421875,76.34375 C337.815094,74.5416641 335.252594,73.2604141 333.5546875,72.5 L334.6640625,70.921875 C335.8828125,71.4322891 337.283844,72.046875 338.8671875,72.765625 C340.2734375,71.8177109 341.393219,70.984375 342.2265625,70.265625 L332.5234375,70.265625 L332.5234375,68.296875 Z M340.6953125,60.75 L340.2578125,61.265625 C341.861969,63.2760429 344.0234375,64.78125 346.7421875,65.78125 C346.3255005,66.3229141 345.8515625,66.96875 345.3203125,67.71875 C342.736969,66.5729141 340.6171875,64.9583359 338.9609375,62.875 C337.4296875,64.8229141 335.2890625,66.4895859 332.5390625,67.875 C332.0598755,67.1145859 331.5911255,66.4791641 331.1328125,65.96875 C333.9765625,64.8125 336.252594,63.0729179 337.9609375,60.75 Z M338.5859375,64.734375 C339.377594,65.5364609 340.0546875,66.3020859 340.6171875,67.03125 L338.8046875,68.234375 C338.2942505,67.5052109 337.6692505,66.71875 336.9296875,65.875 Z" style="fill:rgb(102,102,102);stroke:none" clip-path="url(#clip20)" />
<clipPath id="clip21"><path d="M347,113 L536,113 L536,348 L347,348 L347,113 Z" /></clipPath>
<path d="M500.3776855,119 L500.3776855,360.2195129 L500.3776855,360.2195129 L353,360.2195129" style="fill:none;stroke:rgb(127,127,127);stroke-width:5" clip-path="url(#clip21)" />
<clipPath id="clip22"><path d="M347,346 L466,346 L466,373 L347,373 L347,346 Z" /></clipPath>
<path d="M500.3776855,119 L500.3776855,360.2195129 L500.3776855,360.2195129 L353,360.2195129" style="fill:none;stroke:rgb(127,127,127);stroke-width:5" clip-path="url(#clip22)" />
<clipPath id="clip23"><path d="M464,346 L536,346 L536,373 L464,373 L464,346 Z" /></clipPath>
<path d="M500.3776855,119 L500.3776855,360.2195129 L500.3776855,360.2195129 L353,360.2195129" style="fill:none;stroke:rgb(127,127,127);opacity:0.09803921568627451;stroke-width:5" clip-path="url(#clip23)" />
<clipPath id="clip24"><path d="M347,113 L536,113 L536,373 L347,373 L347,113 Z" /></clipPath>
<path d="M365.1243591,353.2195129 L353,360.2195129 L365.1243591,367.2195129 Z" style="fill:rgb(127,127,127);stroke:none" clip-path="url(#clip24)" />
<clipPath id="clip25"><path d="M347,113 L536,113 L536,373 L347,373 L347,113 Z" /></clipPath>
<path d="M365.1243591,353.2195129 L353,360.2195129 L365.1243591,367.2195129 Z" style="fill:none;stroke:rgb(127,127,127);stroke-width:5" clip-path="url(#clip25)" />
<clipPath id="clip26"><path d="M464,346 L536,346 L536,373 L464,373 L464,346 Z" /></clipPath>
<path d="M469.0039368,355.109375 L474.2226868,355.109375 L474.2226868,354.171875 L467.8008118,354.171875 L467.8008118,352.40625 L482.7070618,352.40625 L482.7070618,354.171875 L476.3789368,354.171875 L476.3789368,355.109375 L481.5976868,355.109375 L481.5976868,362.890625 L479.5039368,362.890625 L479.5039368,362.015625 L476.3476868,362.015625 C476.2747498,362.8541565 476.0794373,363.5598755 475.7617493,364.1328125 C477.6211243,364.565094 480.0247498,364.8072815 482.9726868,364.859375 L481.7695618,367 C478.3841248,366.848938 475.8086243,366.424469 474.0429993,365.7265625 C472.9284058,366.320282 471.2382813,366.8229065 468.9726868,367.234375 C468.6184998,366.6822815 468.1237183,365.9947815 467.4883118,365.171875 C469.3789063,364.9947815 470.8190308,364.7604065 471.8086243,364.46875 C471.0638123,363.953125 470.4101868,363.4010315 469.8476868,362.8125 L470.9961243,362.015625 L469.0039368,362.015625 Z M479.5039368,356.78125 L476.3789368,356.78125 L476.3789368,357.796875 L479.5039368,357.796875 Z M471.0976868,357.796875 L474.2226868,357.796875 L474.2226868,356.78125 L471.0976868,356.78125 Z M471.0976868,360.34375 L474.2226868,360.34375 L474.2226868,359.328125 L471.0976868,359.328125 Z M479.5039368,360.34375 L479.5039368,359.328125 L476.3789368,359.328125 L476.3789368,360.34375 Z M474.1679993,362.015625 L471.4648743,362.015625 C472.0638123,362.5729065 472.7825623,363.0416565 473.6211243,363.421875 C473.9023743,363.0625 474.0846558,362.59375 474.1679993,362.015625 Z M491.9804993,354.875 L489.8398743,354.875 C490.1263123,355.005188 490.6835938,355.25 491.5117493,355.609375 C491.3398438,355.875 491.0742188,356.2760315 490.7148743,356.8125 L492.3242493,356.8125 L492.3242493,358.5625 L489.2929993,358.5625 L489.2929993,359.578125 L492.0429993,359.578125 L492.0429993,361.328125 L489.2929993,361.328125 L489.2929993,365.09375 C489.2929993,365.578125 489.1901245,365.9609375 488.9844055,366.2421875 C488.778656,366.523407 488.492218,366.7018127 488.1250305,366.7773438 C487.757843,366.8528442 487.0794373,366.890625 486.0898743,366.890625 C486.0429993,366.270813 485.9388123,365.6848755 485.7773743,365.1328125 L485.4492493,365.828125 C485.0429993,365.578125 484.4856873,365.317688 483.7773743,365.046875 C484.2981873,364.067688 484.7513123,362.921875 485.1367493,361.609375 L486.8867493,362.140625 C486.6054993,363.083313 486.2721558,363.9947815 485.8867493,364.875 C486.1419373,364.895813 486.3971558,364.90625 486.6523743,364.90625 C487.0481873,364.90625 487.2513123,364.671875 487.2617493,364.203125 L487.2617493,361.328125 L484.3242493,361.328125 L484.3242493,359.578125 L487.2617493,359.578125 L487.2617493,358.5625 L484.0742493,358.5625 L484.0742493,356.8125 L485.7539368,356.8125 C485.5351868,356.3854065 485.3086243,355.9791565 485.0742493,355.59375 L486.7773743,354.90625 C487.1940308,355.598938 487.5429993,356.234375 487.8242493,356.8125 L488.5117493,356.8125 C489.0273743,355.942688 489.3815308,355.296875 489.5742493,354.875 L484.3554993,354.875 L484.3554993,353.125 L487.1367493,353.125 C486.9961243,352.7447815 486.8606873,352.4010315 486.7304993,352.09375 L488.8867493,351.703125 C489.0377808,352.109375 489.1940308,352.583313 489.3554993,353.125 L491.9804993,353.125 Z M499.4804993,358.859375 L498.2929993,358.859375 L498.2929993,366.984375 L496.2304993,366.984375 L496.2304993,358.859375 L494.8554993,358.859375 L494.8554993,359.75 C494.8554993,363.046875 494.1419373,365.5625 492.7148743,367.296875 C492.0065308,366.6822815 491.3502808,366.161438 490.7461243,365.734375 C491.3398743,365.208313 491.8034058,364.5546875 492.1367493,363.7734375 L490.5429993,364.671875 C490.1784058,363.848938 489.7825623,363.078125 489.3554993,362.359375 L490.8554993,361.609375 C491.2252808,362.109375 491.6549683,362.8255005 492.1445618,363.7578125 C492.5768433,362.7421875 492.7929993,361.5104065 492.7929993,360.0625 L492.7929993,353.03125 C495.1679993,352.7916565 497.1002808,352.411438 498.5898743,351.890625 L499.4804993,353.9375 C498.0742188,354.3125 496.5325623,354.578125 494.8554993,354.734375 L494.8554993,356.8125 L499.4804993,356.8125 Z M505.9570618,351.78125 L505.9570618,365.15625 C507.8528748,363.4947815 508.9830933,361.192688 509.3476868,358.25 L506.4883118,358.25 L506.4883118,356.203125 L509.4804993,356.203125 C509.5273743,354.505188 509.5455933,353.03125 509.5351868,351.78125 L511.6758118,351.78125 C511.6758118,353.2760315 511.6497498,354.75 511.5976868,356.203125 L515.6132813,356.203125 L515.6132813,358.25 L511.9726868,358.25 C512.6132813,361.59375 513.9622803,363.9010315 516.0195313,365.171875 C515.5091553,365.6822815 514.9830933,366.3385315 514.4414063,367.140625 C512.7330933,365.895813 511.5429993,363.7291565 510.8711243,360.640625 C510.3086243,363.427063 509.1393433,365.630188 507.3633118,367.25 C506.9309998,366.578125 506.4622498,365.9505005 505.9570618,365.3671875 L505.9570618,367.1875 L503.8633118,367.1875 L503.8633118,362.0546875 C502.9830933,362.7109375 502.0716248,363.4375 501.1289368,364.234375 L500.4414368,361.75 C501.4674683,361.1197815 502.6080933,360.3203125 503.8633118,359.3515625 L503.8633118,351.78125 Z M513.6132813,351.984375 C514.2070313,352.598938 514.8893433,353.390625 515.6601563,354.359375 L514.0351563,355.625 C513.3372803,354.6041565 512.7018433,353.7447815 512.1289063,353.046875 Z M502.3320618,353.78125 C502.8633118,355.03125 503.3580933,356.395813 503.8164368,357.875 L501.9883118,358.53125 C501.6133118,357.125 501.1705933,355.734375 500.6601868,354.359375 Z M517.4335938,353.5 L523.3242188,353.5 C523.4284058,352.958313 523.4648438,352.3697815 523.4335938,351.734375 L525.7460938,351.734375 C525.7252808,352.380188 525.6914063,352.96875 525.6445313,353.5 L531.9335938,353.5 L531.9335938,355.375 L526.6367188,355.375 C527.9804688,356.8385315 529.9232178,357.817688 532.4648438,358.3125 C532.0482178,359.1041565 531.6784058,359.8697815 531.3554688,360.609375 C528.5065308,359.7447815 526.2877808,358.1484375 524.6992188,355.8203125 C523.5221558,358.1015625 521.3398438,359.765625 518.1523438,360.8125 C517.7669678,359.989563 517.3502808,359.2291565 516.9023438,358.53125 C519.8710938,357.84375 521.7721558,356.7916565 522.6054688,355.375 L517.4335938,355.375 Z M523.9804688,357.515625 C524.7096558,357.9635315 525.5690308,358.5260315 526.5585938,359.203125 L525.1523438,360.609375 C524.2773438,359.880188 523.4596558,359.2604065 522.6992188,358.75 Z M524.1210938,360.21875 C525.1940308,360.8541565 526.1835938,361.5 527.0898438,362.15625 L525.7929688,363.65625 C524.9179688,362.9375 523.9700928,362.265625 522.9492188,361.640625 Z M530.4179688,360.796875 C531.2096558,361.984375 531.9075928,363.177063 532.5117188,364.375 L530.6523438,365.390625 C530.0794678,364.171875 529.4023438,362.9375 528.6210938,361.6875 Z M527.5585938,362.890625 C528.3294678,363.265625 529.0482178,363.578125 529.7148438,363.828125 C529.3971558,365.1197815 529.0065308,365.958313 528.5429688,366.34375 C528.0794678,366.7291565 527.3867188,366.9218445 526.4648438,366.921875 L522.9335938,366.921875 C521.3710938,366.9218445 520.5898438,366.1510315 520.5898438,364.609375 L520.5898438,361.34375 L522.6523438,361.34375 L522.6523438,364.09375 C522.6523438,364.7291565 522.9752808,365.046875 523.6210938,365.046875 L525.9648438,365.046875 C526.4752808,365.046875 526.8372803,364.9348755 527.0507813,364.7109375 C527.2643433,364.486969 527.4335938,363.880188 527.5585938,362.890625 Z M518.3398438,361.40625 L520.2773438,362.0625 C519.7460938,363.645813 519.2669678,364.942688 518.8398438,365.953125 L516.8867188,365.203125 C517.4388428,364.015625 517.9232178,362.75 518.3398438,361.40625 Z" style="fill:rgb(102,102,102);stroke:none" clip-path="url(#clip26)" />
<clipPath id="clip27"><path d="M165,77 L256,77 L256,104 L165,104 L165,77 Z" /></clipPath>
<path d="M408,91.7857132 L171,91.1865921" style="fill:none;stroke:rgb(127,127,127);stroke-width:5" clip-path="url(#clip27)" />
<clipPath id="clip28"><path d="M323,77 L414,77 L414,104 L323,104 L323,77 Z" /></clipPath>
<path d="M408,91.7857132 L171,91.1865921" style="fill:none;stroke:rgb(127,127,127);stroke-width:5" clip-path="url(#clip28)" />
<clipPath id="clip29"><path d="M254,77 L325,77 L325,104 L254,104 L254,77 Z" /></clipPath>
<path d="M408,91.7857132 L171,91.1865921" style="fill:none;stroke:rgb(127,127,127);opacity:0.09803921568627451;stroke-width:5" clip-path="url(#clip29)" />
<clipPath id="clip30"><path d="M165,77 L414,77 L414,104 L165,104 L165,77 Z" /></clipPath>
<path d="M183.1420135,84.2172623 L171,91.1865921 L183.1066284,98.2172165 Z" style="fill:rgb(127,127,127);stroke:none" clip-path="url(#clip30)" />
<clipPath id="clip31"><path d="M165,77 L414,77 L414,104 L165,104 L165,77 Z" /></clipPath>
<path d="M183.1420135,84.2172623 L171,91.1865921 L183.1066284,98.2172165 Z" style="fill:none;stroke:rgb(127,127,127);stroke-width:5" clip-path="url(#clip31)" />
<clipPath id="clip32"><path d="M254,77 L325,77 L325,104 L254,104 L254,77 Z" /></clipPath>
<path d="M271.2617188,90.9296875 C270.4596252,92.3151016 269.4179688,93.5286407 268.1367188,94.5703125 C269.3242188,95.1015625 270.9127502,95.5182266 272.9023438,95.8203125 C272.4440002,96.5703125 272.0012817,97.3307266 271.5742188,98.1015625 C269.4492188,97.6223907 267.6419067,96.9088516 266.1523438,95.9609375 C264.6210938,96.8567657 262.8085938,97.6223907 260.7148438,98.2578125 C260.3398438,97.5703125 259.9440002,96.8984375 259.5273438,96.2421875 C261.2669067,95.7526016 262.8346252,95.1848907 264.2304688,94.5390625 C263.4700317,93.8307266 262.7825317,93.0182266 262.1679688,92.1015625 C260.9596252,94.0286407 259.5742188,95.6640625 258.0117188,97.0078125 C257.7929688,96.0286407 257.5637817,95.1588516 257.3242188,94.3984375 C259.3554688,92.4921875 260.8710938,90.2786484 261.8710938,87.7578125 L257.9492188,87.7578125 L257.9492188,85.8828125 C258.2408752,85.0286484 258.5012817,84.1328125 258.7304688,83.1953125 L260.8710938,83.4296875 C260.7148438,84.0755234 260.5012817,84.8776016 260.2304688,85.8359375 L262.4804688,85.8359375 C262.7200317,84.9505234 262.9596252,83.9192734 263.1992188,82.7421875 L265.4648438,82.9296875 L264.8085938,85.8359375 L269.1835938,85.8359375 C268.6002502,85.2630234 268.0012817,84.6901016 267.3867188,84.1171875 L268.7617188,82.8203125 C269.7200317,83.5598984 270.5325317,84.2317734 271.1992188,84.8359375 L270.2148438,85.8359375 L272.8554688,85.8359375 L272.8554688,87.7578125 L264.2148438,87.7578125 C264.0585938,88.1953125 263.8762817,88.6744766 263.6679688,89.1953125 L271.2617188,89.1953125 Z M266.1210938,93.4453125 C267.2044067,92.6744766 268.0481567,91.8619766 268.6523438,91.0078125 L263.9023438,91.0078125 C264.4856567,91.9348984 265.2252502,92.7473984 266.1210938,93.4453125 Z M289.0664063,91.2109375 L284.3945313,91.2109375 C284.3736877,91.3046875 284.3528442,91.3880234 284.3320313,91.4609375 C285.8632813,92.1796875 287.2851563,92.9036484 288.5976563,93.6328125 L287.2539063,95.6015625 C285.9309692,94.6953125 284.6705627,93.9088516 283.4726563,93.2421875 C282.7747192,94.2109375 281.7226563,95.0546875 280.3164063,95.7734375 C279.7122192,95.2213516 279.1028442,94.6796875 278.4882813,94.1484375 C280.4361877,93.3463516 281.6236877,92.3671875 282.0507813,91.2109375 L278.1445313,91.2109375 L278.1445313,89.3203125 L282.2851563,89.3203125 C282.3059692,88.8411484 282.3164063,88.2942734 282.3164063,87.6796875 L278.7226563,87.6796875 L278.7226563,85.7890625 L281.3320313,85.7890625 C280.7070313,85.0807266 280.1132813,84.4401016 279.5507813,83.8671875 L281.1132813,82.7421875 C281.6965942,83.2109375 282.4101563,83.8619843 283.2539063,84.6953125 C282.7122192,85.0703125 282.2278442,85.4348984 281.8007813,85.7890625 L284.0976563,85.7890625 C284.6497192,84.9140625 285.2278442,83.8932266 285.8320313,82.7265625 C286.9049377,83.2682343 287.6080627,83.6171875 287.9414063,83.7734375 C287.6705627,84.1067734 287.1601563,84.7786484 286.4101563,85.7890625 L288.6289063,85.7890625 L288.6289063,87.6796875 L284.5664063,87.6796875 C284.5664063,88.2838516 284.5559692,88.8307266 284.5351563,89.3203125 L289.0664063,89.3203125 Z M280.5976563,95.8359375 C282.0872192,95.8984375 285.0143127,95.8776016 289.3789063,95.7734375 C289.0768127,96.6380157 288.8424377,97.3203125 288.6757813,97.8203125 C285.3320313,97.8307266 282.4778442,97.8151016 280.1132813,97.7734375 C278.5090942,97.7734375 277.3268127,97.2942657 276.5664063,96.3359375 C275.6809692,97.1796875 275.0507813,97.8151016 274.6757813,98.2421875 L273.7851563,95.7734375 C274.3164063,95.3255157 274.8372192,94.8932266 275.3476563,94.4765625 L275.3476563,90.1640625 L273.9257813,90.1640625 L273.9257813,88.1015625 L277.5039063,88.1015625 L277.5039063,94.4453125 C278.2747192,95.3723907 279.3059692,95.8359375 280.5976563,95.8359375 Z M276.0976563,82.7265625 C276.8789063,83.6848984 277.6340942,84.6848984 278.3632813,85.7265625 C277.7799377,86.1015625 277.1393127,86.5234375 276.4414063,86.9921875 C275.8164063,86.0026016 275.1080627,84.9609375 274.3164063,83.8671875 Z M292.3554688,82.7578125 C293.2512817,83.8411484 293.9752502,84.7942734 294.5273438,85.6171875 L292.6835938,86.8359375 C291.9856567,85.7213516 291.3137817,84.7317734 290.6679688,83.8671875 Z M304.9335938,83.3203125 L304.9335938,85.1171875 L301.6835938,86.9140625 L304.9492188,86.9140625 L304.9492188,93.6484375 C304.9492188,94.1432266 304.8515625,94.5338516 304.65625,94.8203125 C304.4609375,95.1067657 304.1861877,95.2942657 303.8320313,95.3828125 C303.4778442,95.4713516 302.6992188,95.5078125 301.4960938,95.4921875 C301.4023438,95.0234375 301.2669067,94.4869766 301.0898438,93.8828125 C301.5898438,93.9140625 302.0012817,93.9296875 302.3242188,93.9296875 C302.7617188,93.9296875 302.9804688,93.7005157 302.9804688,93.2421875 L302.9804688,92.9765625 L300.8710938,92.9765625 L300.8710938,95.3203125 L298.9960938,95.3203125 L298.9960938,92.9765625 L296.9492188,92.9765625 L296.9492188,95.3359375 L294.9804688,95.3359375 L294.9804688,86.9140625 L297.9492188,86.9140625 L296.2617188,85.8671875 L297.0585938,84.9453125 L294.8554688,84.9453125 L294.8554688,83.3203125 Z M302.2304688,84.9453125 L297.6367188,84.9453125 C298.2825317,85.3151016 299.0117188,85.7447891 299.8242188,86.234375 Z M302.9804688,88.3203125 L300.8710938,88.3203125 L300.8710938,89.2734375 L302.9804688,89.2734375 Z M296.9492188,89.2734375 L298.9960938,89.2734375 L298.9960938,88.3203125 L296.9492188,88.3203125 Z M300.8710938,91.6015625 L302.9804688,91.6015625 L302.9804688,90.6484375 L300.8710938,90.6484375 Z M296.9492188,91.6015625 L298.9960938,91.6015625 L298.9960938,90.6484375 L296.9492188,90.6484375 Z M305.8554688,95.9140625 C305.5325317,96.7161407 305.2773438,97.3880157 305.0898438,97.9296875 L296.8710938,97.8671875 C295.8971252,97.8411407 295.0976563,97.6966095 294.4726563,97.4335938 C293.8476563,97.1705704 293.3294067,96.8046875 292.9179688,96.3359375 L291.2148438,98.2890625 L290.3085938,95.8671875 L291.8085938,94.5859375 L291.8085938,90.3046875 L290.4179688,90.3046875 L290.4179688,88.2421875 L293.7617188,88.2421875 L293.7617188,94.6328125 C294.3815002,95.4973907 295.4856567,95.9296875 297.0742188,95.9296875 L300.6132813,95.9765625 C302.1601563,95.9765625 303.9075317,95.9557266 305.8554688,95.9140625 Z M306.8945313,89.2890625 L309.9882813,89.2890625 C309.9986877,89.1484375 310.0039063,88.2994766 310.0039063,86.7421875 L309.3710938,86.7421875 C308.9856567,87.6119766 308.5559692,88.4036484 308.0820313,89.1171875 C307.6132813,88.5026016 307.1445313,87.9244766 306.6757813,87.3828125 C307.5299377,86.0598984 308.1601563,84.5026016 308.5664063,82.7109375 L310.6445313,83.0703125 C310.4882813,83.6692734 310.3164063,84.2421875 310.1289063,84.7890625 L314.1445313,84.7890625 L314.1445313,86.7421875 L312.0976563,86.7421875 L312.0976563,89.2890625 L314.5507813,89.2890625 L314.5507813,91.2421875 L311.9335938,91.2421875 C311.8919067,91.5182266 311.8398438,91.7864609 311.7773438,92.046875 C312.8398438,93.0833282 313.8736877,94.1640625 314.8789063,95.2890625 L313.1914063,96.8203125 C312.4934692,95.8932266 311.7877502,95.0104141 311.0742188,94.171875 C310.3867188,95.7135391 309.3528442,97.0703125 307.9726563,98.2421875 C307.4934692,97.4401016 307.0507813,96.7786407 306.6445313,96.2578125 C308.2799377,95.0026016 309.3190002,93.3307266 309.7617188,91.2421875 L306.8945313,91.2421875 Z M314.9414063,97.8984375 L314.9414063,84.0703125 L321.6757813,84.0703125 L321.6757813,97.8046875 L319.5351563,97.8046875 L319.5351563,96.4921875 L317.0820313,96.4921875 L317.0820313,97.8984375 Z M319.5351563,86.1171875 L317.0820313,86.1171875 L317.0820313,94.4453125 L319.5351563,94.4453125 Z" style="fill:rgb(102,102,102);stroke:none" clip-path="url(#clip32)" />
<clipPath id="clip33"><path d="M347,113 L472,113 L472,318 L347,318 L347,113 Z" /></clipPath>
<path d="M353,330.456543 L437.3490906,330.456543 L437.3490906,330.456543 L437.3490906,119" style="fill:none;stroke:rgb(127,127,127);stroke-width:5" clip-path="url(#clip33)" />
<clipPath id="clip34"><path d="M347,316 L403,316 L403,343 L347,343 L347,316 Z" /></clipPath>
<path d="M353,330.456543 L437.3490906,330.456543 L437.3490906,330.456543 L437.3490906,119" style="fill:none;stroke:rgb(127,127,127);stroke-width:5" clip-path="url(#clip34)" />
<clipPath id="clip35"><path d="M401,316 L472,316 L472,343 L401,343 L401,316 Z" /></clipPath>
<path d="M353,330.456543 L437.3490906,330.456543 L437.3490906,330.456543 L437.3490906,119" style="fill:none;stroke:rgb(127,127,127);opacity:0.09803921568627451;stroke-width:5" clip-path="url(#clip35)" />
<clipPath id="clip36"><path d="M347,113 L472,113 L472,343 L347,343 L347,113 Z" /></clipPath>
<path d="M444.3490906,131.1243591 L437.3490906,119 L430.3490906,131.1243591 Z" style="fill:rgb(127,127,127);stroke:none" clip-path="url(#clip36)" />
<clipPath id="clip37"><path d="M347,113 L472,113 L472,343 L347,343 L347,113 Z" /></clipPath>
<path d="M444.3490906,131.1243591 L437.3490906,119 L430.3490906,131.1243591 Z" style="fill:none;stroke:rgb(127,127,127);stroke-width:5" clip-path="url(#clip37)" />
<clipPath id="clip38"><path d="M401,316 L472,316 L472,343 L401,343 L401,316 Z" /></clipPath>
<path d="M418.2617493,329.9296875 C417.4596558,331.315094 416.4179688,332.5286255 415.1367493,333.5703125 C416.3242188,334.1015625 417.9127808,334.518219 419.9023743,334.8203125 C419.4440308,335.570282 419.0013123,336.330719 418.5742493,337.1015625 C416.4492493,336.6223755 414.6419373,335.908844 413.1523743,334.9609375 C411.6211243,335.8567505 409.8086243,336.6223755 407.7148743,337.2578125 C407.3398743,336.5703125 406.9440308,335.898407 406.5273743,335.2421875 C408.2669373,334.752594 409.8346558,334.1848755 411.2304993,333.5390625 C410.4700623,332.830719 409.7825623,332.018219 409.1679993,331.1015625 C407.9596558,333.0286255 406.5742188,334.6640625 405.0117493,336.0078125 C404.7929993,335.0286255 404.5638123,334.158844 404.3242493,333.3984375 C406.3554688,331.4921875 407.8711243,329.2786255 408.8711243,326.7578125 L404.9492493,326.7578125 L404.9492493,324.8828125 C405.2409058,324.0286255 405.5013123,323.1328125 405.7304993,322.1953125 L407.8711243,322.4296875 C407.7148438,323.0755005 407.5013123,323.877594 407.2304993,324.8359375 L409.4804993,324.8359375 C409.7200623,323.9505005 409.9596558,322.9192505 410.1992493,321.7421875 L412.4648743,321.9296875 L411.8086243,324.8359375 L416.1836243,324.8359375 C415.6002808,324.2630005 415.0013123,323.690094 414.3867493,323.1171875 L415.7617493,321.8203125 C416.7200623,322.5598755 417.5325623,323.2317505 418.1992493,323.8359375 L417.2148743,324.8359375 L419.8554993,324.8359375 L419.8554993,326.7578125 L411.2148743,326.7578125 C411.0586243,327.1953125 410.8763123,327.674469 410.6679993,328.1953125 L418.2617493,328.1953125 Z M413.1211243,332.4453125 C414.2044373,331.674469 415.0481873,330.861969 415.6523743,330.0078125 L410.9023743,330.0078125 C411.4856873,330.9348755 412.2252808,331.7473755 413.1211243,332.4453125 Z M436.0664368,330.2109375 L431.3945618,330.2109375 C431.3737183,330.3046875 431.3528748,330.3880005 431.3320618,330.4609375 C432.8632813,331.1796875 434.2851563,331.9036255 435.5976868,332.6328125 L434.2539368,334.6015625 C432.9309998,333.6953125 431.6705933,332.908844 430.4726868,332.2421875 C429.7747498,333.2109375 428.7226868,334.0546875 427.3164368,334.7734375 C426.7122498,334.221344 426.1028748,333.6796875 425.4883118,333.1484375 C427.4362183,332.346344 428.6237183,331.3671875 429.0508118,330.2109375 L425.1445618,330.2109375 L425.1445618,328.3203125 L429.2851868,328.3203125 C429.3059998,327.8411255 429.3164368,327.2942505 429.3164368,326.6796875 L425.7226868,326.6796875 L425.7226868,324.7890625 L428.3320618,324.7890625 C427.7070313,324.080719 427.1132813,323.440094 426.5508118,322.8671875 L428.1133118,321.7421875 C428.6966248,322.2109375 429.4101868,322.861969 430.2539368,323.6953125 C429.7122498,324.0703125 429.2278748,324.4348755 428.8008118,324.7890625 L431.0976868,324.7890625 C431.6497498,323.9140625 432.2278748,322.893219 432.8320618,321.7265625 C433.9049683,322.268219 434.6080933,322.6171875 434.9414368,322.7734375 C434.6705933,323.1067505 434.1601868,323.7786255 433.4101868,324.7890625 L435.6289368,324.7890625 L435.6289368,326.6796875 L431.5664368,326.6796875 C431.5664368,327.283844 431.5559998,327.830719 431.5351868,328.3203125 L436.0664368,328.3203125 Z M427.5976868,334.8359375 C429.0872498,334.8984375 432.0143433,334.877594 436.3789368,334.7734375 C436.0768433,335.6380005 435.8424683,336.3203125 435.6758118,336.8203125 C432.3320618,336.830719 429.4778748,336.815094 427.1133118,336.7734375 C425.5091248,336.7734375 424.3268433,336.2942505 423.5664368,335.3359375 C422.6809998,336.179657 422.0507813,336.815094 421.6758118,337.2421875 L420.7851868,334.7734375 C421.3164063,334.3255005 421.8372498,333.893219 422.3476868,333.4765625 L422.3476868,329.1640625 L420.9258118,329.1640625 L420.9258118,327.1015625 L424.5039368,327.1015625 L424.5039368,333.4453125 C425.2747498,334.3723755 426.3059998,334.8359375 427.5976868,334.8359375 Z M423.0976868,321.7265625 C423.8789368,322.6848755 424.6341248,323.6848755 425.3633118,324.7265625 C424.7799683,325.1015625 424.1393433,325.5234375 423.4414368,325.9921875 C422.8164368,325.002594 422.1080933,323.9609375 421.3164368,322.8671875 Z M439.3554993,321.7578125 C440.2513123,322.8411255 440.9752808,323.7942505 441.5273743,324.6171875 L439.6836243,325.8359375 C438.9856873,324.721344 438.3138123,323.7317505 437.6679993,322.8671875 Z M451.9336243,322.3203125 L451.9336243,324.1171875 L448.6836243,325.9140625 L451.9492493,325.9140625 L451.9492493,332.6484375 C451.9492493,333.143219 451.851593,333.533844 451.6562805,333.8203125 C451.460968,334.1067505 451.1862183,334.2942505 450.8320618,334.3828125 C450.4778748,334.471344 449.6992493,334.5078125 448.4961243,334.4921875 C448.4023743,334.0234375 448.2669373,333.486969 448.0898743,332.8828125 C448.5898743,332.9140625 449.0013123,332.9296875 449.3242493,332.9296875 C449.7617493,332.9296875 449.9804993,332.7005005 449.9804993,332.2421875 L449.9804993,331.9765625 L447.8711243,331.9765625 L447.8711243,334.3203125 L445.9961243,334.3203125 L445.9961243,331.9765625 L443.9492493,331.9765625 L443.9492493,334.3359375 L441.9804993,334.3359375 L441.9804993,325.9140625 L444.9492493,325.9140625 L443.2617493,324.8671875 L444.0586243,323.9453125 L441.8554993,323.9453125 L441.8554993,322.3203125 Z M449.2304993,323.9453125 L444.6367493,323.9453125 C445.2825623,324.315094 446.0117493,324.7447815 446.8242493,325.234375 Z M449.9804993,327.3203125 L447.8711243,327.3203125 L447.8711243,328.2734375 L449.9804993,328.2734375 Z M443.9492493,328.2734375 L445.9961243,328.2734375 L445.9961243,327.3203125 L443.9492493,327.3203125 Z M447.8711243,330.6015625 L449.9804993,330.6015625 L449.9804993,329.6484375 L447.8711243,329.6484375 Z M443.9492493,330.6015625 L445.9961243,330.6015625 L445.9961243,329.6484375 L443.9492493,329.6484375 Z M452.8554993,334.9140625 C452.5325623,335.7161255 452.2773743,336.3880005 452.0898743,336.9296875 L443.8711243,336.8671875 C442.8971558,336.8411255 442.0976868,336.6965942 441.4726868,336.4335938 C440.8476868,336.1705627 440.3294373,335.804657 439.9179993,335.3359375 L438.2148743,337.2890625 L437.3086243,334.8671875 L438.8086243,333.5859375 L438.8086243,329.3046875 L437.4179993,329.3046875 L437.4179993,327.2421875 L440.7617493,327.2421875 L440.7617493,333.6328125 C441.3815308,334.4973755 442.4856873,334.9296875 444.0742493,334.9296875 L447.6133118,334.9765625 C449.1601868,334.9765625 450.9075623,334.955719 452.8554993,334.9140625 Z M453.8945618,328.2890625 L456.9883118,328.2890625 C456.9987183,328.1484375 457.0039368,327.299469 457.0039368,325.7421875 L456.3711243,325.7421875 C455.9856873,326.611969 455.5559998,327.4036255 455.0820618,328.1171875 C454.6133118,327.502594 454.1445618,326.924469 453.6758118,326.3828125 C454.5299683,325.0598755 455.1601868,323.502594 455.5664368,321.7109375 L457.6445618,322.0703125 C457.4883118,322.6692505 457.3164368,323.2421875 457.1289368,323.7890625 L461.1445618,323.7890625 L461.1445618,325.7421875 L459.0976868,325.7421875 L459.0976868,328.2890625 L461.5508118,328.2890625 L461.5508118,330.2421875 L458.9336243,330.2421875 C458.8919373,330.518219 458.8398743,330.786438 458.7773743,331.046875 C459.8398438,332.083313 460.8737183,333.1640625 461.8789368,334.2890625 L460.1914368,335.8203125 C459.4934998,334.893219 458.7877808,334.0104065 458.0742493,333.171875 C457.3867188,334.7135315 456.3528748,336.0703125 454.9726868,337.2421875 C454.4934998,336.440094 454.0507813,335.7786255 453.6445618,335.2578125 C455.2799683,334.002594 456.3190308,332.330719 456.7617493,330.2421875 L453.8945618,330.2421875 Z M461.9414368,336.8984375 L461.9414368,323.0703125 L468.6758118,323.0703125 L468.6758118,336.8046875 L466.5351868,336.8046875 L466.5351868,335.4921875 L464.0820618,335.4921875 L464.0820618,336.8984375 Z M466.5351868,325.1171875 L464.0820618,325.1171875 L464.0820618,333.4453125 L466.5351868,333.4453125 Z" style="fill:rgb(102,102,102);stroke:none" clip-path="url(#clip38)" />
</svg>
