<?xml version="1.0" encoding="UTF-8"?>
<!DOCTYPE svg PUBLIC "-//W3C//DTD SVG 1.1//EN" "http://www.w3.org/Graphics/SVG/1.1/DTD/svg11.dtd">
<svg version="1.2" xmlns="http://www.w3.org/2000/svg" xmlns:xlink="http://www.w3.org/1999/xlink" x="0" y="0" width="567" height="445" viewBox="0 0 567 445">
<style type="text/css"><![CDATA[
text { font:12px Dialog; }
]]></style>
<rect x="-1134" y="-1033" width="3074" height="2830" style="fill:rgb(255,255,255);stroke:none" />
<clipPath id="clip1"><path d="M70,14 L259,14 L259,113 L70,113 L70,14 Z" /></clipPath>
<path d="M74,18 L74,108 L254,108 L254,18 Z" style="fill:rgb(255,255,255);stroke:none" clip-path="url(#clip1)" />
<clipPath id="clip2"><path d="M70,14 L259,14 L259,113 L70,113 L70,14 Z" /></clipPath>
<path d="M74,18 L74,108 L254,108 L254,18 Z" style="fill:none;stroke:rgb(127,127,127);stroke-width:5" clip-path="url(#clip2)" />
<clipPath id="clip3"><path d="M105,34 L224,34 L224,93 L105,93 L105,34 Z" /></clipPath>
<path d="M108.6008377,53.0710449 C109.6604004,53.7888184 110.760994,54.1477051 111.9025955,54.1477051 C113.4064941,54.1477051 114.1584549,53.6828613 114.1584549,52.7531738 C114.1584549,52.3635254 114.0012207,52.0439453 113.6867752,51.7944336 C113.3723145,51.5449219 112.6647949,51.2150879 111.5642166,50.8049316 C110.4089355,50.3605957 109.6296387,49.887207 109.226326,49.3847656 C108.822998,48.8823242 108.6213455,48.251709 108.6213455,47.4929199 C108.6213455,46.4470215 109.0588379,45.619873 109.9338455,45.0114746 C110.8088379,44.4030762 111.8923416,44.098877 113.1843338,44.098877 C114.1755371,44.098877 115.1018143,44.2629395 115.9631424,44.5910645 L115.9631424,46.723877 C115.1018143,46.1906738 114.1379471,45.9240723 113.0715408,45.9240723 C112.4631348,45.9240723 111.9709473,46.0505371 111.5949783,46.3034668 C111.2189941,46.5563965 111.0310135,46.8879395 111.0310135,47.2980957 C111.0310135,47.701416 111.1694412,48.0192871 111.4462967,48.251709 C111.7231445,48.4841309 112.3605957,48.791748 113.3586502,49.1745605 C114.589119,49.6257324 115.4282227,50.105957 115.8759842,50.6152344 C116.3237305,51.1245117 116.5476151,51.7585449 116.5476151,52.517334 C116.5476151,53.5905762 116.1101074,54.4348145 115.2351151,55.0500488 C114.3601074,55.6652832 113.2116699,55.9729004 111.7898026,55.9729004 C110.572998,55.9729004 109.5100098,55.7609863 108.6008377,55.3371582 Z M128.842041,50.6818848 L121.0490799,50.6818848 C121.151619,52.9719238 122.3171387,54.1169434 124.5456619,54.1169434 C125.8034668,54.1169434 126.9484863,53.7409668 127.9807205,52.9890137 L127.9807205,54.9782715 C126.9689941,55.6413574 125.6394043,55.9729004 123.991951,55.9729004 C122.3103104,55.9729004 120.9943848,55.4602051 120.0441971,54.4348145 C119.0939941,53.4094238 118.6189041,51.973877 118.6189041,50.1281738 C118.6189041,48.3781738 119.1298828,46.935791 120.1518631,45.8010254 C121.1738281,44.6662598 122.4538651,44.098877 123.991951,44.098877 C125.5231934,44.098877 126.7143555,44.5825195 127.5654373,45.5498047 C128.4165039,46.5170898 128.842041,47.8483887 128.842041,49.5437012 Z M126.504158,48.9284668 C126.4973145,47.9577637 126.2751465,47.2126465 125.8376541,46.6931152 C125.4001465,46.173584 124.7780762,45.9138184 123.9714432,45.9138184 C123.2399902,45.9138184 122.604248,46.1889648 122.0642166,46.7392578 C121.5241699,47.2895508 121.189209,48.0192871 121.0593338,48.9284668 Z M148.4885254,55.7062988 L146.0788574,55.7062988 L146.0788574,49.2053223 C146.0788574,48.0842285 145.8977051,47.2741699 145.5354004,46.7751465 C145.1730957,46.276123 144.595459,46.0266113 143.8024902,46.0266113 C143.1188965,46.0266113 142.5310059,46.3410645 142.0388184,46.9699707 C141.5466309,47.598877 141.3005371,48.3679199 141.3005371,49.2770996 L141.3005371,55.7062988 L138.901123,55.7062988 L138.901123,49.0412598 C138.901123,47.0314941 138.1320801,46.0266113 136.5939941,46.0266113 C135.8830566,46.0266113 135.293457,46.3308105 134.8251953,46.939209 C134.3569336,47.5476074 134.1228027,48.3337402 134.1228027,49.2976074 L134.1228027,55.7062988 L131.7131348,55.7062988 L131.7131348,44.3654785 L134.1228027,44.3654785 L134.1228027,46.1496582 L134.1740723,46.1496582 C134.9875488,44.7824707 136.177002,44.098877 137.7424316,44.098877 C139.3352051,44.098877 140.4118652,44.854248 140.9724121,46.3649902 C141.8200684,44.854248 143.0847168,44.098877 144.7663574,44.098877 C147.2478027,44.098877 148.4885254,45.6335449 148.4885254,48.7028809 Z M152.0158844,40.4689941 C152.0158844,40.0656738 152.1543121,39.7324219 152.4311676,39.4692383 C152.7080078,39.2060547 153.0583496,39.0744629 153.482193,39.0744629 C153.8991699,39.0744629 154.251236,39.2060547 154.5383453,39.4692383 C154.8254395,39.7324219 154.9689941,40.0656738 154.9690094,40.4689941 C154.9689941,40.8723145 154.8254395,41.2055664 154.5383453,41.46875 C154.251236,41.7319336 153.8991699,41.8635254 153.482193,41.8635254 C153.0651855,41.8635254 152.7165527,41.7302246 152.4362946,41.463623 C152.1560059,41.1970215 152.0158844,40.8654785 152.0158844,40.4689941 Z M152.2517242,55.7062988 L152.2517242,44.3654785 L154.6613922,44.3654785 L154.6613922,55.7062988 Z M163.1003571,53.0710449 C164.1599274,53.7888184 165.2605133,54.1477051 166.4021149,54.1477051 C167.9060211,54.1477051 168.6579742,53.6828613 168.6579742,52.7531738 C168.6579742,52.3635254 168.5007477,52.0439453 168.1862946,51.7944336 C167.8718414,51.5449219 167.1643219,51.2150879 166.063736,50.8049316 C164.9084625,50.3605957 164.1291656,49.887207 163.7258453,49.3847656 C163.322525,48.8823242 163.1208649,48.251709 163.1208649,47.4929199 C163.1208649,46.4470215 163.5583649,45.619873 164.4333649,45.0114746 C165.3083649,44.4030762 166.391861,44.098877 167.6838531,44.098877 C168.6750641,44.098877 169.6013336,44.2629395 170.4626617,44.5910645 L170.4626617,46.723877 C169.6013336,46.1906738 168.6374664,45.9240723 167.5710602,45.9240723 C166.9626617,45.9240723 166.4704742,46.0505371 166.0944977,46.3034668 C165.7185211,46.5563965 165.5305328,46.8879395 165.5305328,47.2980957 C165.5305328,47.701416 165.6689606,48.0192871 165.945816,48.251709 C166.2226715,48.4841309 166.8601227,48.791748 167.8581696,49.1745605 C169.0886383,49.6257324 169.9277496,50.105957 170.3755035,50.6152344 C170.8232422,51.1245117 171.0471344,51.7585449 171.0471344,52.517334 C171.0471344,53.5905762 170.6096191,54.4348145 169.7346344,55.0500488 C168.8596344,55.6652832 167.7111969,55.9729004 166.2893219,55.9729004 C165.072525,55.9729004 164.0095367,55.7609863 163.1003571,55.3371582 Z M176.2561188,54.1784668 L176.2561188,60.9255371 L173.8464508,60.9255371 L173.8464508,44.3654785 L176.2561188,44.3654785 L176.2561188,46.2521973 L176.3073883,46.2521973 C177.182373,44.8166504 178.4538574,44.098877 180.1218262,44.098877 C181.564209,44.098877 182.6989746,44.6030273 183.526123,45.6113281 C184.3532715,46.6196289 184.7668457,47.9851074 184.7668457,49.7077637 C184.7668457,51.6013184 184.298584,53.1188965 183.3620605,54.260498 C182.4255371,55.4020996 181.1711426,55.9729004 179.5988922,55.9729004 C178.1633453,55.9729004 177.0661774,55.3747559 176.3073883,54.1784668 Z M176.235611,50.9279785 C176.2355957,51.8098145 176.5090332,52.5498047 177.0559235,53.1479492 C177.6027832,53.7460938 178.2932129,54.045166 179.1272125,54.045166 C180.1320801,54.045166 180.911377,53.6606445 181.4650879,52.8916016 C182.0187988,52.1225586 182.2956543,51.0578613 182.2956543,49.6975098 C182.2956543,48.5285645 182.0393066,47.6245117 181.5266113,46.9853516 C181.013916,46.3461914 180.2961426,46.0266113 179.3733063,46.0266113 C178.4504547,46.0266113 177.6967926,46.3615723 177.1123199,47.0314941 C176.527832,47.701416 176.2355957,48.5490723 176.235611,49.5744629 Z M188.119873,45.1242676 C189.2751465,44.4406738 190.6115723,44.098877 192.1291504,44.098877 C194.9934082,44.098877 196.4255371,45.5788574 196.4255371,48.5388184 L196.4255371,55.7062988 L194.0876465,55.7062988 L194.0876465,53.9836426 L194.036377,53.9836426 C193.263916,55.3098145 192.1154785,55.9729004 190.5910645,55.9729004 C189.4768066,55.9729004 188.6000977,55.6721191 187.9609375,55.0705566 C187.3217773,54.4689941 187.0021973,53.6589355 187.0021973,52.6403809 C187.0021973,50.5075684 188.2702637,49.2634277 190.8063965,48.907959 L194.0979004,48.4567871 C194.0979004,46.7683105 193.3562012,45.9240723 191.8728027,45.9240723 C190.5124512,45.9240723 189.2614746,46.3649902 188.119873,47.2468262 Z M191.5959473,50.435791 C190.7756348,50.545166 190.1962891,50.7536621 189.8579102,51.0612793 C189.5195313,51.3688965 189.3503418,51.8200684 189.3503418,52.4147949 C189.3503418,52.9138184 189.5314941,53.3222656 189.8937988,53.6401367 C190.2561035,53.9580078 190.7209473,54.1169434 191.2883301,54.1169434 C192.0949707,54.1169434 192.7648926,53.831543 193.2980957,53.2607422 C193.8312988,52.6899414 194.0979004,51.970459 194.0979004,51.1022949 L194.0979004,50.0974121 Z M208.0021973,55.2243652 C207.1682129,55.7233887 206.0983887,55.9729004 204.7927246,55.9729004 C203.1384277,55.9729004 201.798584,55.4499512 200.7731934,54.4040527 C199.7478027,53.3581543 199.2351074,51.9909668 199.2351074,50.3024902 C199.2351074,48.4089355 199.7854004,46.9016113 200.8859863,45.7805176 C201.9865723,44.6594238 203.4528809,44.098877 205.2849121,44.098877 C206.4128418,44.098877 207.3254395,44.2800293 208.0227051,44.642334 L208.0227051,46.8981934 C207.2160645,46.3171387 206.3444824,46.0266113 205.407959,46.0266113 C204.3005371,46.0266113 203.4033203,46.3974609 202.7163086,47.1391602 C202.0292969,47.8808594 201.685791,48.8771973 201.685791,50.1281738 C201.685791,51.3518066 202.012207,52.3105469 202.6650391,53.0043945 C203.3178711,53.6982422 204.1945801,54.045166 205.295166,54.045166 C206.2521973,54.045166 207.154541,53.7375488 208.0021973,53.1223145 Z M220.3991699,50.6818848 L212.6062012,50.6818848 C212.7087402,52.9719238 213.8742676,54.1169434 216.1027832,54.1169434 C217.3605957,54.1169434 218.5056152,53.7409668 219.5378418,52.9890137 L219.5378418,54.9782715 C218.526123,55.6413574 217.1965332,55.9729004 215.5490723,55.9729004 C213.8674316,55.9729004 212.5515137,55.4602051 211.6013184,54.4348145 C210.651123,53.4094238 210.1760254,51.973877 210.1760254,50.1281738 C210.1760254,48.3781738 210.6870117,46.935791 211.7089844,45.8010254 C212.730957,44.6662598 214.0109863,44.098877 215.5490723,44.098877 C217.0803223,44.098877 218.2714844,44.5825195 219.1225586,45.5498047 C219.9736328,46.5170898 220.3991699,47.8483887 220.3991699,49.5437012 Z M218.0612793,48.9284668 C218.0544434,47.9577637 217.8322754,47.2126465 217.3947754,46.6931152 C216.9572754,46.173584 216.3352051,45.9138184 215.5285645,45.9138184 C214.7971191,45.9138184 214.161377,46.1889648 213.6213379,46.7392578 C213.0812988,47.2895508 212.7463379,48.0192871 212.6164551,48.9284668 Z" style="fill:rgb(117,117,117);stroke:none" clip-path="url(#clip3)" />
<clipPath id="clip4"><path d="M105,34 L224,34 L224,93 L105,93 L105,34 Z" /></clipPath>
<path d="M134.7636719,86.7463379 C132.4462891,84.1281738 131.2875977,80.9016113 131.2875977,77.0666504 C131.2875977,73.279541 132.4462891,70.0085449 134.7636719,67.2536621 L136.824707,67.2536621 C134.5415039,70.111084 133.3999023,73.3786621 133.3999023,77.0563965 C133.3999023,80.713623 134.5415039,83.9436035 136.824707,86.7463379 Z M147.7041016,69.3659668 L141.7158203,69.3659668 L141.7158203,74.2980957 L147.2426758,74.2980957 L147.2426758,76.4001465 L141.7158203,76.4001465 L141.7158203,83.1369629 L139.2548828,83.1369629 L139.2548828,67.2536621 L147.7041016,67.2536621 Z M157.0761719,74.0930176 C156.7207031,73.8605957 156.2490234,73.7443848 155.6611328,73.7443848 C154.8818359,73.7443848 154.2512207,74.0861816 153.7692871,74.7697754 C153.2873535,75.4533691 153.0463867,76.3591309 153.0463867,77.4870605 L153.0463867,83.1369629 L150.6367188,83.1369629 L150.6367188,71.7961426 L153.0463867,71.7961426 L153.0463867,74.052002 L153.0976563,74.052002 C153.6582031,72.4182129 154.6494141,71.6013184 156.0712891,71.6013184 C156.4951172,71.6013184 156.8300781,71.6491699 157.0761719,71.744873 Z M158.4399567,77.5690918 C158.4399567,75.7028809 158.9714355,74.2297363 160.0344391,73.1496582 C161.0974274,72.0695801 162.5449219,71.529541 164.3769684,71.529541 C166.1064453,71.529541 167.4736328,72.0524902 168.4785309,73.0983887 C169.4834137,74.1442871 169.9858551,75.572998 169.9858551,77.3845215 C169.9858551,79.2097168 169.4560547,80.6691895 168.3964996,81.7629395 C167.3369141,82.8566895 165.921875,83.4035645 164.1513824,83.4035645 C162.4150391,83.4035645 161.029068,82.8737793 159.9934235,81.814209 C158.9577789,80.7546387 158.4399567,79.3395996 158.4399567,77.5690918 Z M160.8906403,77.5178223 C160.8906403,78.7619629 161.1931305,79.732666 161.798111,80.4299316 C162.4030914,81.1271973 163.2250977,81.4758301 164.2641754,81.4758301 C166.4448242,81.4758301 167.5351715,80.1325684 167.5351715,77.4460449 C167.5351715,76.1472168 167.2548828,75.1577148 166.6943512,74.4775391 C166.1337891,73.7973633 165.3237305,73.4572754 164.2641754,73.4572754 C163.2045898,73.4572754 162.3774567,73.8195801 161.7827301,74.5441895 C161.1880035,75.2687988 160.8906403,76.2600098 160.8906403,77.5178223 Z M189.8374023,83.1369629 L187.4277344,83.1369629 L187.4277344,76.6359863 C187.4277344,75.5148926 187.246582,74.704834 186.8842773,74.2058105 C186.5219727,73.7067871 185.9443359,73.4572754 185.1513672,73.4572754 C184.4677734,73.4572754 183.8798828,73.7717285 183.3876953,74.4006348 C182.8955078,75.029541 182.6494141,75.798584 182.6494141,76.7077637 L182.6494141,83.1369629 L180.25,83.1369629 L180.25,76.4719238 C180.25,74.4621582 179.480957,73.4572754 177.9428864,73.4572754 C177.2319336,73.4572754 176.642334,73.7614746 176.1740875,74.369873 C175.7058105,74.9782715 175.4716949,75.7644043 175.4716949,76.7282715 L175.4716949,83.1369629 L173.062027,83.1369629 L173.062027,71.7961426 L175.4716949,71.7961426 L175.4716949,73.5803223 L175.5229645,73.5803223 C176.3364258,72.2131348 177.5258789,71.529541 179.0913239,71.529541 C180.684082,71.529541 181.7607422,72.2849121 182.3212891,73.7956543 C183.1689453,72.2849121 184.4335938,71.529541 186.1152344,71.529541 C188.5966797,71.529541 189.8374023,73.064209 189.8374023,76.1335449 Z M192.1548004,86.7463379 C194.4448242,83.9572754 195.589859,80.7272949 195.589859,77.0563965 C195.589859,73.392334 194.4414063,70.1247559 192.1445465,67.2536621 L194.2158356,67.2536621 C196.546875,70.0153809 197.7124023,73.286377 197.7124023,77.0666504 C197.7124023,80.8947754 196.543457,84.1213379 194.2055817,86.7463379 Z" style="fill:rgb(117,117,117);stroke:none" clip-path="url(#clip4)" />
<clipPath id="clip5"><path d="M14,198 L322,198 L322,311 L14,311 L14,198 Z" /></clipPath>
<path d="M167.5,202 L18,254 L167.5,306 L317,254 Z" style="fill:rgb(255,255,255);stroke:none" clip-path="url(#clip5)" />
<clipPath id="clip6"><path d="M14,198 L322,198 L322,311 L14,311 L14,198 Z" /></clipPath>
<path d="M167.5,202 L18,254 L167.5,306 L317,254 Z" style="fill:none;stroke:rgb(127,127,127);stroke-width:5" clip-path="url(#clip6)" />
<clipPath id="clip7"><path d="M57,241 L279,241 L279,268 L57,268 L57,241 Z" /></clipPath>
<path d="M73.3068924,251.7109375 L62.3913651,251.7109375 L62.3913651,245.7094727 L73.3068924,245.7094727 Z M71.7546463,248.1083984 L71.7546463,247.0708008 L63.9519119,247.0708008 L63.9519119,248.1083984 Z M71.7546463,250.3828125 L71.7546463,249.3535156 L63.9519119,249.3535156 L63.9519119,250.3828125 Z M75.3986893,258.7001953 L74.8840408,260.078125 C73.8104706,260.0947266 72.9056854,260.1030273 72.1696854,260.1030273 C70.5980682,260.1030273 69.278244,260.0670471 68.2102127,259.9951172 C67.1421738,259.9231567 66.241539,259.7087402 65.5083084,259.3518066 C64.7750702,258.994873 64.1538925,258.4871216 63.644783,257.8286133 C62.809166,259.0239258 62.0178299,259.887207 61.2707596,260.418457 L60.2331619,259.1899414 C61.5668182,258.3045044 62.6486893,256.815918 63.4787674,254.7241211 L64.9397049,255.0976563 C64.7736893,255.5680237 64.5689316,256.049469 64.3254471,256.5419922 C64.9065018,257.4052734 65.8776932,258.0333557 67.2390213,258.4262695 L67.2390213,254.1098633 L60.4157791,254.1098633 L60.4157791,252.7485352 L75.2409744,252.7485352 L75.2409744,254.1098633 L68.7829666,254.1098633 L68.7829666,255.6538086 L74.3444901,255.6538086 L74.3444901,256.9985352 L68.7829666,256.9985352 L68.7829666,258.5839844 C69.8509979,258.6393127 72.0562363,258.6780396 75.3986893,258.7001953 Z M92.6145096,251.8354492 L91.7429276,253.0888672 C89.977623,252.0595703 88.0850449,251.2101135 86.0651932,250.5405273 L86.0651932,253.7861328 L91.120369,253.7861328 L91.120369,260.3105469 L89.5515213,260.3105469 L89.5515213,259.5302734 L81.0017166,259.5302734 L81.0017166,260.3105469 L79.4162674,260.3105469 L79.4162674,253.7861328 L84.5212479,253.7861328 L84.5212479,249.6855469 C83.0381699,250.8531799 81.0653534,251.9267578 78.6027908,252.90625 L77.7395096,251.5615234 C80.8439941,250.5100861 83.3480682,249.0408478 85.2517166,247.1538086 L78.0798416,247.1538086 L78.0798416,245.7260742 L92.4069901,245.7260742 L92.4069901,247.1538086 L87.1857986,247.1538086 L86.0651932,248.3491211 L86.0651932,249.0629883 C88.7491074,249.8985901 90.9322128,250.8227539 92.6145096,251.8354492 Z M89.5515213,258.0859375 L89.5515213,255.2304688 L81.0017166,255.2304688 L81.0017166,258.0859375 Z M101.3801346,248.7890625 C100.1571503,251.268219 98.9231033,253.3129883 97.6779861,254.9233398 C98.6574783,254.6687775 99.6701736,254.3339844 100.7160721,253.9189453 L100.9401932,255.2802734 C99.6175995,255.8447266 97.9353027,256.3565979 95.8933182,256.815918 L95.4616776,255.5375977 C96.3636932,254.4972229 97.2933807,253.1829376 98.2507401,251.5947266 L95.9099197,252.0512695 L95.4782791,250.78125 C96.507576,249.3203125 97.4676971,247.5107422 98.3586502,245.3525391 L99.7116776,245.9501953 C98.9756699,247.6601563 98.2009277,249.1376953 97.3874588,250.3828125 C97.9353027,250.3108673 98.5080566,250.1863556 99.1057205,250.0092773 C99.4930878,249.3507385 99.8140488,248.7115784 100.0686111,248.0917969 Z M110.4113846,252.1757813 L109.4899979,253.3129883 C108.4772949,252.5050354 107.1104431,251.6611328 105.3894119,250.78125 C104.0612869,251.8105469 102.6280212,252.671051 101.0896072,253.362793 L100.3591385,252.0678711 C103.1315994,250.855957 105.3202362,249.2345276 106.9250565,247.2036133 L101.1975174,247.2036133 L101.1975174,245.7758789 L108.6931229,245.7758789 L108.6931229,247.2036133 C108.0235291,248.199707 107.2985916,249.0574493 106.5183182,249.7768555 C108.0235291,250.5349884 109.3212128,251.3346252 110.4113846,252.1757813 Z M110.0129471,259.9038086 L100.8903885,259.9038086 L100.8903885,258.4760742 L104.6257401,258.4760742 L104.6257401,255.03125 L101.4631424,255.03125 L101.4631424,253.6201172 L109.2160721,253.6201172 L109.2160721,255.03125 L106.1198807,255.03125 L106.1198807,258.4760742 L110.0129471,258.4760742 Z M100.9401932,257.9365234 C99.219162,258.7666016 97.4676971,259.4693909 95.6857986,260.0449219 L95.2956619,258.6171875 C96.9613495,258.1025391 98.7294159,257.4052734 100.5998611,256.5253906 Z M127.8098221,247.2783203 L115.4167557,247.2783203 L115.4167557,253.9770508 C115.416748,256.4008789 114.9574432,258.5424805 114.038826,260.4018555 L112.8352127,259.5800781 C113.5933533,257.7981567 113.9724197,255.9304962 113.9724197,253.9770508 L113.9724197,245.8505859 L127.8098221,245.8505859 Z M126.7224197,250.5571289 C126.6947479,252.0457306 126.6131287,253.6837463 126.4775467,255.4711914 C126.3419647,257.258606 126.2312927,258.3778381 126.1455154,258.8288574 C126.0597382,259.2798462 125.9117126,259.6063538 125.7014236,259.8083496 C125.4911346,260.0103149 125.2684021,260.1403809 125.0332108,260.1984863 C124.7980194,260.2565918 124.1740723,260.2856445 123.1613846,260.2856445 C122.6633377,260.2856445 122.3091736,260.2773438 122.0988846,260.2607422 L121.4514236,258.8164063 C121.8111267,258.8385315 122.7823181,258.8496094 124.3649979,258.8496094 C124.4756775,258.8496094 124.5711365,258.7984009 124.6513748,258.6960449 C124.7316132,258.5936584 124.8312225,257.8064575 124.9502029,256.3344727 C125.0691833,254.8624573 125.1508026,253.4181213 125.195076,252.0014648 L120.7873611,252.0014648 C120.6490173,255.6870117 119.2572479,258.4871216 116.6120682,260.4018555 L115.5910721,259.3974609 C116.7919159,258.4788208 117.682869,257.4951782 118.2639236,256.4465332 C118.8449783,255.3978577 119.2046814,253.9161682 119.3430252,252.0014648 L116.2219315,252.0014648 L116.2219315,250.5571289 L119.4343338,250.5571289 C119.5007401,249.4282227 119.5228729,248.5787659 119.5007401,248.0087891 L120.9782791,248.0253906 C120.9616776,248.7392578 120.9284744,249.5831604 120.8786697,250.5571289 Z M134.6247559,247.3945313 L133.520752,248.3657227 C132.768158,247.5799103 131.8716736,246.8549805 130.8312988,246.190918 L131.9768066,245.2529297 C133.0171814,245.9114532 133.899826,246.6253204 134.6247559,247.3945313 Z M145.1999512,249.7270508 L143.0085449,249.7270508 L143.0085449,256.6582031 C143.0085449,257.0510864 142.9130859,257.3596191 142.722168,257.5837402 C142.53125,257.8078613 142.3126678,257.9475708 142.0664063,258.0029297 C141.8201599,258.0582581 141.3594666,258.0859375 140.6843262,258.0859375 C140.1088104,258.0859375 139.6467285,258.0748596 139.2980957,258.0527344 L138.7087402,256.5419922 C139.3949432,256.5862427 139.9621582,256.6083984 140.4104004,256.6083984 C140.9195251,256.6083984 141.2266541,256.5710449 141.3317871,256.4963379 C141.4369354,256.4216309 141.489502,256.2957153 141.489502,256.1186523 L141.489502,249.7270508 L135.4050293,249.7270508 L135.4050293,248.2578125 L141.489502,248.2578125 L141.489502,245.4770508 L143.0085449,245.4770508 L143.0085449,248.2578125 L145.1999512,248.2578125 Z M145.3327637,258.6005859 L144.6853027,260.078125 C143.4401855,260.1168518 142.2697754,260.1362305 141.1740723,260.1362305 C139.0712128,260.1362305 137.6586914,260.085022 136.9365234,259.982666 C136.2143555,259.8802795 135.5323181,259.6921387 134.8903809,259.4182129 C134.2484589,259.1442871 133.6563416,258.780426 133.1140137,258.3266602 C132.6270447,259.0515747 132.0155487,259.7488403 131.279541,260.418457 L130.2087402,259.3476563 C131.6143494,258.1246643 132.6547089,256.536438 133.329834,254.5830078 L130.598877,254.5830078 L130.598877,253.2963867 C131.5285645,252.3279572 132.3503418,251.3457031 133.064209,250.3496094 L130.4411621,250.3496094 L130.4411621,248.9550781 L134.7575684,248.9550781 L134.7575684,250.3330078 C134.2152557,251.2018127 133.4903259,252.1647034 132.5827637,253.2216797 L134.7824707,253.2216797 L134.7824707,254.7905273 C134.4449158,255.7312775 134.1377869,256.4894104 133.861084,257.0649414 C134.3868103,257.5353088 134.9595642,257.8922424 135.5793457,258.1357422 C136.1991425,258.3792114 136.7815857,258.5286255 137.3266602,258.5839844 C137.8717499,258.6393127 139.0075684,258.6669922 140.7341309,258.6669922 C142.2725525,258.6669922 143.8054199,258.6448364 145.3327637,258.6005859 Z M140.2526855,254.159668 L139.0075684,255.0644531 C138.1055603,253.6090393 137.1260681,252.3390198 136.0690918,251.2543945 L137.2810059,250.4243164 C138.415451,251.5808868 139.4060059,252.826004 140.2526855,254.159668 Z M147.8064117,256.7661133 C148.7914276,257.568512 149.9507751,257.9697266 151.2844391,257.9697266 C152.9888611,257.9697266 153.8410797,257.3858948 153.8410797,256.2182617 C153.8410797,255.8806915 153.746994,255.5763245 153.5588531,255.3051758 C153.370697,255.0340118 153.1175232,254.7974396 152.7993317,254.595459 C152.4811249,254.3934631 151.8516541,254.0683594 150.9109039,253.6201172 C149.7543182,253.0667267 148.9463806,252.5050354 148.4870758,251.9350586 C148.0277557,251.3650665 147.798111,250.6954651 147.798111,249.9262695 C147.798111,248.8194885 148.2352753,247.9479065 149.1096344,247.3115234 C149.9839783,246.6751251 151.1018219,246.3569336 152.46315,246.3569336 C153.752533,246.3569336 154.7264862,246.5146484 155.385025,246.8300781 L155.385025,248.8720703 C154.5936737,248.3242188 153.6058807,248.050293 152.4216461,248.050293 C151.6634979,248.050293 151.0520172,248.2024689 150.5871735,248.5068359 C150.1223297,248.8111877 149.8899078,249.2290039 149.8899078,249.7602539 C149.8899078,250.2416992 150.0600739,250.6373596 150.4004059,250.9472656 C150.7407379,251.2571564 151.4587555,251.6721954 152.5544586,252.1923828 C153.8327789,252.7900391 154.7154236,253.3890686 155.2024078,253.989502 C155.6893768,254.58992 155.9328766,255.2802734 155.9328766,256.0605469 C155.9328766,257.2226563 155.5122986,258.1108398 154.6711578,258.7250977 C153.8300018,259.3393555 152.6651306,259.6464844 151.1765289,259.6464844 C150.6286774,259.6464844 150.0199432,259.5800781 149.3503571,259.4472656 C148.6807556,259.3144531 148.1661072,259.1373596 147.8064117,258.9160156 Z M164.9143219,259.0405273 C164.2391815,259.4444885 163.3731384,259.6464844 162.3161774,259.6464844 C160.9769745,259.6464844 159.8923492,259.2231445 159.0622711,258.3764648 C158.232193,257.5297852 157.8171539,256.4230042 157.8171539,255.0561523 C157.8171539,253.5232697 158.262619,252.3030548 159.1535797,251.3955078 C160.0445251,250.4879456 161.2315369,250.0341797 162.7146149,250.0341797 C163.6277008,250.0341797 164.3664703,250.1808167 164.9309235,250.4741211 L164.9309235,252.300293 C164.2779236,251.8299103 163.5723572,251.5947266 162.8142242,251.5947266 C161.9177399,251.5947266 161.1914215,251.894928 160.6352692,252.4953613 C160.0791168,253.0957794 159.8010406,253.9023438 159.8010406,254.9150391 C159.8010406,255.9055939 160.0652771,256.6817017 160.5937653,257.2434082 C161.1222382,257.8050842 161.831955,258.0859375 162.7229156,258.0859375 C163.4976501,258.0859375 164.2281189,257.8369141 164.9143219,257.3388672 Z M167.4875641,250.8642578 C168.4227753,250.3108673 169.5046539,250.0341797 170.7331696,250.0341797 C173.0518494,250.0341797 174.2111969,251.232254 174.2111969,253.628418 L174.2111969,259.4306641 L172.3186188,259.4306641 L172.3186188,258.0361328 L172.2771149,258.0361328 C171.6517792,259.1096802 170.7220917,259.6464844 169.4880524,259.6464844 C168.5860291,259.6464844 167.8763123,259.4029846 167.358902,258.9160156 C166.8414764,258.4290161 166.5827789,257.7732544 166.5827789,256.9487305 C166.5827789,255.222168 167.6092987,254.2149963 169.6623688,253.9272461 L172.3269196,253.5620117 C172.3269196,252.1951447 171.7264862,251.5117188 170.52565,251.5117188 C169.424408,251.5117188 168.4117126,251.8686523 167.4875641,252.5825195 Z M170.3015289,255.1640625 C169.6374664,255.252594 169.1684723,255.4213867 168.8945465,255.6704102 C168.6206207,255.9194336 168.4836578,256.284668 168.4836578,256.7661133 C168.4836578,257.1700745 168.6302948,257.5007324 168.9235992,257.7580566 C169.2168884,258.0153809 169.5931854,258.144043 170.0525055,258.144043 C170.7054901,258.144043 171.247818,257.9129944 171.6794586,257.4509277 C172.1110992,256.9888306 172.3269196,256.4064026 172.3269196,255.7036133 L172.3269196,254.8901367 Z M184.8361969,250.25 L181.2585602,259.4306641 L179.1916656,259.4306641 L175.7883453,250.25 L177.9050446,250.25 L179.9719391,256.5668945 C180.1490173,257.1091919 180.2569275,257.5768127 180.2956696,257.9697266 L180.3371735,257.9697266 C180.3869781,257.5159302 180.4865875,257.0621643 180.6360016,256.6083984 L182.7859039,250.25 Z M194.2326813,255.3632813 L187.9240875,255.3632813 C188.0070953,257.2171021 188.9506073,258.144043 190.7546539,258.144043 C191.7728729,258.144043 192.6997986,257.8396606 193.5354156,257.230957 L193.5354156,258.8413086 C192.7164001,259.3780823 191.6400604,259.6464844 190.3064117,259.6464844 C188.9450836,259.6464844 187.8798065,259.2314453 187.110611,258.4013672 C186.3414001,257.5712891 185.9568024,256.4091797 185.9568024,254.9150391 C185.9568024,253.4983673 186.3704529,252.330719 187.1977692,251.4121094 C188.0250702,250.4934845 189.0612946,250.0341797 190.3064117,250.0341797 C191.54599,250.0341797 192.5102692,250.4256897 193.199234,251.2087402 C193.8881989,251.9917755 194.2326813,253.0694885 194.2326813,254.4418945 Z M192.3401031,253.9438477 C192.3345642,253.1580353 192.1547089,252.5548401 191.8005524,252.1342773 C191.4463806,251.7136993 190.9427948,251.503418 190.2898102,251.503418 C189.6976776,251.503418 189.1830292,251.7261505 188.7458649,252.1716309 C188.3086853,252.6170959 188.0375214,253.20784 187.9323883,253.9438477 Z M204.6169586,259.4306641 L202.6745758,259.4306641 L202.6745758,254.2426758 C202.6745605,252.4773712 202.0326385,251.5947266 200.7487946,251.5947266 C200.1013336,251.5947266 199.5659332,251.8395996 199.1425934,252.3293457 C198.7192535,252.8190918 198.5075836,253.4402618 198.5075836,254.1928711 L198.5075836,259.4306641 L196.5569,259.4306641 L196.5569,250.25 L198.5075836,250.25 L198.5075836,251.7524414 L198.5490875,251.7524414 C199.2297516,250.6069336 200.2258453,250.0341797 201.5373688,250.0341797 C203.5904236,250.0341797 204.6169586,251.2958984 204.6169586,253.8193359 Z M215.7649078,258.5839844 C215.7649078,262.0260315 214.043869,263.7470703 210.6018219,263.7470703 C209.4341736,263.7470703 208.4436188,263.5478516 207.6301422,263.1494141 L207.6301422,261.3564453 C208.6372986,261.9208984 209.6140289,262.203125 210.560318,262.203125 C212.7295837,262.203125 213.8142242,261.0935669 213.8142242,258.8745117 L213.8142242,257.9614258 L213.7810211,257.9614258 C213.1058807,259.0847778 212.0904236,259.6464844 210.7346344,259.6464844 C209.5835876,259.6464844 208.6608124,259.2355957 207.9663239,258.4138184 C207.2718201,257.592041 206.9245758,256.4949341 206.9245758,255.1225586 C206.9245758,253.5730743 207.3050232,252.3376465 208.0659332,251.4162598 C208.826828,250.494873 209.8409119,250.0341797 211.1081696,250.0341797 C212.3090057,250.0341797 213.1999512,250.5073242 213.7810211,251.4536133 L213.8142242,251.4536133 L213.8142242,250.25 L215.7649078,250.25 Z M213.8308258,254.0517578 C213.8308105,253.3710938 213.6066895,252.7914124 213.1584625,252.3127441 C212.7102203,251.8340607 212.1568298,251.5947266 211.4983063,251.5947266 C210.6958923,251.5947266 210.0636444,251.8977051 209.6015778,252.5036621 C209.1394958,253.1096191 208.9084625,253.9493713 208.9084625,255.0229492 C208.9084625,255.9526367 209.1298065,256.6955566 209.572525,257.251709 C210.0152283,257.8078613 210.5990448,258.0859375 211.3239899,258.0859375 C212.0599823,258.0859375 212.6617889,257.8120117 213.1294098,257.2641602 C213.5970154,256.7163086 213.8308105,256.0245667 213.8308258,255.1889648 Z M226.5310211,255.3632813 L220.2224274,255.3632813 C220.3054352,257.2171021 221.2489471,258.144043 223.0529938,258.144043 C224.0712128,258.144043 224.9981384,257.8396606 225.8337555,257.230957 L225.8337555,258.8413086 C225.01474,259.3780823 223.9384003,259.6464844 222.6047516,259.6464844 C221.2434235,259.6464844 220.1781464,259.2314453 219.4089508,258.4013672 C218.63974,257.5712891 218.2551422,256.4091797 218.2551422,254.9150391 C218.2551422,253.4983673 218.6687927,252.330719 219.496109,251.4121094 C220.32341,250.4934845 221.3596344,250.0341797 222.6047516,250.0341797 C223.8443298,250.0341797 224.8085938,250.4256897 225.4975739,251.2087402 C226.1865387,251.9917755 226.5310211,253.0694885 226.5310211,254.4418945 Z M224.638443,253.9438477 C224.6329041,253.1580353 224.4530487,252.5548401 224.0988922,252.1342773 C223.7447205,251.7136993 223.2411346,251.503418 222.58815,251.503418 C221.9960175,251.503418 221.481369,251.7261505 221.0442047,252.1716309 C220.6070251,252.6170959 220.3358612,253.20784 220.2307281,253.9438477 Z M242.8420563,260.2441406 L241.298111,260.2441406 L241.298111,259.090332 L230.6897125,259.090332 L230.6897125,260.2441406 L229.1291656,260.2441406 L229.1291656,245.8173828 L242.8420563,245.8173828 Z M241.298111,257.612793 L241.298111,247.3115234 L230.6897125,247.3115234 L230.6897125,257.612793 Z M239.513443,255.6206055 L232.4909821,255.6206055 L232.4909821,249.1791992 L239.513443,249.1791992 Z M238.0359039,254.1928711 L238.0359039,250.590332 L233.9685211,250.590332 L233.9685211,254.1928711 Z M261.1867676,259.0737305 L260.3483887,260.3852539 C258.9483337,259.7709961 257.7087402,258.9492188 256.6296387,257.9199219 C255.5118103,259.015625 254.3552399,259.8318481 253.1599274,260.3686523 L252.2966461,259.0737305 C253.8018494,258.3764648 254.9169312,257.6044922 255.641861,256.7578125 C254.8947906,255.6455078 254.3580017,254.4169922 254.0315094,253.0722656 L255.3679352,252.4248047 C255.6557007,253.6809845 256.0651855,254.7185822 256.5964355,255.5375977 C257.4707947,254.115387 258.0020447,252.029129 258.1901855,249.2788086 L255.3845367,249.2788086 C254.8532867,250.9389648 254.1919861,252.3916016 253.40065,253.6367188 L252.3464508,252.4082031 C253.4310913,250.5820313 254.2362671,248.2246094 254.7619781,245.3359375 L256.2893066,245.5268555 C256.2062988,246.1411133 256.0347595,246.8992462 255.7746735,247.8012695 L260.9626465,247.8012695 L260.9626465,249.2788086 L259.7258301,249.2788086 C259.4602051,252.671051 258.7574158,255.1474609 257.6174316,256.7080078 C258.6356812,257.7262268 259.8254395,258.514801 261.1867676,259.0737305 Z M251.9895172,260.2939453 L250.478775,260.2939453 L250.478775,256.1020508 C249.3111267,256.8048401 248.0632477,257.3997192 246.7351227,257.8867188 L246.2951813,256.5253906 C246.4888611,256.3372192 246.5857086,256.1324768 246.5857086,255.9111328 L246.5857086,246.5810547 L248.0466461,246.5810547 L248.0466461,255.7036133 C248.9265137,255.3217773 249.7372437,254.8984375 250.478775,254.4335938 L250.478775,245.4604492 L251.9895172,245.4604492 Z M271.3967285,255.7617188 L269.7282715,255.7617188 L269.7282715,255.03125 C269.7282715,254.455719 269.8431091,253.9521484 270.0727539,253.5205078 C270.3024292,253.0888672 270.7050171,252.6516876 271.2805176,252.2089844 C271.911377,251.7053986 272.3319702,251.2723694 272.5422363,250.9099121 C272.752533,250.5474396 272.857666,250.1531525 272.857666,249.7270508 C272.857666,249.223465 272.6750488,248.8084259 272.3098145,248.4819336 C271.9445801,248.155426 271.4493103,247.9921875 270.8239746,247.9921875 C269.7891541,247.9921875 268.8483887,248.3878479 268.001709,249.1791992 L268.001709,247.2285156 C268.947998,246.6585236 269.9717712,246.3735352 271.072998,246.3735352 C272.2185059,246.3735352 273.1205444,246.6612854 273.7790527,247.2368164 C274.4375916,247.8123322 274.7668457,248.5677032 274.7668457,249.5029297 C274.7668457,250.1337891 274.6174316,250.716217 274.3186035,251.2502441 C274.0197754,251.784256 273.5162048,252.3417969 272.8078613,252.9228516 C272.2987671,253.3378906 271.9362793,253.6809845 271.720459,253.9521484 C271.5046387,254.2232971 271.3967285,254.6162109 271.3967285,255.1308594 Z M270.5666504,257.3388672 C270.8986816,257.3388672 271.182312,257.4495239 271.4174805,257.6708984 C271.6526794,257.8922424 271.7702637,258.1661682 271.7702637,258.4926758 C271.7702637,258.8191528 271.6554565,259.0917053 271.4257813,259.3103027 C271.1961365,259.5288696 270.9097595,259.6381836 270.5666504,259.6381836 C270.2290955,259.6381836 269.9427185,259.5274963 269.7075195,259.3061523 C269.4723511,259.0847778 269.3547363,258.8136292 269.3547363,258.4926758 C269.3547363,258.1661682 269.4750977,257.8922424 269.7158203,257.6708984 C269.956543,257.4495239 270.2401733,257.3388672 270.5666504,257.3388672 Z" style="fill:rgb(89,89,89);stroke:none" clip-path="url(#clip7)" />
<clipPath id="clip8"><path d="M113,382 L236,382 L236,431 L113,431 L113,382 Z" /></clipPath>
<path d="M124,385 C119.5817184,385 116,388.5817261 116,393 L116,419 C116,423.4182739 119.5817184,427 124,427 L224,427 C228.4182739,427 232,423.4182739 232,419 L232,393 C232,388.5817261 228.4182739,385 224,385 Z" style="fill:none;stroke:rgb(127,127,127);stroke-width:4" clip-path="url(#clip8)" />
<clipPath id="clip9"><path d="M129,393 L220,393 L220,420 L129,420 L129,393 Z" /></clipPath>
<path d="M146.6115723,405.7114258 L141.423584,405.7114258 C140.3057556,406.5857544 138.9859314,407.4075317 137.4641113,408.1767578 L137.4641113,408.284668 L144.1794434,408.284668 L144.1794434,409.6875 L137.4641113,409.6875 L137.4641113,411.9038086 C137.4641113,412.003418 137.4931641,412.0891724 137.5512695,412.1611328 C137.609375,412.2330627 137.6730194,412.2773438 137.7421875,412.2939453 C137.8113708,412.3105469 138.2706757,412.3285217 139.1201172,412.3479004 C139.969574,412.3672485 140.7180176,412.3769531 141.3654785,412.3769531 C142.6936035,412.3769531 143.5638123,412.3562012 143.9760742,412.3146973 C144.3883514,412.2731934 144.6332245,412.0227661 144.7106934,411.5634766 C144.7881775,411.1041565 144.8269043,410.6282349 144.8269043,410.1357422 L146.3376465,410.7998047 C146.2159119,412.0006409 146.0083923,412.7629395 145.7150879,413.0866699 C145.4217987,413.4104004 145.0704041,413.606842 144.6608887,413.6760254 C144.2513885,413.7451782 143.1197205,413.7797852 141.2658691,413.7797852 C139.3511658,413.7797852 138.1184998,413.7617798 137.5678711,413.7258301 C137.0172577,413.6898499 136.6105194,413.532135 136.3476563,413.2526855 C136.0848083,412.9732056 135.9533691,412.6204224 135.9533691,412.1943359 L135.9533691,408.9072266 C134.8853455,409.4273987 133.7675018,409.9033203 132.5998535,410.3349609 L131.7697754,409.0649414 C134.8466034,407.9526367 137.2787323,406.8347778 139.0661621,405.7114258 L131.8859863,405.7114258 L131.8859863,404.3500977 L137.4973145,404.3500977 L137.4973145,402.3330078 L132.8903809,402.3330078 L132.8903809,400.9882813 L137.4973145,400.9882813 L137.4973145,399.1040039 L139.0080566,399.1040039 L139.0080566,400.9882813 L142.6687012,400.9882813 L142.6687012,402.3330078 L139.0080566,402.3330078 L139.0080566,404.3500977 L141.0168457,404.3500977 C142.5165253,403.1547852 143.9387207,401.5693359 145.2834473,399.59375 L146.4953613,400.4238281 C145.4605408,401.9345703 144.3482361,403.2433167 143.1584473,404.3500977 L146.6115723,404.3500977 Z M164.1013336,413.480957 L149.3591461,413.480957 L149.3591461,411.9868164 L156.2155914,411.9868164 L156.2155914,408.2763672 L151.0608063,408.2763672 L151.0608063,406.7822266 L156.2155914,406.7822266 L156.2155914,403.5366211 L152.4055328,403.5366211 C151.7801971,404.6212463 151.0884705,405.5509338 150.3303375,406.3256836 L149.1765289,405.2216797 C150.7204742,403.6389771 151.7552948,401.6938477 152.2810211,399.3862305 L153.8000641,399.7431641 C153.606369,400.4680786 153.3739471,401.2345276 153.1027985,402.0424805 L156.2155914,402.0424805 L156.2155914,399.0625 L157.7761383,399.0625 L157.7761383,402.0424805 L163.8772125,402.0424805 L163.8772125,403.5366211 L157.7761383,403.5366211 L157.7761383,406.7822266 L163.1799469,406.7822266 L163.1799469,408.2763672 L157.7761383,408.2763672 L157.7761383,411.9868164 L164.1013336,411.9868164 Z M171.4392242,399.2866211 C171.217865,399.9562073 171.0297089,400.5040588 170.8747711,400.9301758 L170.3352203,402.3164063 L170.3352203,413.8710938 L168.8244781,413.8710938 L168.8244781,405.1884766 C168.6031189,405.5592346 168.2102203,406.1015625 167.6457672,406.8154297 L166.8654938,405.1884766 C168.2046814,403.4674377 169.2256775,401.3701172 169.9284821,398.8964844 Z M181.6906891,404.3500977 L175.9133453,404.9311523 C176.1070251,407.3494263 176.5981598,409.2019043 177.386734,410.4885254 C178.1753082,411.7751465 178.7798767,412.418457 179.2004547,412.418457 C179.6929626,412.418457 180.0083923,411.4472656 180.1467438,409.5048828 L181.6242828,410.2353516 C181.3641815,412.8141174 180.589447,414.1034851 179.3000641,414.1035156 C178.3482361,414.1034851 177.3618317,413.3578186 176.3408356,411.8664551 C175.3198395,410.375061 174.6488495,408.1075745 174.3278961,405.0639648 L171.032486,405.3876953 L170.9660797,403.9267578 L174.2116852,403.6196289 C174.1231384,402.352356 174.0899353,400.8277893 174.1120758,399.0458984 L175.622818,399.0458984 C175.622818,400.9384766 175.6670837,402.4132385 175.7556305,403.4702148 L181.6408844,402.9057617 Z M180.6032867,401.7685547 L179.3581696,402.7563477 C178.7605133,401.8598633 177.9857635,401.0325317 177.0339508,400.2744141 L178.204361,399.3032227 C179.1727753,400.0724182 179.9724274,400.8941956 180.6032867,401.7685547 Z M198.9396973,403.9765625 L197.4289551,403.9931641 L197.4289551,402.059082 L194.1501617,402.059082 L194.1501617,404.3334961 C194.1501617,404.4884338 194.2068787,404.6212463 194.3203278,404.7319336 C194.4337616,404.8425903 194.5679626,404.8979492 194.7229156,404.8979492 L198.4333496,404.8979492 L198.4333496,406.309082 L194.4572906,406.309082 C193.2785797,406.309082 192.6892242,405.7141724 192.6892242,404.5244141 L192.6892242,402.059082 L191.0871735,402.059082 C190.6555328,404.405426 188.8210449,406.0655823 185.5837555,407.0395508 L184.728775,405.777832 C187.65065,404.9200745 189.2554626,403.680481 189.5432281,402.059082 L186.1233063,402.059082 L186.1233063,403.9931641 L184.6291656,403.9931641 L184.6291656,400.6313477 L191.103775,400.6313477 C191.0096893,400.2495117 190.8132477,399.8067932 190.5144196,399.3032227 L192.0583649,398.8964844 C192.3184509,399.4387817 192.5287323,400.0170898 192.6892242,400.6313477 L198.9396973,400.6313477 Z M199.1970215,413.5307617 L184.4050446,413.5307617 L184.4050446,412.0698242 L191.0041656,412.0698242 L191.0041656,409.0649414 L185.9572906,409.0649414 L185.9572906,407.6040039 L197.6862793,407.6040039 L197.6862793,409.0649414 L192.5647125,409.0649414 L192.5647125,412.0698242 L199.1970215,412.0698242 Z M205.9787598,401.2124023 L204.8747559,402.2084961 C204.0170135,401.3009338 203.1896973,400.5261841 202.3928223,399.8842773 L203.4802246,398.8964844 C204.3047791,399.5605469 205.137619,400.3325195 205.9787598,401.2124023 Z M216.2302246,412.1196289 C216.2302246,412.6896057 216.0960388,413.1309204 215.8276367,413.4436035 C215.5592499,413.7562561 214.9768066,413.9125977 214.0803223,413.9125977 C213.8257751,413.9125977 213.4605408,413.9042969 212.9846191,413.8876953 L212.420166,412.4433594 L214.4787598,412.4267578 C214.6835175,412.4267578 214.7858887,412.3188477 214.7858887,412.1030273 L214.7858887,400.9052734 L206.5349121,400.9052734 L206.5349121,399.4941406 L216.2302246,399.4941406 Z M203.9367676,413.8876953 L202.4924316,413.8876953 L202.4924316,402.5488281 L203.9367676,402.5488281 Z M213.0344238,410.9824219 L205.6550293,410.9824219 L205.6550293,402.7729492 L213.0344238,402.7729492 Z M211.6398926,406.2758789 L211.6398926,404.1342773 L207.0661621,404.1342773 L207.0661621,406.2758789 Z M211.6398926,409.6044922 L211.6398926,407.6040039 L207.0661621,407.6040039 L207.0661621,409.6044922 Z" style="fill:rgb(89,89,89);stroke:none" clip-path="url(#clip9)" />
<clipPath id="clip10"><path d="M424,219 L553,219 L553,290 L424,290 L424,219 Z" /></clipPath>
<path d="M435,222 C430.5817261,222 427,225.5817261 427,230 L427,278 C427,282.4182739 430.5817261,286 435,286 L541,286 C545.4182739,286 549,282.4182739 549,278 L549,230 C549,225.5817261 545.4182739,222 541,222 Z" style="fill:none;stroke:rgb(127,127,127);stroke-width:4" clip-path="url(#clip10)" />
<clipPath id="clip11"><path d="M440,230 L537,230 L537,279 L440,279 L440,230 Z" /></clipPath>
<path d="M443.248291,245.986084 C444.1060181,246.5671387 444.9969788,246.857666 445.9211426,246.857666 C447.1385803,246.857666 447.7473145,246.4813538 447.7473145,245.7287598 C447.7473145,245.4133301 447.6200256,245.1546173 447.3654785,244.9526367 C447.1109009,244.7506409 446.538147,244.4836426 445.6472168,244.1516113 C444.7119751,243.7919006 444.0811157,243.4086914 443.7546387,243.0019531 C443.4281311,242.5952148 443.2648926,242.0847168 443.2648926,241.470459 C443.2648926,240.6237793 443.6190491,239.9541779 444.3273926,239.4616699 C445.0357056,238.9691467 445.9128418,238.7229004 446.9587402,238.7229004 C447.7611389,238.7229004 448.5109863,238.8557129 449.208252,239.1213379 L449.208252,240.8479004 C448.5109863,240.4162598 447.7307129,240.2004395 446.8674316,240.2004395 C446.3749084,240.2004395 445.9764709,240.3028107 445.6721191,240.5075684 C445.3677368,240.7123108 445.2155762,240.9807129 445.2155762,241.3127441 C445.2155762,241.6392365 445.3276367,241.8965607 445.5517578,242.0847168 C445.7758484,242.2728577 446.2919006,242.5218811 447.0998535,242.8317871 C448.0959473,243.1970215 448.7752075,243.5857697 449.1376953,243.9980469 C449.5001526,244.4103088 449.6813965,244.923584 449.6813965,245.5378418 C449.6813965,246.4066467 449.3272095,247.0900879 448.6188965,247.5881348 C447.910553,248.0861664 446.9808655,248.3352051 445.829834,248.3352051 C444.8447876,248.3352051 443.9842834,248.1636505 443.248291,247.8205566 Z M459.6340332,244.052002 L453.3254395,244.052002 C453.4084473,245.905838 454.3519592,246.8327637 456.1560059,246.8327637 C457.1742249,246.8327637 458.1011353,246.5283966 458.9367676,245.9196777 L458.9367676,247.5300293 C458.1177368,248.066803 457.0414124,248.3352051 455.7077637,248.3352051 C454.3464355,248.3352051 453.2811584,247.9201508 452.5119629,247.0900879 C451.7427368,246.2600098 451.3581543,245.0979004 451.3581543,243.6037598 C451.3581543,242.187088 451.7717896,241.0194397 452.5991211,240.1008301 C453.4264221,239.1822052 454.4626465,238.7229004 455.7077637,238.7229004 C456.9473267,238.7229004 457.9115906,239.1144104 458.6005859,239.8974609 C459.2895508,240.6804962 459.6340332,241.7582092 459.6340332,243.1306152 Z M457.7414551,242.6325684 C457.7359009,241.846756 457.5560608,241.2435608 457.2019043,240.822998 C456.8477173,240.40242 456.3441467,240.1921387 455.6911621,240.1921387 C455.0990295,240.1921387 454.5843811,240.4148712 454.1472168,240.8603516 C453.710022,241.3058167 453.4388733,241.8965607 453.3337402,242.6325684 Z M475.5383301,248.1193848 L473.5876465,248.1193848 L473.5876465,242.8566895 C473.5876465,241.9491272 473.440979,241.2933655 473.1477051,240.8894043 C472.8544006,240.4854279 472.3867798,240.2834473 471.744873,240.2834473 C471.1914673,240.2834473 470.7155762,240.5379944 470.3171387,241.0471191 C469.9187012,241.5562286 469.7194824,242.1787872 469.7194824,242.9147949 L469.7194824,248.1193848 L467.7770996,248.1193848 L467.7770996,242.723877 C467.7770691,241.0969238 467.1545105,240.2834473 465.9094238,240.2834473 C465.3338928,240.2834473 464.8565979,240.5296936 464.4775391,241.0222168 C464.0984497,241.5147247 463.9089355,242.151123 463.9089355,242.9313965 L463.9089355,248.1193848 L461.958252,248.1193848 L461.958252,238.9387207 L463.9089355,238.9387207 L463.9089355,240.3830566 L463.9504395,240.3830566 C464.6089478,239.2762756 465.5718384,238.7229004 466.8391113,238.7229004 C468.128479,238.7229004 469.000061,239.3343811 469.4538574,240.557373 C470.1400452,239.3343811 471.1638184,238.7229004 472.5251465,238.7229004 C474.5339355,238.7229004 475.5383301,239.9652405 475.5383301,242.4499512 Z M478.3937988,235.7844238 C478.3937988,235.4579163 478.5058594,235.1881409 478.7299805,234.9750977 C478.954071,234.7620392 479.2377014,234.6555176 479.5808105,234.6555176 C479.9183655,234.6555176 480.2033691,234.7620392 480.435791,234.9750977 C480.6681824,235.1881409 480.7843933,235.4579163 480.7844238,235.7844238 C480.7843933,236.1109161 480.6681824,236.3806915 480.435791,236.59375 C480.2033691,236.8067932 479.9183655,236.9133301 479.5808105,236.9133301 C479.2432251,236.9133301 478.9609985,236.8054199 478.7341309,236.5895996 C478.5072327,236.3737793 478.3937988,236.1053772 478.3937988,235.7844238 Z M478.5847168,248.1193848 L478.5847168,238.9387207 L480.5354004,238.9387207 L480.5354004,248.1193848 Z M487.3669434,245.986084 C488.2246704,246.5671387 489.1156311,246.857666 490.0397949,246.857666 C491.2572327,246.857666 491.8659668,246.4813538 491.8659668,245.7287598 C491.8659668,245.4133301 491.738678,245.1546173 491.4841309,244.9526367 C491.2295532,244.7506409 490.6567993,244.4836426 489.7658691,244.1516113 C488.8306274,243.7919006 488.1997681,243.4086914 487.873291,243.0019531 C487.5467834,242.5952148 487.3835449,242.0847168 487.3835449,241.470459 C487.3835449,240.6237793 487.7377014,239.9541779 488.4460449,239.4616699 C489.1543579,238.9691467 490.0314941,238.7229004 491.0773926,238.7229004 C491.8797913,238.7229004 492.6296387,238.8557129 493.3269043,239.1213379 L493.3269043,240.8479004 C492.6296387,240.4162598 491.8493652,240.2004395 490.986084,240.2004395 C490.4935608,240.2004395 490.0951233,240.3028107 489.7907715,240.5075684 C489.4863892,240.7123108 489.3342285,240.9807129 489.3342285,241.3127441 C489.3342285,241.6392365 489.4462891,241.8965607 489.6704102,242.0847168 C489.8945007,242.2728577 490.410553,242.5218811 491.2185059,242.8317871 C492.2145996,243.1970215 492.8938599,243.5857697 493.2563477,243.9980469 C493.6188049,244.4103088 493.8000488,244.923584 493.8000488,245.5378418 C493.8000488,246.4066467 493.4458618,247.0900879 492.7375488,247.5881348 C492.0292053,248.0861664 491.0995178,248.3352051 489.9484863,248.3352051 C488.9634399,248.3352051 488.1029358,248.1636505 487.3669434,247.8205566 Z M498.0168457,246.8825684 L498.0168457,252.3444824 L496.0661621,252.3444824 L496.0661621,238.9387207 L498.0168457,238.9387207 L498.0168457,240.4660645 L498.0583496,240.4660645 C498.7666626,239.3039551 499.7959595,238.7229004 501.1462402,238.7229004 C502.3138733,238.7229004 503.2324829,239.131012 503.9020996,239.9472656 C504.5716858,240.763504 504.9064941,241.8688965 504.9064941,243.2634277 C504.9064941,244.7962952 504.5274048,246.0248108 503.7692871,246.9489746 C503.0111389,247.8731232 501.9956665,248.3352051 500.7229004,248.3352051 C499.560791,248.3352051 498.6726074,247.8509827 498.0583496,246.8825684 Z M498.0002441,244.2512207 C498.0002136,244.9650879 498.2215881,245.5641174 498.6643066,246.0483398 C499.1069946,246.532547 499.6659241,246.7746582 500.3410645,246.7746582 C501.1545105,246.7746582 501.7853699,246.4633789 502.2336426,245.8408203 C502.6818542,245.2182617 502.9059753,244.3563538 502.9060059,243.255127 C502.9059753,242.3088379 502.6984558,241.5769806 502.2834473,241.0595703 C501.8683777,240.5421448 501.287323,240.2834473 500.5402832,240.2834473 C499.7932129,240.2834473 499.1831055,240.5545959 498.7099609,241.0969238 C498.2367859,241.6392365 498.0002136,242.3254395 498.0002441,243.1555176 Z M507.6208496,239.5529785 C508.5560608,238.999588 509.6379395,238.7229004 510.8664551,238.7229004 C513.1851196,238.7229004 514.3444824,239.9209747 514.3444824,242.3171387 L514.3444824,248.1193848 L512.4519043,248.1193848 L512.4519043,246.7248535 L512.4104004,246.7248535 C511.7850647,247.7984161 510.8553772,248.3352051 509.6213379,248.3352051 C508.7192993,248.3352051 508.0095825,248.0917053 507.4921875,247.6047363 C506.974762,247.1177521 506.7160645,246.4619904 506.7160645,245.6374512 C506.7160645,243.9108887 507.7425842,242.903717 509.7956543,242.6159668 L512.4602051,242.2507324 C512.4602051,240.8838654 511.8597717,240.2004395 510.6589355,240.2004395 C509.5576782,240.2004395 508.5449829,240.557373 507.6208496,241.2712402 Z M510.4348145,243.8527832 C509.770752,243.9413147 509.3017578,244.1101074 509.027832,244.3591309 C508.7539063,244.6081543 508.6169434,244.9733887 508.6169434,245.454834 C508.6169434,245.8587952 508.7635803,246.1894531 509.0568848,246.4467773 C509.3501587,246.7041016 509.7264709,246.8327637 510.185791,246.8327637 C510.8387756,246.8327637 511.3811035,246.6017151 511.8127441,246.1396484 C512.2443848,245.6775665 512.4602051,245.0951233 512.4602051,244.392334 L512.4602051,243.5788574 Z M523.7160645,247.729248 C523.0408936,248.1332092 522.1748657,248.3352051 521.1179199,248.3352051 C519.7786865,248.3352051 518.6940918,247.91185 517.8640137,247.0651855 C517.0339355,246.2185059 516.6188965,245.1117249 516.6188965,243.744873 C516.6188965,242.2119904 517.0643311,240.9917755 517.9553223,240.0842285 C518.8462524,239.1766663 520.0332642,238.7229004 521.5163574,238.7229004 C522.4294434,238.7229004 523.1682129,238.8695374 523.732666,239.1628418 L523.732666,240.9890137 C523.0796509,240.518631 522.3740845,240.2834473 521.6159668,240.2834473 C520.7194824,240.2834473 519.9931641,240.5836487 519.4370117,241.184082 C518.8808594,241.7845001 518.6027832,242.5910645 518.6027832,243.6037598 C518.6027832,244.5943146 518.8670044,245.3704376 519.3955078,245.9321289 C519.9239502,246.4938049 520.633667,246.7746582 521.5246582,246.7746582 C522.2993774,246.7746582 523.0298462,246.5256348 523.7160645,246.0275879 Z M533.751709,244.052002 L527.4431152,244.052002 C527.526123,245.905838 528.4696045,246.8327637 530.2736816,246.8327637 C531.2918701,246.8327637 532.218811,246.5283966 533.0544434,245.9196777 L533.0544434,247.5300293 C532.2354126,248.066803 531.1590576,248.3352051 529.8254395,248.3352051 C528.4641113,248.3352051 527.3988037,247.9201508 526.6296387,247.0900879 C525.8604126,246.2600098 525.4758301,245.0979004 525.4758301,243.6037598 C525.4758301,242.187088 525.8894653,241.0194397 526.7167969,240.1008301 C527.5440674,239.1822052 528.5803223,238.7229004 529.8254395,238.7229004 C531.0650024,238.7229004 532.0292969,239.1144104 532.7182617,239.8974609 C533.4072266,240.6804962 533.751709,241.7582092 533.751709,243.1306152 Z M531.8591309,242.6325684 C531.8535767,241.846756 531.6737061,241.2435608 531.3195801,240.822998 C530.9653931,240.40242 530.461792,240.1921387 529.8088379,240.1921387 C529.2166748,240.1921387 528.7020264,240.4148712 528.2648926,240.8603516 C527.8276978,241.3058167 527.5565186,241.8965607 527.451416,242.6325684 Z" style="fill:rgb(89,89,89);stroke:none" clip-path="url(#clip11)" />
<clipPath id="clip12"><path d="M440,230 L537,230 L537,279 L440,279 L440,230 Z" /></clipPath>
<path d="M475.7666016,273.3898926 C473.890625,271.2704163 472.9526367,268.6584473 472.9526367,265.5539551 C472.9526367,262.4881897 473.890625,259.8402405 475.7666016,257.6101074 L477.4350586,257.6101074 C475.586731,259.9232483 474.6625977,262.5684204 474.6625977,265.5456543 C474.6625977,268.5062561 475.586731,271.1210022 477.4350586,273.3898926 Z M487.5039063,259.3200684 L483.8100586,259.3200684 L483.8100586,270.4680176 L481.8095703,270.4680176 L481.8095703,259.3200684 L478.1240234,259.3200684 L478.1240234,257.6101074 L487.5039063,257.6101074 Z M488.8984375,265.9606934 C488.8984375,264.4499512 489.3286743,263.2573853 490.189209,262.3830566 C491.0497131,261.5086975 492.2214966,261.0715332 493.7045898,261.0715332 C495.1046448,261.0715332 496.2113953,261.494873 497.0249023,262.3415527 C497.8383789,263.1882324 498.2451172,264.3447876 498.2451172,265.8112793 C498.2451172,267.2888184 497.8162231,268.4702759 496.9584961,269.3557129 C496.1007385,270.2411194 494.9552307,270.6838379 493.5219727,270.6838379 C492.1163635,270.6838379 490.9943848,270.2549438 490.1560059,269.3972168 C489.317627,268.5394592 488.8984375,267.3939514 488.8984375,265.9606934 Z M490.8823242,265.9191895 C490.8823242,266.9263306 491.1271973,267.7121582 491.6169434,268.2766113 C492.1066895,268.8410645 492.7721252,269.123291 493.6132813,269.123291 C495.3785706,269.123291 496.2612305,268.0358887 496.2612305,265.861084 C496.2612305,264.8096313 496.0343323,264.008606 495.5805664,263.4580078 C495.12677,262.9073792 494.4710083,262.6320801 493.6132813,262.6320801 C492.7555237,262.6320801 492.0859375,262.925354 491.6044922,263.5119629 C491.1230469,264.0985413 490.8823242,264.9009399 490.8823242,265.9191895 Z M499.5483398,273.3898926 C501.4021606,271.1320801 502.3291016,268.517334 502.3291016,265.5456543 C502.3291016,262.5794983 501.3993835,259.9343262 499.5400391,257.6101074 L501.2167969,257.6101074 C503.1038208,259.8457642 504.0473633,262.4937134 504.0473633,265.5539551 C504.0473633,268.6528931 503.1010742,271.2648926 501.2084961,273.3898926 Z" style="fill:rgb(89,89,89);stroke:none" clip-path="url(#clip12)" />
<clipPath id="clip13"><path d="M311,240 L363,240 L363,267 L311,267 L311,240 Z" /></clipPath>
<path d="M317,254 L427,254" style="fill:none;stroke:rgb(127,127,127);stroke-width:5" clip-path="url(#clip13)" />
<clipPath id="clip14"><path d="M381,240 L433,240 L433,267 L381,267 L381,240 Z" /></clipPath>
<path d="M317,254 L427,254" style="fill:none;stroke:rgb(127,127,127);stroke-width:5" clip-path="url(#clip14)" />
<clipPath id="clip15"><path d="M361,240 L383,240 L383,267 L361,267 L361,240 Z" /></clipPath>
<path d="M317,254 L427,254" style="fill:none;stroke:rgb(127,127,127);opacity:0.09803921568627451;stroke-width:5" clip-path="url(#clip15)" />
<clipPath id="clip16"><path d="M311,240 L433,240 L433,267 L311,267 L311,240 Z" /></clipPath>
<path d="M414.8756409,261 L427,254 L414.8756409,247 Z" style="fill:rgb(127,127,127);stroke:none" clip-path="url(#clip16)" />
<clipPath id="clip17"><path d="M311,240 L433,240 L433,267 L311,267 L311,240 Z" /></clipPath>
<path d="M414.8756409,261 L427,254 L414.8756409,247 Z" style="fill:none;stroke:rgb(127,127,127);stroke-width:5" clip-path="url(#clip17)" />
<clipPath id="clip18"><path d="M361,240 L383,240 L383,267 L361,267 L361,240 Z" /></clipPath>
<path d="M370.90625,253.2890625 L370.90625,250.421875 C369.1822815,251.6302032 367.1822815,252.658844 364.90625,253.5078125 C364.6666565,252.705719 364.4322815,251.971344 364.203125,251.3046875 C366.833313,250.5234375 369.098938,249.424469 371,248.0078125 L364.765625,248.0078125 L364.765625,246.1328125 L379.234375,246.1328125 L379.234375,248.0078125 L373.7421875,248.0078125 C373.2473755,248.5234375 372.7161255,249.0130157 372.1484375,249.4765625 L373.09375,249.4765625 L373.09375,253.2890625 Z M374.484375,249.0390625 C376.359375,249.8515625 378.130188,250.674469 379.796875,251.5078125 L378.78125,253.3203125 C376.9166565,252.3098907 375.130188,251.4348907 373.421875,250.6953125 Z M365.859375,260.8671875 L365.859375,253.8828125 L378.140625,253.8828125 L378.140625,260.8671875 L376.015625,260.8671875 L376.015625,260.1171875 L367.984375,260.1171875 L367.984375,260.8671875 Z M376.015625,255.7578125 L367.984375,255.7578125 L367.984375,258.2421875 L376.015625,258.2421875 Z" style="fill:rgb(102,102,102);stroke:none" clip-path="url(#clip18)" />
<clipPath id="clip19"><path d="M159,299 L185,299 L185,333 L159,333 L159,299 Z" /></clipPath>
<path d="M169.6911011,305.2378845 L173.171051,385" style="fill:none;stroke:rgb(127,127,127);stroke-width:5" clip-path="url(#clip19)" />
<clipPath id="clip20"><path d="M159,356 L185,356 L185,391 L159,391 L159,356 Z" /></clipPath>
<path d="M169.6911011,305.2378845 L173.171051,385" style="fill:none;stroke:rgb(127,127,127);stroke-width:5" clip-path="url(#clip20)" />
<clipPath id="clip21"><path d="M159,331 L163,331 L163,358 L159,358 L159,331 Z" /></clipPath>
<path d="M169.6911011,305.2378845 L173.171051,385" style="fill:none;stroke:rgb(127,127,127);stroke-width:5" clip-path="url(#clip21)" />
<clipPath id="clip22"><path d="M181,331 L185,331 L185,358 L181,358 L181,331 Z" /></clipPath>
<path d="M169.6911011,305.2378845 L173.171051,385" style="fill:none;stroke:rgb(127,127,127);stroke-width:5" clip-path="url(#clip22)" />
<clipPath id="clip23"><path d="M161,331 L183,331 L183,358 L161,358 L161,331 Z" /></clipPath>
<path d="M169.6911011,305.2378845 L173.171051,385" style="fill:none;stroke:rgb(127,127,127);opacity:0.09803921568627451;stroke-width:5" clip-path="url(#clip23)" />
<clipPath id="clip24"><path d="M159,299 L185,299 L185,391 L159,391 L159,299 Z" /></clipPath>
<path d="M165.649231,373.1922913 L173.171051,385 L179.6359253,372.5820618 Z" style="fill:rgb(127,127,127);stroke:none" clip-path="url(#clip24)" />
<clipPath id="clip25"><path d="M159,299 L185,299 L185,391 L159,391 L159,299 Z" /></clipPath>
<path d="M165.649231,373.1922913 L173.171051,385 L179.6359253,372.5820618 Z" style="fill:none;stroke:rgb(127,127,127);stroke-width:5" clip-path="url(#clip25)" />
<clipPath id="clip26"><path d="M161,331 L183,331 L183,358 L161,358 L161,331 Z" /></clipPath>
<path d="M166.078125,337 L177.90625,337 L177.90625,343.53125 L166.078125,343.53125 Z M175.734375,338.734375 L168.25,338.734375 L168.25,339.578125 L175.734375,339.578125 Z M175.734375,341.796875 L175.734375,340.953125 L168.25,340.953125 L168.25,341.796875 Z M166.03125,352 C165.4895782,351.583313 164.8958282,351.15625 164.25,350.71875 C165.4166718,349.6041565 166.3098907,348.0572815 166.9296875,346.078125 L164.28125,346.078125 L164.28125,344.28125 L179.71875,344.28125 L179.71875,346.078125 L173.203125,346.078125 L173.203125,347.03125 L178.515625,347.03125 L178.515625,348.734375 L173.203125,348.734375 L173.203125,349.7265625 C173.8854218,349.7421875 174.7239532,349.75 175.71875,349.75 C176.8541718,349.75 178.1979218,349.739563 179.75,349.71875 C179.4895782,350.395813 179.2864532,351.0104065 179.140625,351.5625 C178.3802032,351.578125 177.046875,351.5729065 175.140625,351.546875 L172.859375,351.515625 C170.4635468,351.515625 168.7239532,350.953125 167.640625,349.828125 C167.1614532,350.6822815 166.625,351.40625 166.03125,352 Z M171.09375,349.5546875 L171.09375,346.078125 L166.96875,346.078125 L168.9375,346.8125 C168.7864532,347.2760315 168.625,347.7161255 168.453125,348.1328125 C169.1302032,348.846344 170.0104218,349.3203125 171.09375,349.5546875 Z" style="fill:rgb(102,102,102);stroke:none" clip-path="url(#clip26)" />
<clipPath id="clip27"><path d="M147,102 L185,102 L185,208 L147,208 L147,102 Z" /></clipPath>
<path d="M164.9424133,108 L166.5531616,202.3293304" style="fill:none;stroke:rgb(127,127,127);stroke-width:5" clip-path="url(#clip27)" />
<clipPath id="clip28"><path d="M147,102 L185,102 L185,208 L147,208 L147,102 Z" /></clipPath>
<path d="M159.347168,190.3262634 L166.5531616,202.3293304 L173.3451385,190.0872345 Z" style="fill:rgb(127,127,127);stroke:none" clip-path="url(#clip28)" />
<clipPath id="clip29"><path d="M147,102 L185,102 L185,208 L147,208 L147,102 Z" /></clipPath>
<path d="M159.347168,190.3262634 L166.5531616,202.3293304 L173.3451385,190.0872345 Z" style="fill:none;stroke:rgb(127,127,127);stroke-width:5" clip-path="url(#clip29)" />
</svg>
