<?xml version="1.0" encoding="UTF-8"?>
<!DOCTYPE svg PUBLIC "-//W3C//DTD SVG 1.1//EN" "http://www.w3.org/Graphics/SVG/1.1/DTD/svg11.dtd">
<svg version="1.2" xmlns="http://www.w3.org/2000/svg" xmlns:xlink="http://www.w3.org/1999/xlink" x="0" y="0" width="507" height="445" viewBox="0 0 507 445">
<style type="text/css"><![CDATA[
text { font:12px Dialog; }
]]></style>
<rect x="-1078" y="-1033" width="2954" height="2830" style="fill:rgb(255,255,255);stroke:none" />
<clipPath id="clip1"><path d="M14,14 L203,14 L203,113 L14,113 L14,14 Z" /></clipPath>
<path d="M18,18 L18,108 L198,108 L198,18 Z" style="fill:rgb(255,255,255);stroke:none" clip-path="url(#clip1)" />
<clipPath id="clip2"><path d="M14,14 L203,14 L203,113 L14,113 L14,14 Z" /></clipPath>
<path d="M18,18 L18,108 L198,108 L198,18 Z" style="fill:none;stroke:rgb(127,127,127);stroke-width:5" clip-path="url(#clip2)" />
<clipPath id="clip3"><path d="M49,34 L168,34 L168,93 L49,93 L49,34 Z" /></clipPath>
<path d="M52.6008377,53.0710449 C53.6604042,53.7888184 54.760994,54.1477051 55.9025955,54.1477051 C57.406498,54.1477051 58.1584549,53.6828613 58.1584549,52.7531738 C58.1584549,52.3635254 58.0012245,52.0439453 57.6867752,51.7944336 C57.3723183,51.5449219 56.6647987,51.2150879 55.5642166,50.8049316 C54.4089394,50.3605957 53.6296425,49.887207 53.226326,49.3847656 C52.8230019,48.8823242 52.6213455,48.251709 52.6213455,47.4929199 C52.6213455,46.4470215 53.0588417,45.619873 53.9338455,45.0114746 C54.8088417,44.4030762 55.8923416,44.098877 57.1843338,44.098877 C58.1755409,44.098877 59.1018143,44.2629395 59.9631424,44.5910645 L59.9631424,46.723877 C59.1018143,46.1906738 58.1379471,45.9240723 57.0715408,45.9240723 C56.4631386,45.9240723 55.9709511,46.0505371 55.5949783,46.3034668 C55.218998,46.5563965 55.0310135,46.8879395 55.0310135,47.2980957 C55.0310135,47.701416 55.1694412,48.0192871 55.4462967,48.251709 C55.7231483,48.4841309 56.3605995,48.791748 57.3586502,49.1745605 C58.589119,49.6257324 59.4282265,50.105957 59.8759842,50.6152344 C60.3237343,51.1245117 60.5476151,51.7585449 60.5476151,52.517334 C60.5476151,53.5905762 60.1101112,54.4348145 59.2351151,55.0500488 C58.3601112,55.6652832 57.2116737,55.9729004 55.7898026,55.9729004 C54.5730019,55.9729004 53.5100136,55.7609863 52.6008377,55.3371582 Z M72.8420486,50.6818848 L65.0490799,50.6818848 C65.151619,52.9719238 66.3171387,54.1169434 68.5456619,54.1169434 C69.8034668,54.1169434 70.9484863,53.7409668 71.9807205,52.9890137 L71.9807205,54.9782715 C70.9689941,55.6413574 69.6394043,55.9729004 67.991951,55.9729004 C66.3103104,55.9729004 64.9943848,55.4602051 64.0441971,54.4348145 C63.093998,53.4094238 62.6189041,51.973877 62.6189041,50.1281738 C62.6189041,48.3781738 63.1298866,46.935791 64.1518631,45.8010254 C65.1738281,44.6662598 66.4538651,44.098877 67.991951,44.098877 C69.5231934,44.098877 70.7143555,44.5825195 71.5654373,45.5498047 C72.4165115,46.5170898 72.8420486,47.8483887 72.8420486,49.5437012 Z M70.504158,48.9284668 C70.4973145,47.9577637 70.2751465,47.2126465 69.8376541,46.6931152 C69.4001465,46.173584 68.7780762,45.9138184 67.9714432,45.9138184 C67.2399902,45.9138184 66.604248,46.1889648 66.0642166,46.7392578 C65.5241699,47.2895508 65.189209,48.0192871 65.0593338,48.9284668 Z M92.488533,55.7062988 L90.0788651,55.7062988 L90.0788651,49.2053223 C90.0788651,48.0842285 89.8977127,47.2741699 89.535408,46.7751465 C89.1731033,46.276123 88.5954666,46.0266113 87.8024979,46.0266113 C87.1189041,46.0266113 86.5310135,46.3410645 86.038826,46.9699707 C85.5466385,47.598877 85.3005447,48.3679199 85.3005447,49.2770996 L85.3005447,55.7062988 L82.9011307,55.7062988 L82.9011307,49.0412598 C82.9011307,47.0314941 82.1320877,46.0266113 80.5940018,46.0266113 C79.8830643,46.0266113 79.2934647,46.3308105 78.8252029,46.939209 C78.3569412,47.5476074 78.1228104,48.3337402 78.1228104,49.2976074 L78.1228104,55.7062988 L75.7131424,55.7062988 L75.7131424,44.3654785 L78.1228104,44.3654785 L78.1228104,46.1496582 L78.1740799,46.1496582 C78.9875565,44.7824707 80.1770096,44.098877 81.7424393,44.098877 C83.3352127,44.098877 84.4118729,44.854248 84.9724197,46.3649902 C85.820076,44.854248 87.0847244,44.098877 88.7663651,44.098877 C91.2478104,44.098877 92.488533,45.6335449 92.488533,48.7028809 Z M96.0158768,40.4689941 C96.0158768,40.0656738 96.1543045,39.7324219 96.43116,39.4692383 C96.7080154,39.2060547 97.0583572,39.0744629 97.4821854,39.0744629 C97.8991776,39.0744629 98.2512283,39.2060547 98.5383377,39.4692383 C98.8254471,39.7324219 98.9690018,40.0656738 98.9690018,40.4689941 C98.9690018,40.8723145 98.8254471,41.2055664 98.5383377,41.46875 C98.2512283,41.7319336 97.8991776,41.8635254 97.4821854,41.8635254 C97.0651932,41.8635254 96.7165604,41.7302246 96.4362869,41.463623 C96.1560135,41.1970215 96.0158768,40.8654785 96.0158768,40.4689941 Z M96.2517166,55.7062988 L96.2517166,44.3654785 L98.6613846,44.3654785 L98.6613846,55.7062988 Z M107.1003494,53.0710449 C108.1599197,53.7888184 109.2605057,54.1477051 110.4021072,54.1477051 C111.9060135,54.1477051 112.6579666,53.6828613 112.6579666,52.7531738 C112.6579666,52.3635254 112.5007401,52.0439453 112.1862869,51.7944336 C111.8718338,51.5449219 111.1643143,51.2150879 110.0637283,50.8049316 C108.9084549,50.3605957 108.129158,49.887207 107.7258377,49.3847656 C107.3225174,48.8823242 107.1208572,48.251709 107.1208572,47.4929199 C107.1208572,46.4470215 107.5583572,45.619873 108.4333572,45.0114746 C109.3083572,44.4030762 110.3918533,44.098877 111.6838455,44.098877 C112.6750565,44.098877 113.601326,44.2629395 114.4626541,44.5910645 L114.4626541,46.723877 C113.601326,46.1906738 112.6374588,45.9240723 111.5710526,45.9240723 C110.9626541,45.9240723 110.4704666,46.0505371 110.0944901,46.3034668 C109.7185135,46.5563965 109.5305252,46.8879395 109.5305252,47.2980957 C109.5305252,47.701416 109.6689529,48.0192871 109.9458084,48.251709 C110.2226639,48.4841309 110.8601151,48.791748 111.8581619,49.1745605 C113.0886307,49.6257324 113.927742,50.105957 114.3754959,50.6152344 C114.8232498,51.1245117 115.0471268,51.7585449 115.0471268,52.517334 C115.0471268,53.5905762 114.6096268,54.4348145 113.7346268,55.0500488 C112.8596268,55.6652832 111.7111893,55.9729004 110.2893143,55.9729004 C109.0725174,55.9729004 108.0095291,55.7609863 107.1003494,55.3371582 Z M120.2561111,54.1784668 L120.2561111,60.9255371 L117.8464432,60.9255371 L117.8464432,44.3654785 L120.2561111,44.3654785 L120.2561111,46.2521973 L120.3073807,46.2521973 C121.1823807,44.8166504 122.4538651,44.098877 124.1218338,44.098877 C125.5642166,44.098877 126.6989822,44.6030273 127.5261307,45.6113281 C128.3532715,46.6196289 128.7668457,47.9851074 128.7668457,49.7077637 C128.7668457,51.6013184 128.298584,53.1188965 127.3620682,54.260498 C126.4255447,55.4020996 125.1711502,55.9729004 123.5988846,55.9729004 C122.1633377,55.9729004 121.0661697,55.3747559 120.3073807,54.1784668 Z M120.2356033,50.9279785 C120.2356033,51.8098145 120.5090408,52.5498047 121.0559158,53.1479492 C121.6027908,53.7460938 122.2932205,54.045166 123.1272049,54.045166 C124.1320877,54.045166 124.9113846,53.6606445 125.4650955,52.8916016 C126.0188065,52.1225586 126.2956619,51.0578613 126.2956619,49.6975098 C126.2956619,48.5285645 126.0393143,47.6245117 125.526619,46.9853516 C125.0139236,46.3461914 124.2961502,46.0266113 123.3732986,46.0266113 C122.4504471,46.0266113 121.696785,46.3615723 121.1123123,47.0314941 C120.5278397,47.701416 120.2356033,48.5490723 120.2356033,49.5744629 Z M132.119873,45.1242676 C133.2751465,44.4406738 134.6115723,44.098877 136.1291504,44.098877 C138.9934082,44.098877 140.4255371,45.5788574 140.4255371,48.5388184 L140.4255371,55.7062988 L138.0876465,55.7062988 L138.0876465,53.9836426 L138.036377,53.9836426 C137.263916,55.3098145 136.1154785,55.9729004 134.5910645,55.9729004 C133.4768066,55.9729004 132.6000977,55.6721191 131.9609375,55.0705566 C131.3217773,54.4689941 131.0021973,53.6589355 131.0021973,52.6403809 C131.0021973,50.5075684 132.2702637,49.2634277 134.8063965,48.907959 L138.0979004,48.4567871 C138.0979004,46.7683105 137.3562012,45.9240723 135.8728027,45.9240723 C134.5124512,45.9240723 133.2614746,46.3649902 132.119873,47.2468262 Z M135.5959473,50.435791 C134.7756348,50.545166 134.1962891,50.7536621 133.8579102,51.0612793 C133.5195313,51.3688965 133.3503418,51.8200684 133.3503418,52.4147949 C133.3503418,52.9138184 133.5314941,53.3222656 133.8937988,53.6401367 C134.2561035,53.9580078 134.7209473,54.1169434 135.2883301,54.1169434 C136.0949707,54.1169434 136.7648926,53.831543 137.2980957,53.2607422 C137.8312988,52.6899414 138.0979004,51.970459 138.0979004,51.1022949 L138.0979004,50.0974121 Z M152.0021973,55.2243652 C151.1682129,55.7233887 150.0983887,55.9729004 148.7927246,55.9729004 C147.1384277,55.9729004 145.798584,55.4499512 144.7731934,54.4040527 C143.7478027,53.3581543 143.2351074,51.9909668 143.2351074,50.3024902 C143.2351074,48.4089355 143.7854004,46.9016113 144.8859863,45.7805176 C145.9865723,44.6594238 147.4528809,44.098877 149.2849121,44.098877 C150.4128418,44.098877 151.3254395,44.2800293 152.0227051,44.642334 L152.0227051,46.8981934 C151.2160645,46.3171387 150.3444824,46.0266113 149.407959,46.0266113 C148.3005371,46.0266113 147.4033203,46.3974609 146.7163086,47.1391602 C146.0292969,47.8808594 145.685791,48.8771973 145.685791,50.1281738 C145.685791,51.3518066 146.012207,52.3105469 146.6650391,53.0043945 C147.3178711,53.6982422 148.1945801,54.045166 149.295166,54.045166 C150.2521973,54.045166 151.154541,53.7375488 152.0021973,53.1223145 Z M164.3991699,50.6818848 L156.6062012,50.6818848 C156.7087402,52.9719238 157.8742676,54.1169434 160.1027832,54.1169434 C161.3605957,54.1169434 162.5056152,53.7409668 163.5378418,52.9890137 L163.5378418,54.9782715 C162.526123,55.6413574 161.1965332,55.9729004 159.5490723,55.9729004 C157.8674316,55.9729004 156.5515137,55.4602051 155.6013184,54.4348145 C154.651123,53.4094238 154.1760254,51.973877 154.1760254,50.1281738 C154.1760254,48.3781738 154.6870117,46.935791 155.7089844,45.8010254 C156.730957,44.6662598 158.0109863,44.098877 159.5490723,44.098877 C161.0803223,44.098877 162.2714844,44.5825195 163.1225586,45.5498047 C163.9736328,46.5170898 164.3991699,47.8483887 164.3991699,49.5437012 Z M162.0612793,48.9284668 C162.0544434,47.9577637 161.8322754,47.2126465 161.3947754,46.6931152 C160.9572754,46.173584 160.3352051,45.9138184 159.5285645,45.9138184 C158.7971191,45.9138184 158.161377,46.1889648 157.6213379,46.7392578 C157.0812988,47.2895508 156.7463379,48.0192871 156.6164551,48.9284668 Z" style="fill:rgb(117,117,117);stroke:none" clip-path="url(#clip3)" />
<clipPath id="clip4"><path d="M49,34 L168,34 L168,93 L49,93 L49,34 Z" /></clipPath>
<path d="M78.7636795,86.7463379 C76.4462967,84.1281738 75.2876053,80.9016113 75.2876053,77.0666504 C75.2876053,73.279541 76.4462967,70.0085449 78.7636795,67.2536621 L80.8247147,67.2536621 C78.5415115,70.111084 77.39991,73.3786621 77.39991,77.0563965 C77.39991,80.713623 78.5415115,83.9436035 80.8247147,86.7463379 Z M91.7041092,69.3659668 L85.7158279,69.3659668 L85.7158279,74.2980957 L91.2426834,74.2980957 L91.2426834,76.4001465 L85.7158279,76.4001465 L85.7158279,83.1369629 L83.2548904,83.1369629 L83.2548904,67.2536621 L91.7041092,67.2536621 Z M101.0761795,74.0930176 C100.7207108,73.8605957 100.2490311,73.7443848 99.6611404,73.7443848 C98.8818436,73.7443848 98.2512283,74.0861816 97.7692947,74.7697754 C97.2873611,75.4533691 97.0463943,76.3591309 97.0463943,77.4870605 L97.0463943,83.1369629 L94.6367264,83.1369629 L94.6367264,71.7961426 L97.0463943,71.7961426 L97.0463943,74.052002 L97.0976639,74.052002 C97.6582108,72.4182129 98.6494217,71.6013184 100.0712967,71.6013184 C100.4951248,71.6013184 100.8300858,71.6491699 101.0761795,71.744873 Z M102.439949,77.5690918 C102.439949,75.7028809 102.9714432,74.2297363 104.0344315,73.1496582 C105.0974197,72.0695801 106.5449295,71.529541 108.3769608,71.529541 C110.1064529,71.529541 111.4736404,72.0524902 112.4785233,73.0983887 C113.4834061,74.1442871 113.9858475,75.572998 113.9858475,77.3845215 C113.9858475,79.2097168 113.4560623,80.6691895 112.396492,81.7629395 C111.3369217,82.8566895 109.9218826,83.4035645 108.1513748,83.4035645 C106.4150467,83.4035645 105.0290604,82.8737793 103.9934158,81.814209 C102.9577713,80.7546387 102.439949,79.3395996 102.439949,77.5690918 Z M104.8906326,77.5178223 C104.8906326,78.7619629 105.1931229,79.732666 105.7981033,80.4299316 C106.4030838,81.1271973 107.2251053,81.4758301 108.2641678,81.4758301 C110.4448318,81.4758301 111.5351639,80.1325684 111.5351639,77.4460449 C111.5351639,76.1472168 111.2548904,75.1577148 110.6943436,74.4775391 C110.1337967,73.7973633 109.3237381,73.4572754 108.2641678,73.4572754 C107.2045975,73.4572754 106.377449,73.8195801 105.7827225,74.5441895 C105.1879959,75.2687988 104.8906326,76.2600098 104.8906326,77.5178223 Z M133.8374023,83.1369629 L131.4277344,83.1369629 L131.4277344,76.6359863 C131.4277344,75.5148926 131.246582,74.704834 130.8842773,74.2058105 C130.5219727,73.7067871 129.9443359,73.4572754 129.1513672,73.4572754 C128.4677734,73.4572754 127.8798904,73.7717285 127.3877029,74.4006348 C126.8955154,75.029541 126.6494217,75.798584 126.6494217,76.7077637 L126.6494217,83.1369629 L124.2500076,83.1369629 L124.2500076,76.4719238 C124.2500076,74.4621582 123.4809647,73.4572754 121.9428787,73.4572754 C121.2319412,73.4572754 120.6423416,73.7614746 120.1740799,74.369873 C119.7058182,74.9782715 119.4716873,75.7644043 119.4716873,76.7282715 L119.4716873,83.1369629 L117.0620193,83.1369629 L117.0620193,71.7961426 L119.4716873,71.7961426 L119.4716873,73.5803223 L119.5229568,73.5803223 C120.3364334,72.2131348 121.5258865,71.529541 123.0913162,71.529541 C124.6840897,71.529541 125.7607498,72.2849121 126.3212967,73.7956543 C127.1689529,72.2849121 128.4335938,71.529541 130.1152344,71.529541 C132.5966797,71.529541 133.8374023,73.064209 133.8374023,76.1335449 Z M136.1548004,86.7463379 C138.4448242,83.9572754 139.589859,80.7272949 139.589859,77.0563965 C139.589859,73.392334 138.4414063,70.1247559 136.1445465,67.2536621 L138.2158356,67.2536621 C140.546875,70.0153809 141.7124023,73.286377 141.7124023,77.0666504 C141.7124023,80.8947754 140.543457,84.1213379 138.2055817,86.7463379 Z" style="fill:rgb(117,117,117);stroke:none" clip-path="url(#clip4)" />
<clipPath id="clip5"><path d="M25,191 L199,191 L199,318 L25,318 L25,191 Z" /></clipPath>
<path d="M111.5,195 L29,254 L111.5,313 L194,254 Z" style="fill:rgb(255,255,255);stroke:none" clip-path="url(#clip5)" />
<clipPath id="clip6"><path d="M25,191 L199,191 L199,318 L25,318 L25,191 Z" /></clipPath>
<path d="M111.5,195 L29,254 L111.5,313 L194,254 Z" style="fill:none;stroke:rgb(127,127,127);stroke-width:5" clip-path="url(#clip6)" />
<clipPath id="clip7"><path d="M64,230 L160,230 L160,279 L64,279 L64,230 Z" /></clipPath>
<path d="M75.9353104,239.005127 L72.2414627,239.005127 L72.2414627,250.1530762 L70.2409744,250.1530762 L70.2409744,239.005127 L66.5554276,239.005127 L66.5554276,237.295166 L75.9353104,237.295166 Z M77.3298416,245.645752 C77.3298416,244.1350098 77.7601013,242.9424591 78.6206131,242.0681152 C79.4811249,241.1937561 80.6529236,240.7565918 82.135994,240.7565918 C83.5360565,240.7565918 84.6428299,241.1799316 85.4563065,242.0266113 C86.269783,242.873291 86.6765213,244.0298615 86.6765213,245.4963379 C86.6765213,246.973877 86.2476501,248.1553497 85.3899002,249.0407715 C84.5321503,249.926178 83.3866425,250.3688965 81.9533768,250.3688965 C80.5477753,250.3688965 79.4257889,249.9400177 78.58741,249.0822754 C77.7490311,248.2245178 77.3298416,247.07901 77.3298416,245.645752 Z M79.3137283,245.604248 C79.3137283,246.6114044 79.5586014,247.3972168 80.0483475,247.9616699 C80.5380936,248.526123 81.203537,248.8083496 82.0446854,248.8083496 C83.8099823,248.8083496 84.6926346,247.7209473 84.6926346,245.5461426 C84.6926346,244.4947052 84.465744,243.6936798 84.0119705,243.1430664 C83.558197,242.5924377 82.9024353,242.3171387 82.0446854,242.3171387 C81.1869354,242.3171387 80.5173416,242.6104279 80.0358963,243.1970215 C79.554451,243.7835999 79.3137283,244.5860138 79.3137283,245.604248 Z M103.4939041,241.0720215 L101.9831619,241.088623 L101.9831619,239.154541 L98.7043533,239.154541 L98.7043533,241.4289551 C98.7043533,241.5838928 98.7610779,241.7167053 98.8745193,241.8273926 C98.9879608,241.9380646 99.1221619,241.9934082 99.2771072,241.9934082 L102.9875565,241.9934082 L102.9875565,243.404541 L99.0114822,243.404541 C97.8327713,243.404541 97.2434158,242.8096466 97.2434158,241.619873 L97.2434158,239.154541 L95.6413651,239.154541 C95.2097244,241.500885 93.3752518,243.1610413 90.1379471,244.1350098 L89.2829666,242.873291 C92.2048416,242.0155334 93.8096619,240.7759552 94.0974197,239.154541 L90.6774979,239.154541 L90.6774979,241.088623 L89.1833572,241.088623 L89.1833572,237.7268066 L95.6579666,237.7268066 C95.5638885,237.3449707 95.3674393,236.9022522 95.0686111,236.3986816 L96.6125565,235.9919434 C96.8726501,236.534256 97.0829315,237.1125488 97.2434158,237.7268066 L103.4939041,237.7268066 Z M103.7512283,250.6262207 L88.9592361,250.6262207 L88.9592361,249.1652832 L95.5583572,249.1652832 L95.5583572,246.1604004 L90.5114822,246.1604004 L90.5114822,244.6994629 L102.2404861,244.6994629 L102.2404861,246.1604004 L97.1189041,246.1604004 L97.1189041,249.1652832 L103.7512283,249.1652832 Z M110.5329666,238.3078613 L109.4289627,239.3039551 C108.5712128,238.3963928 107.7439041,237.6216583 106.9470291,236.9797363 L108.0344315,235.9919434 C108.8589783,236.6560059 109.6918182,237.4279785 110.5329666,238.3078613 Z M120.7844315,249.2150879 C120.7844315,249.7850647 120.650238,250.2263947 120.3818436,250.5390625 C120.1134491,250.8517151 119.5310135,251.0080566 118.6345291,251.0080566 C118.3799744,251.0080566 118.01474,250.9997559 117.538826,250.9831543 L116.9743729,249.5388184 L119.0329666,249.5222168 C119.2377167,249.5222168 119.3400955,249.4143066 119.3400955,249.1984863 L119.3400955,238.0007324 L111.089119,238.0007324 L111.089119,236.5895996 L120.7844315,236.5895996 Z M108.4909744,250.9831543 L107.0466385,250.9831543 L107.0466385,239.6442871 L108.4909744,239.6442871 Z M117.5886307,248.0778809 L110.2092361,248.0778809 L110.2092361,239.8684082 L117.5886307,239.8684082 Z M116.1940994,243.3713379 L116.1940994,241.2297363 L111.620369,241.2297363 L111.620369,243.3713379 Z M116.1940994,246.6999512 L116.1940994,244.6994629 L111.620369,244.6994629 L111.620369,246.6999512 Z M138.697525,246.5339355 C138.653244,248.2826233 138.452652,249.4226074 138.0957184,249.9538574 C137.7387848,250.4850922 137.2365875,250.767334 136.5891266,250.8005371 C135.9416656,250.8337402 134.4917908,250.8503418 132.2395172,250.8503418 C131.2655487,250.8503418 130.3330994,250.8392639 129.4421539,250.8171387 C128.5511932,250.7949982 127.8359451,250.7687073 127.2963943,250.7382813 C126.7568436,250.70784 126.4054413,250.651123 126.2421951,250.5681152 C126.078949,250.4851074 125.9253845,250.361969 125.7815018,250.1987305 C125.637619,250.0354767 125.5241776,249.8334961 125.4411697,249.5927734 C125.3581619,249.3520508 125.316658,249.0960999 125.316658,248.8249512 L125.316658,240.2585449 L126.8855057,240.2585449 L126.8855057,242.1262207 L135.7922516,242.1262207 L135.7922516,238.0339355 L124.3620682,238.0339355 L124.3620682,236.5397949 L137.3527985,236.5397949 L137.3527985,243.6120605 L126.8855057,243.6120605 L126.8855057,248.7087402 C126.8855057,249.0352325 127.0376892,249.2261505 127.3420486,249.2814941 C127.6464081,249.3368225 129.8765564,249.364502 134.032486,249.364502 C135.4159393,249.364502 136.2225037,249.3382111 136.4521637,249.2856445 C136.6818085,249.2330627 136.8547363,249.0144806 136.9709625,248.6298828 C137.0871582,248.2452698 137.1591034,247.3584747 137.1867828,245.9694824 Z M147.4133301,239.5114746 C146.1903534,241.9906311 144.9562988,244.0354004 143.7111816,245.645752 C144.6906738,245.3911896 145.7033691,245.0563965 146.7492676,244.6413574 L146.9733887,246.0026855 C145.6508026,246.5671387 143.9685059,247.07901 141.9265137,247.5383301 L141.494873,246.2600098 C142.3968964,245.219635 143.3265839,243.9053497 144.2839355,242.3171387 L141.9431152,242.7736816 L141.5114746,241.5036621 C142.5407715,240.0427246 143.5009003,238.2331543 144.3918457,236.0749512 L145.744873,236.6726074 C145.0088806,238.3825684 144.2341309,239.8601074 143.4206543,241.1052246 C143.9685059,241.0332794 144.5412598,240.9087677 145.138916,240.7316895 C145.5262909,240.0731506 145.8472595,239.4339905 146.1018066,238.814209 Z M156.4445801,242.8981934 L155.5231934,244.0354004 C154.510498,243.2274475 153.1436462,242.3835449 151.4226074,241.5036621 C150.0944824,242.532959 148.6612244,243.3934631 147.1228027,244.0852051 L146.392334,242.7902832 C149.1647949,241.5783691 151.3534393,239.9569397 152.958252,237.9260254 L147.2307129,237.9260254 L147.2307129,236.498291 L154.7263184,236.498291 L154.7263184,237.9260254 C154.0567322,238.9221191 153.3317871,239.7798615 152.5515137,240.4992676 C154.0567322,241.2574005 155.3544159,242.0570374 156.4445801,242.8981934 Z M156.0461426,250.6262207 L146.923584,250.6262207 L146.923584,249.1984863 L150.6589355,249.1984863 L150.6589355,245.7536621 L147.4963379,245.7536621 L147.4963379,244.3425293 L155.2492676,244.3425293 L155.2492676,245.7536621 L152.1530762,245.7536621 L152.1530762,249.1984863 L156.0461426,249.1984863 Z M146.9733887,248.6589355 C145.2523651,249.4890137 143.5009003,250.191803 141.7189941,250.767334 L141.3288574,249.3395996 C142.9945526,248.8249512 144.762619,248.1276855 146.6330566,247.2478027 Z" style="fill:rgb(89,89,89);stroke:none" clip-path="url(#clip7)" />
<clipPath id="clip8"><path d="M64,230 L160,230 L160,279 L64,279 L64,230 Z" /></clipPath>
<path d="M72.316658,258.1994629 C72.1949158,258.7141113 71.9984589,259.3809204 71.7273026,260.1999512 L71.3288651,261.3620605 L71.3288651,272.916748 L69.7849197,272.916748 L69.7849197,264.6408691 C69.5635681,265.0780334 69.2564392,265.5484009 68.863533,266.052002 L68.0500565,264.3669434 C69.1180878,262.8617249 70.042244,260.7201233 70.8225174,257.9421387 Z M83.1989822,271.4890137 L82.601326,272.8835449 C79.9727478,272.6123657 77.8975525,272.0534668 76.3757401,271.2067871 C75.2966385,272.0700684 74.0570526,272.6870728 72.6569901,273.0578613 L71.9265213,271.7297363 C73.249115,271.3700256 74.2977753,270.9107056 75.0725174,270.3518066 C74.3807831,269.7485962 73.7692947,269.0873108 73.2380447,268.3679199 L74.4914627,267.6291504 C74.9230957,268.2323303 75.4322205,268.7774048 76.0188065,269.2644043 C76.3951111,268.7884827 76.6109314,268.1022949 76.6662674,267.2058105 L72.773201,267.2058105 L72.773201,262.4992676 L76.7160721,262.4992676 L76.7160721,261.0881348 L72.2336502,261.0881348 L72.2336502,259.677002 L76.7160721,259.677002 L76.7160721,258.0749512 L78.2351151,258.0749512 L78.2351151,259.677002 L82.7175369,259.677002 L82.7175369,261.0881348 L78.2351151,261.0881348 L78.2351151,262.4992676 L82.1613846,262.4992676 L82.1613846,267.2058105 L78.1853104,267.2058105 C78.1023026,268.3347168 77.8117752,269.2976074 77.3137283,270.0944824 C79.0236893,270.863678 80.9854431,271.3285217 83.1989822,271.4890137 Z M80.6506424,265.8112793 L80.6506424,263.8937988 L78.2683182,263.8937988 C78.2683182,264.4969788 78.2572479,265.1361389 78.2351151,265.8112793 Z M76.7160721,263.8937988 L74.3254471,263.8937988 L74.3254471,265.8112793 L76.6994705,265.8112793 C76.7326736,265.1914673 76.738205,264.5523071 76.7160721,263.8937988 Z M99.6345291,271.2233887 C99.6345291,271.6826782 99.4685135,272.0838928 99.1364822,272.427002 C98.804451,272.7700806 98.2206268,272.9416504 97.3850174,272.9416504 C97.0031815,272.9416504 96.6075134,272.9277954 96.1980057,272.9001465 L95.7414627,271.4060059 L97.6423416,271.3894043 C97.7751541,271.3894043 97.8941345,271.3326721 97.9992752,271.2192383 C98.1044159,271.1057739 98.1569901,270.982666 98.1569901,270.8498535 L98.1569901,267.7868652 L93.9733963,267.7868652 L93.9733963,272.5432129 L92.5290604,272.5432129 L92.5290604,267.7868652 L88.4118729,267.7868652 C88.2237244,269.9727173 87.7201385,271.7131348 86.9011307,273.0080566 L85.5564041,272.1364746 C86.0323181,271.4281311 86.4003143,270.4915161 86.660408,269.3266602 C86.9205017,268.1617737 87.0505447,267.0480957 87.0505447,265.9855957 L87.0505447,258.4567871 L99.6345291,258.4567871 Z M98.1569901,262.3996582 L98.1569901,259.9343262 L93.9733963,259.9343262 L93.9733963,262.3996582 Z M92.5290604,262.3996582 L92.5290604,259.9343262 L88.5612869,259.9343262 L88.5612869,262.3996582 Z M98.1569901,266.3591309 L98.1569901,263.810791 L93.9733963,263.810791 L93.9733963,266.3591309 Z M92.5290604,266.3591309 L92.5290604,263.810791 L88.5612869,263.810791 L88.5612869,266.3591309 Z M110.948494,270.260498 L110.948494,272.0700684 L103.0378494,272.0700684 L103.0378494,271.3312988 C103.0378494,270.4790649 103.2536697,269.6808167 103.6853104,268.9365234 C104.116951,268.1921997 104.7810135,267.4824829 105.6774979,266.807373 C106.7565994,265.9828186 107.4870682,265.3754883 107.8689041,264.9853516 C108.2507401,264.5952148 108.5301971,264.2202759 108.707283,263.8605957 C108.8843689,263.500885 108.972908,263.1273499 108.972908,262.7399902 C108.972908,262.1201782 108.7529373,261.6276855 108.3129959,261.2624512 C107.8730545,260.8972168 107.2546463,260.7145996 106.4577713,260.7145996 C105.445076,260.7145996 104.4987869,261.035553 103.6189041,261.6774902 L103.6189041,259.9841309 C104.6703339,259.325592 105.8241425,258.9963379 107.0803299,258.9963379 C108.2645721,258.9963379 109.2011795,259.3145142 109.8901443,259.9509277 C110.5791092,260.5873108 110.9235916,261.450592 110.9235916,262.5407715 C110.9235916,263.160553 110.8198318,263.7236328 110.6123123,264.2299805 C110.4047928,264.7363281 110.111496,265.2080688 109.7324295,265.6452637 C109.353363,266.082428 108.687912,266.657959 107.7360916,267.3718262 C106.9392166,267.9584045 106.4010468,268.3858948 106.1215897,268.6542969 C105.8421326,268.9226685 105.6193924,269.1896973 105.4533768,269.4553223 C105.2873611,269.7209473 105.2043533,269.9893188 105.2043533,270.260498 Z M114.0114822,270.0778809 C114.8138885,270.4652405 115.6522675,270.6589355 116.526619,270.6589355 C117.3954315,270.6589355 118.080246,270.4431152 118.5810623,270.0114746 C119.0818787,269.579834 119.332283,268.9932251 119.332283,268.251709 C119.332283,266.6856079 118.2946854,265.9025879 116.2194901,265.9025879 C115.5775604,265.9025879 114.9162674,265.9385376 114.2356033,266.010498 C114.2688065,265.4128418 114.3047791,264.8386841 114.3435135,264.2880859 C114.3822479,263.7374573 114.42099,263.1826782 114.4597244,262.6237793 C114.4984589,262.0648499 114.5372009,261.5045471 114.5759354,260.9428711 C114.6146698,260.3811646 114.6534119,259.8042603 114.6921463,259.2121582 L120.851326,259.2121582 L120.851326,260.9968262 L116.1862869,260.9968262 L115.9704666,264.3337402 C116.7064667,264.267334 117.2543182,264.2341309 117.6140213,264.2341309 C118.7761307,264.2341309 119.6892166,264.5689087 120.3532791,265.2385254 C121.0339432,265.8859863 121.3742752,266.7935181 121.3742752,267.9611816 C121.3742752,269.2450256 120.9620056,270.2826233 120.1374588,271.0739746 C119.312912,271.881897 118.1923065,272.2858887 116.7756424,272.2858887 C115.7131424,272.2858887 114.7917557,272.1309204 114.0114822,271.8210449 Z M123.6237869,262.4743652 C123.6237869,261.406311 123.9101639,260.5651855 124.4829178,259.9509277 C125.0556717,259.3366699 125.8179626,259.029541 126.769783,259.029541 C127.7050018,259.029541 128.4285583,259.3172913 128.9404449,259.8928223 C129.4523163,260.4683228 129.7082672,261.2596741 129.7082672,262.2668457 C129.7082672,263.2905884 129.4218903,264.1165161 128.8491364,264.7446289 C128.2763824,265.3727112 127.5168533,265.6867676 126.5705643,265.6867676 C125.6796112,265.6867676 124.965744,265.3934631 124.4289627,264.8068848 C123.8921814,264.2202759 123.6237869,263.4427795 123.6237869,262.4743652 Z M125.0681229,262.3913574 C125.0681229,263.0664673 125.2092361,263.5838928 125.4914627,263.9436035 C125.7736893,264.3032837 126.1665955,264.4831543 126.6701736,264.4831543 C127.7437439,264.4831543 128.2805328,263.7609863 128.2805328,262.3166504 C128.2805328,260.9165649 127.7603455,260.2165527 126.7199783,260.2165527 C126.1942596,260.2165527 125.7875214,260.4060669 125.4997635,260.7851563 C125.2120056,261.1642151 125.0681229,261.6996155 125.0681229,262.3913574 Z M135.4524078,259.2121582 L127.1682205,272.1281738 L125.5661697,272.1281738 L133.8503571,259.2121582 Z M131.4016266,269.048584 C131.4016266,267.9916077 131.6893768,267.1504517 132.2649078,266.5251465 C132.8404236,265.8998108 133.6013336,265.5871582 134.5476227,265.5871582 C135.4828339,265.5871582 136.2063904,265.8762817 136.718277,266.4545898 C137.2301483,267.0328674 137.4860992,267.8311157 137.4860992,268.8493652 C137.4860992,269.8675842 137.1983337,270.6907349 136.622818,271.3188477 C136.047287,271.9469299 135.2919159,272.2609863 134.3567047,272.2609863 C133.4546814,272.2609863 132.7366638,271.9621582 132.202652,271.364502 C131.6686249,270.7668457 131.4016266,269.994873 131.4016266,269.048584 Z M132.8376617,268.973877 C132.8376617,269.6434631 132.9801483,270.1581116 133.265152,270.5178223 C133.5501404,270.8775024 133.9444275,271.057373 134.4480133,271.057373 C135.5215759,271.057373 136.0583649,270.3352051 136.0583649,268.8908691 C136.0583649,268.2212524 135.9186249,267.7052307 135.6391754,267.3427734 C135.3597107,266.9802856 134.9764862,266.7990723 134.4895172,266.7990723 C133.3882751,266.7990723 132.8376617,267.5239868 132.8376617,268.973877 Z M147.579834,268.401123 L145.911377,268.401123 L145.911377,267.6706543 C145.911377,267.0951233 146.0262146,266.5915527 146.2558594,266.1599121 C146.4855194,265.7282715 146.8881073,265.2910767 147.463623,264.8483887 C148.0944824,264.3447876 148.5150604,263.9117737 148.7253418,263.5493164 C148.9356384,263.1868286 149.0407715,262.7925415 149.0407715,262.3664551 C149.0407715,261.862854 148.8581543,261.4478149 148.4929199,261.1213379 C148.1276855,260.7948303 147.6324158,260.6315918 147.0070801,260.6315918 C145.9722595,260.6315918 145.0314941,261.0272522 144.1848145,261.8186035 L144.1848145,259.8679199 C145.1311035,259.2979126 146.1548767,259.0129395 147.2561035,259.0129395 C148.4016113,259.0129395 149.3036346,259.3006897 149.9621582,259.8762207 C150.620697,260.4517212 150.9499512,261.2070923 150.9499512,262.142334 C150.9499512,262.7731934 150.8005371,263.3556213 150.501709,263.8896484 C150.2028809,264.423645 149.6993103,264.9812012 148.9909668,265.5622559 C148.4818573,265.9772949 148.1193848,266.3203735 147.9035645,266.5915527 C147.6877441,266.8627014 147.579834,267.2556152 147.579834,267.7702637 Z M146.7497559,269.9782715 C147.0817871,269.9782715 147.3654022,270.0889282 147.6005859,270.3103027 C147.8357849,270.5316467 147.9533691,270.8055725 147.9533691,271.1320801 C147.9533691,271.4585571 147.8385468,271.7311096 147.6088867,271.949707 C147.3792419,272.1682739 147.092865,272.2775879 146.7497559,272.2775879 C146.4122009,272.2775879 146.125824,272.1669006 145.890625,271.9455566 C145.6554413,271.7241821 145.5378418,271.4530334 145.5378418,271.1320801 C145.5378418,270.8055725 145.6582031,270.5316467 145.8989258,270.3103027 C146.1396484,270.0889282 146.4232635,269.9782715 146.7497559,269.9782715 Z" style="fill:rgb(89,89,89);stroke:none" clip-path="url(#clip8)" />
<clipPath id="clip9"><path d="M57,382 L180,382 L180,431 L57,431 L57,382 Z" /></clipPath>
<path d="M68,385 C63.5817184,385 60,388.5817261 60,393 L60,419 C60,423.4182739 63.5817184,427 68,427 L168,427 C172.4182739,427 176,423.4182739 176,419 L176,393 C176,388.5817261 172.4182739,385 168,385 Z" style="fill:none;stroke:rgb(127,127,127);stroke-width:4" clip-path="url(#clip9)" />
<clipPath id="clip10"><path d="M73,393 L164,393 L164,420 L73,420 L73,393 Z" /></clipPath>
<path d="M90.6115799,405.7114258 L85.4235916,405.7114258 C84.3057556,406.5857544 82.9859314,407.4075317 81.464119,408.1767578 L81.464119,408.284668 L88.179451,408.284668 L88.179451,409.6875 L81.464119,409.6875 L81.464119,411.9038086 C81.464119,412.003418 81.4931717,412.0891724 81.5512772,412.1611328 C81.6093826,412.2330627 81.6730194,412.2773438 81.7421951,412.2939453 C81.8113708,412.3105469 82.2706757,412.3285217 83.1201248,412.3479004 C83.969574,412.3672485 84.7180252,412.3769531 85.3654861,412.3769531 C86.6936111,412.3769531 87.5638123,412.3562012 87.9760818,412.3146973 C88.3883514,412.2731934 88.6332245,412.0227661 88.710701,411.5634766 C88.7881775,411.1041565 88.8269119,410.6282349 88.8269119,410.1357422 L90.3376541,410.7998047 C90.2159119,412.0006409 90.0083923,412.7629395 89.7150955,413.0866699 C89.4217987,413.4104004 89.0704041,413.606842 88.6608963,413.6760254 C88.2513885,413.7451782 87.1197205,413.7797852 85.2658768,413.7797852 C83.3511658,413.7797852 82.1184998,413.7617798 81.5678787,413.7258301 C81.0172577,413.6898499 80.6105194,413.532135 80.3476639,413.2526855 C80.0848083,412.9732056 79.9533768,412.6204224 79.9533768,412.1943359 L79.9533768,408.9072266 C78.8853455,409.4273987 77.7675018,409.9033203 76.5998611,410.3349609 L75.769783,409.0649414 C78.8466034,407.9526367 81.2787323,406.8347778 83.0661697,405.7114258 L75.885994,405.7114258 L75.885994,404.3500977 L81.4973221,404.3500977 L81.4973221,402.3330078 L76.8903885,402.3330078 L76.8903885,400.9882813 L81.4973221,400.9882813 L81.4973221,399.1040039 L83.0080643,399.1040039 L83.0080643,400.9882813 L86.6687088,400.9882813 L86.6687088,402.3330078 L83.0080643,402.3330078 L83.0080643,404.3500977 L85.0168533,404.3500977 C86.5165253,403.1547852 87.9387283,401.5693359 89.2834549,399.59375 L90.495369,400.4238281 C89.4605408,401.9345703 88.3482361,403.2433167 87.1584549,404.3500977 L90.6115799,404.3500977 Z M108.101326,413.480957 L93.3591385,413.480957 L93.3591385,411.9868164 L100.2155838,411.9868164 L100.2155838,408.2763672 L95.0607986,408.2763672 L95.0607986,406.7822266 L100.2155838,406.7822266 L100.2155838,403.5366211 L96.4055252,403.5366211 C95.7801971,404.6212463 95.0884705,405.5509338 94.3303299,406.3256836 L93.1765213,405.2216797 C94.7204666,403.6389771 95.7552948,401.6938477 96.2810135,399.3862305 L97.8000565,399.7431641 C97.606369,400.4680786 97.3739471,401.2345276 97.1027908,402.0424805 L100.2155838,402.0424805 L100.2155838,399.0625 L101.7761307,399.0625 L101.7761307,402.0424805 L107.8772049,402.0424805 L107.8772049,403.5366211 L101.7761307,403.5366211 L101.7761307,406.7822266 L107.1799393,406.7822266 L107.1799393,408.2763672 L101.7761307,408.2763672 L101.7761307,411.9868164 L108.101326,411.9868164 Z M115.4392166,399.2866211 C115.217865,399.9562073 115.0297089,400.5040588 114.8747635,400.9301758 L114.3352127,402.3164063 L114.3352127,413.8710938 L112.8244705,413.8710938 L112.8244705,405.1884766 C112.6031189,405.5592346 112.2102127,406.1015625 111.6457596,406.8154297 L110.8654861,405.1884766 C112.2046814,403.4674377 113.2256775,401.3701172 113.9284744,398.8964844 Z M125.6906815,404.3500977 L119.9133377,404.9311523 C120.1070251,407.3494263 120.5981522,409.2019043 121.3867264,410.4885254 C122.1753006,411.7751465 122.7798767,412.418457 123.2004471,412.418457 C123.6929626,412.418457 124.0083923,411.4472656 124.1467361,409.5048828 L125.6242752,410.2353516 C125.3641815,412.8141174 124.589447,414.1034851 123.3000565,414.1035156 C122.3482361,414.1034851 121.361824,413.3578186 120.3408279,411.8664551 C119.3198318,410.375061 118.6488495,408.1075745 118.3278885,405.0639648 L115.0324783,405.3876953 L114.9660721,403.9267578 L118.2116776,403.6196289 C118.1231384,402.352356 118.0899353,400.8277893 118.1120682,399.0458984 L119.6228104,399.0458984 C119.6228104,400.9384766 119.6670837,402.4132385 119.7556229,403.4702148 L125.6408768,402.9057617 Z M124.6032791,401.7685547 L123.3581619,402.7563477 C122.7605057,401.8598633 121.9857635,401.0325317 121.0339432,400.2744141 L122.2043533,399.3032227 C123.1727753,400.0724182 123.9724197,400.8941956 124.6032791,401.7685547 Z M142.9396973,403.9765625 L141.4289551,403.9931641 L141.4289551,402.059082 L138.1501617,402.059082 L138.1501617,404.3334961 C138.1501617,404.4884338 138.2068787,404.6212463 138.3203278,404.7319336 C138.4337616,404.8425903 138.5679626,404.8979492 138.7229156,404.8979492 L142.4333496,404.8979492 L142.4333496,406.309082 L138.4572906,406.309082 C137.2785797,406.309082 136.6892242,405.7141724 136.6892242,404.5244141 L136.6892242,402.059082 L135.0871735,402.059082 C134.6555328,404.405426 132.8210449,406.0655823 129.5837555,407.0395508 L128.728775,405.777832 C131.65065,404.9200745 133.2554626,403.680481 133.5432281,402.059082 L130.1233063,402.059082 L130.1233063,403.9931641 L128.6291656,403.9931641 L128.6291656,400.6313477 L135.103775,400.6313477 C135.0096893,400.2495117 134.8132477,399.8067932 134.5144196,399.3032227 L136.0583649,398.8964844 C136.3184509,399.4387817 136.5287323,400.0170898 136.6892242,400.6313477 L142.9396973,400.6313477 Z M143.1970215,413.5307617 L128.4050446,413.5307617 L128.4050446,412.0698242 L135.0041656,412.0698242 L135.0041656,409.0649414 L129.9572906,409.0649414 L129.9572906,407.6040039 L141.6862793,407.6040039 L141.6862793,409.0649414 L136.5647125,409.0649414 L136.5647125,412.0698242 L143.1970215,412.0698242 Z M149.9787598,401.2124023 L148.8747559,402.2084961 C148.0170135,401.3009338 147.1896973,400.5261841 146.3928223,399.8842773 L147.4802246,398.8964844 C148.3047791,399.5605469 149.137619,400.3325195 149.9787598,401.2124023 Z M160.2302246,412.1196289 C160.2302246,412.6896057 160.0960388,413.1309204 159.8276367,413.4436035 C159.5592499,413.7562561 158.9768066,413.9125977 158.0803223,413.9125977 C157.8257751,413.9125977 157.4605408,413.9042969 156.9846191,413.8876953 L156.420166,412.4433594 L158.4787598,412.4267578 C158.6835175,412.4267578 158.7858887,412.3188477 158.7858887,412.1030273 L158.7858887,400.9052734 L150.5349121,400.9052734 L150.5349121,399.4941406 L160.2302246,399.4941406 Z M147.9367676,413.8876953 L146.4924316,413.8876953 L146.4924316,402.5488281 L147.9367676,402.5488281 Z M157.0344238,410.9824219 L149.6550293,410.9824219 L149.6550293,402.7729492 L157.0344238,402.7729492 Z M155.6398926,406.2758789 L155.6398926,404.1342773 L151.0661621,404.1342773 L151.0661621,406.2758789 Z M155.6398926,409.6044922 L155.6398926,407.6040039 L151.0661621,407.6040039 L151.0661621,409.6044922 Z" style="fill:rgb(89,89,89);stroke:none" clip-path="url(#clip10)" />
<clipPath id="clip11"><path d="M364,221 L493,221 L493,292 L364,292 L364,221 Z" /></clipPath>
<path d="M375,224 C370.5817261,224 367,227.5817261 367,232 L367,280 C367,284.4182739 370.5817261,288 375,288 L481,288 C485.4182739,288 489,284.4182739 489,280 L489,232 C489,227.5817261 485.4182739,224 481,224 Z" style="fill:none;stroke:rgb(127,127,127);stroke-width:4" clip-path="url(#clip11)" />
<clipPath id="clip12"><path d="M380,232 L477,232 L477,281 L380,281 L380,232 Z" /></clipPath>
<path d="M383.248291,247.986084 C384.1060181,248.5671387 384.9969788,248.857666 385.9211426,248.857666 C387.1385803,248.857666 387.7473145,248.4813538 387.7473145,247.7287598 C387.7473145,247.4133301 387.6200256,247.1546173 387.3654785,246.9526367 C387.1109009,246.7506409 386.538147,246.4836426 385.6472168,246.1516113 C384.7119751,245.7919006 384.0811157,245.4086914 383.7546387,245.0019531 C383.4281311,244.5952148 383.2648926,244.0847168 383.2648926,243.470459 C383.2648926,242.6237793 383.6190491,241.9541779 384.3273926,241.4616699 C385.0357056,240.9691467 385.9128418,240.7229004 386.9587402,240.7229004 C387.7611389,240.7229004 388.5109863,240.8557129 389.208252,241.1213379 L389.208252,242.8479004 C388.5109863,242.4162598 387.7307129,242.2004395 386.8674316,242.2004395 C386.3749084,242.2004395 385.9764709,242.3028107 385.6721191,242.5075684 C385.3677368,242.7123108 385.2155762,242.9807129 385.2155762,243.3127441 C385.2155762,243.6392365 385.3276367,243.8965607 385.5517578,244.0847168 C385.7758484,244.2728577 386.2919006,244.5218811 387.0998535,244.8317871 C388.0959473,245.1970215 388.7752075,245.5857697 389.1376953,245.9980469 C389.5001526,246.4103088 389.6813965,246.923584 389.6813965,247.5378418 C389.6813965,248.4066467 389.3272095,249.0900879 388.6188965,249.5881348 C387.910553,250.0861664 386.9808655,250.3352051 385.829834,250.3352051 C384.8447876,250.3352051 383.9842834,250.1636505 383.248291,249.8205566 Z M399.6340332,246.052002 L393.3254395,246.052002 C393.4084473,247.905838 394.3519592,248.8327637 396.1560059,248.8327637 C397.1742249,248.8327637 398.1011353,248.5283966 398.9367676,247.9196777 L398.9367676,249.5300293 C398.1177368,250.066803 397.0414124,250.3352051 395.7077637,250.3352051 C394.3464355,250.3352051 393.2811584,249.9201508 392.5119629,249.0900879 C391.7427368,248.2600098 391.3581543,247.0979004 391.3581543,245.6037598 C391.3581543,244.187088 391.7717896,243.0194397 392.5991211,242.1008301 C393.4264221,241.1822052 394.4626465,240.7229004 395.7077637,240.7229004 C396.9473267,240.7229004 397.9115906,241.1144104 398.6005859,241.8974609 C399.2895508,242.6804962 399.6340332,243.7582092 399.6340332,245.1306152 Z M397.7414551,244.6325684 C397.7359009,243.846756 397.5560608,243.2435608 397.2019043,242.822998 C396.8477173,242.40242 396.3441467,242.1921387 395.6911621,242.1921387 C395.0990295,242.1921387 394.5843811,242.4148712 394.1472168,242.8603516 C393.710022,243.3058167 393.4388733,243.8965607 393.3337402,244.6325684 Z M415.5383301,250.1193848 L413.5876465,250.1193848 L413.5876465,244.8566895 C413.5876465,243.9491272 413.440979,243.2933655 413.1477051,242.8894043 C412.8544006,242.4854279 412.3867798,242.2834473 411.744873,242.2834473 C411.1914673,242.2834473 410.7155762,242.5379944 410.3171387,243.0471191 C409.9187012,243.5562286 409.7194824,244.1787872 409.7194824,244.9147949 L409.7194824,250.1193848 L407.7770996,250.1193848 L407.7770996,244.723877 C407.7770691,243.0969238 407.1545105,242.2834473 405.9094238,242.2834473 C405.3338928,242.2834473 404.8565979,242.5296936 404.4775391,243.0222168 C404.0984497,243.5147247 403.9089355,244.151123 403.9089355,244.9313965 L403.9089355,250.1193848 L401.958252,250.1193848 L401.958252,240.9387207 L403.9089355,240.9387207 L403.9089355,242.3830566 L403.9504395,242.3830566 C404.6089478,241.2762756 405.5718384,240.7229004 406.8391113,240.7229004 C408.128479,240.7229004 409.000061,241.3343811 409.4538574,242.557373 C410.1400452,241.3343811 411.1638184,240.7229004 412.5251465,240.7229004 C414.5339355,240.7229004 415.5383301,241.9652405 415.5383301,244.4499512 Z M418.3937988,237.7844238 C418.3937988,237.4579163 418.5058594,237.1881409 418.7299805,236.9750977 C418.954071,236.7620392 419.2377014,236.6555176 419.5808105,236.6555176 C419.9183655,236.6555176 420.2033691,236.7620392 420.435791,236.9750977 C420.6681824,237.1881409 420.7843933,237.4579163 420.7844238,237.7844238 C420.7843933,238.1109161 420.6681824,238.3806915 420.435791,238.59375 C420.2033691,238.8067932 419.9183655,238.9133301 419.5808105,238.9133301 C419.2432251,238.9133301 418.9609985,238.8054199 418.7341309,238.5895996 C418.5072327,238.3737793 418.3937988,238.1053772 418.3937988,237.7844238 Z M418.5847168,250.1193848 L418.5847168,240.9387207 L420.5354004,240.9387207 L420.5354004,250.1193848 Z M427.3669434,247.986084 C428.2246704,248.5671387 429.1156311,248.857666 430.0397949,248.857666 C431.2572327,248.857666 431.8659668,248.4813538 431.8659668,247.7287598 C431.8659668,247.4133301 431.738678,247.1546173 431.4841309,246.9526367 C431.2295532,246.7506409 430.6567993,246.4836426 429.7658691,246.1516113 C428.8306274,245.7919006 428.1997681,245.4086914 427.873291,245.0019531 C427.5467834,244.5952148 427.3835449,244.0847168 427.3835449,243.470459 C427.3835449,242.6237793 427.7377014,241.9541779 428.4460449,241.4616699 C429.1543579,240.9691467 430.0314941,240.7229004 431.0773926,240.7229004 C431.8797913,240.7229004 432.6296387,240.8557129 433.3269043,241.1213379 L433.3269043,242.8479004 C432.6296387,242.4162598 431.8493652,242.2004395 430.986084,242.2004395 C430.4935608,242.2004395 430.0951233,242.3028107 429.7907715,242.5075684 C429.4863892,242.7123108 429.3342285,242.9807129 429.3342285,243.3127441 C429.3342285,243.6392365 429.4462891,243.8965607 429.6704102,244.0847168 C429.8945007,244.2728577 430.410553,244.5218811 431.2185059,244.8317871 C432.2145996,245.1970215 432.8938599,245.5857697 433.2563477,245.9980469 C433.6188049,246.4103088 433.8000488,246.923584 433.8000488,247.5378418 C433.8000488,248.4066467 433.4458618,249.0900879 432.7375488,249.5881348 C432.0292053,250.0861664 431.0995178,250.3352051 429.9484863,250.3352051 C428.9634399,250.3352051 428.1029358,250.1636505 427.3669434,249.8205566 Z M438.0168457,248.8825684 L438.0168457,254.3444824 L436.0661621,254.3444824 L436.0661621,240.9387207 L438.0168457,240.9387207 L438.0168457,242.4660645 L438.0583496,242.4660645 C438.7666626,241.3039551 439.7959595,240.7229004 441.1462402,240.7229004 C442.3138733,240.7229004 443.2324829,241.131012 443.9020996,241.9472656 C444.5716858,242.763504 444.9064941,243.8688965 444.9064941,245.2634277 C444.9064941,246.7962952 444.5274048,248.0248108 443.7692871,248.9489746 C443.0111389,249.8731232 441.9956665,250.3352051 440.7229004,250.3352051 C439.560791,250.3352051 438.6726074,249.8509827 438.0583496,248.8825684 Z M438.0002441,246.2512207 C438.0002136,246.9650879 438.2215881,247.5641174 438.6643066,248.0483398 C439.1069946,248.532547 439.6659241,248.7746582 440.3410645,248.7746582 C441.1545105,248.7746582 441.7853699,248.4633789 442.2336426,247.8408203 C442.6818542,247.2182617 442.9059753,246.3563538 442.9060059,245.255127 C442.9059753,244.3088379 442.6984558,243.5769806 442.2834473,243.0595703 C441.8683777,242.5421448 441.287323,242.2834473 440.5402832,242.2834473 C439.7932129,242.2834473 439.1831055,242.5545959 438.7099609,243.0969238 C438.2367859,243.6392365 438.0002136,244.3254395 438.0002441,245.1555176 Z M447.6208496,241.5529785 C448.5560608,240.999588 449.6379395,240.7229004 450.8664551,240.7229004 C453.1851196,240.7229004 454.3444824,241.9209747 454.3444824,244.3171387 L454.3444824,250.1193848 L452.4519043,250.1193848 L452.4519043,248.7248535 L452.4104004,248.7248535 C451.7850647,249.7984161 450.8553772,250.3352051 449.6213379,250.3352051 C448.7192993,250.3352051 448.0095825,250.0917053 447.4921875,249.6047363 C446.974762,249.1177521 446.7160645,248.4619904 446.7160645,247.6374512 C446.7160645,245.9108887 447.7425842,244.903717 449.7956543,244.6159668 L452.4602051,244.2507324 C452.4602051,242.8838654 451.8597717,242.2004395 450.6589355,242.2004395 C449.5576782,242.2004395 448.5449829,242.557373 447.6208496,243.2712402 Z M450.4348145,245.8527832 C449.770752,245.9413147 449.3017578,246.1101074 449.027832,246.3591309 C448.7539063,246.6081543 448.6169434,246.9733887 448.6169434,247.454834 C448.6169434,247.8587952 448.7635803,248.1894531 449.0568848,248.4467773 C449.3501587,248.7041016 449.7264709,248.8327637 450.185791,248.8327637 C450.8387756,248.8327637 451.3811035,248.6017151 451.8127441,248.1396484 C452.2443848,247.6775665 452.4602051,247.0951233 452.4602051,246.392334 L452.4602051,245.5788574 Z M463.7160645,249.729248 C463.0409241,250.1332092 462.1748657,250.3352051 461.1179199,250.3352051 C459.778717,250.3352051 458.6940918,249.91185 457.8640137,249.0651855 C457.0339355,248.2185059 456.6188965,247.1117249 456.6188965,245.744873 C456.6188965,244.2119904 457.0643616,242.9917755 457.9553223,242.0842285 C458.8462524,241.1766663 460.0332642,240.7229004 461.5163574,240.7229004 C462.4294434,240.7229004 463.1682129,240.8695374 463.732666,241.1628418 L463.732666,242.9890137 C463.0796509,242.518631 462.3740845,242.2834473 461.6159668,242.2834473 C460.7194824,242.2834473 459.9931641,242.5836487 459.4370117,243.184082 C458.8808594,243.7845001 458.6027832,244.5910645 458.6027832,245.6037598 C458.6027832,246.5943146 458.8670044,247.3704376 459.3955078,247.9321289 C459.9239807,248.4938049 460.6336975,248.7746582 461.5246582,248.7746582 C462.2993774,248.7746582 463.0298462,248.5256348 463.7160645,248.0275879 Z M473.751709,246.052002 L467.4431152,246.052002 C467.526123,247.905838 468.469635,248.8327637 470.2736816,248.8327637 C471.2919006,248.8327637 472.218811,248.5283966 473.0544434,247.9196777 L473.0544434,249.5300293 C472.2354126,250.066803 471.1590881,250.3352051 469.8254395,250.3352051 C468.4641113,250.3352051 467.3988342,249.9201508 466.6296387,249.0900879 C465.8604126,248.2600098 465.4758301,247.0979004 465.4758301,245.6037598 C465.4758301,244.187088 465.8894653,243.0194397 466.7167969,242.1008301 C467.5440979,241.1822052 468.5803223,240.7229004 469.8254395,240.7229004 C471.0650024,240.7229004 472.0292664,241.1144104 472.7182617,241.8974609 C473.4072266,242.6804962 473.751709,243.7582092 473.751709,245.1306152 Z M471.8591309,244.6325684 C471.8535767,243.846756 471.6737366,243.2435608 471.3195801,242.822998 C470.9653931,242.40242 470.4618225,242.1921387 469.8088379,242.1921387 C469.2167053,242.1921387 468.7020569,242.4148712 468.2648926,242.8603516 C467.8276978,243.3058167 467.5565491,243.8965607 467.451416,244.6325684 Z" style="fill:rgb(89,89,89);stroke:none" clip-path="url(#clip12)" />
<clipPath id="clip13"><path d="M380,232 L477,232 L477,281 L380,281 L380,232 Z" /></clipPath>
<path d="M415.7666016,275.3898926 C413.890625,273.2704163 412.9526367,270.6584473 412.9526367,267.5539551 C412.9526367,264.4881897 413.890625,261.8402405 415.7666016,259.6101074 L417.4350586,259.6101074 C415.586731,261.9232483 414.6625977,264.5684204 414.6625977,267.5456543 C414.6625977,270.5062561 415.586731,273.1210022 417.4350586,275.3898926 Z M427.5039063,261.3200684 L423.8100586,261.3200684 L423.8100586,272.4680176 L421.8095703,272.4680176 L421.8095703,261.3200684 L418.1240234,261.3200684 L418.1240234,259.6101074 L427.5039063,259.6101074 Z M428.8984375,267.9606934 C428.8984375,266.4499512 429.3286743,265.2573853 430.189209,264.3830566 C431.0497131,263.5086975 432.2214966,263.0715332 433.7045898,263.0715332 C435.1046448,263.0715332 436.2113953,263.494873 437.0249023,264.3415527 C437.8383789,265.1882324 438.2451172,266.3447876 438.2451172,267.8112793 C438.2451172,269.2888184 437.8162231,270.4702759 436.9584961,271.3557129 C436.1007385,272.2411194 434.9552307,272.6838379 433.5219727,272.6838379 C432.1163635,272.6838379 430.9943848,272.2549438 430.1560059,271.3972168 C429.317627,270.5394592 428.8984375,269.3939514 428.8984375,267.9606934 Z M430.8823242,267.9191895 C430.8823242,268.9263306 431.1271973,269.7121582 431.6169434,270.2766113 C432.1066895,270.8410645 432.7721252,271.123291 433.6132813,271.123291 C435.3785706,271.123291 436.2612305,270.0358887 436.2612305,267.861084 C436.2612305,266.8096313 436.0343323,266.008606 435.5805664,265.4580078 C435.12677,264.9073792 434.4710083,264.6320801 433.6132813,264.6320801 C432.7555237,264.6320801 432.0859375,264.925354 431.6044922,265.5119629 C431.1230469,266.0985413 430.8823242,266.9009399 430.8823242,267.9191895 Z M439.5483398,275.3898926 C441.4021606,273.1320801 442.3291016,270.517334 442.3291016,267.5456543 C442.3291016,264.5794983 441.3993835,261.9343262 439.5400391,259.6101074 L441.2167969,259.6101074 C443.1038208,261.8457642 444.0473633,264.4937134 444.0473633,267.5539551 C444.0473633,270.6528931 443.1010742,273.2648926 441.2084961,275.3898926 Z" style="fill:rgb(89,89,89);stroke:none" clip-path="url(#clip13)" />
<clipPath id="clip14"><path d="M187,241 L271,241 L271,268 L187,268 L187,241 Z" /></clipPath>
<path d="M193.2774048,254.5167542 L367,255.6139221" style="fill:none;stroke:rgb(127,127,127);stroke-width:5" clip-path="url(#clip14)" />
<clipPath id="clip15"><path d="M289,241 L373,241 L373,268 L289,268 L289,241 Z" /></clipPath>
<path d="M193.2774048,254.5167542 L367,255.6139221" style="fill:none;stroke:rgb(127,127,127);stroke-width:5" clip-path="url(#clip15)" />
<clipPath id="clip16"><path d="M269,241 L291,241 L291,268 L269,268 L269,241 Z" /></clipPath>
<path d="M193.2774048,254.5167542 L367,255.6139221" style="fill:none;stroke:rgb(127,127,127);opacity:0.09803921568627451;stroke-width:5" clip-path="url(#clip16)" />
<clipPath id="clip17"><path d="M187,241 L373,241 L373,268 L187,268 L187,241 Z" /></clipPath>
<path d="M354.831665,262.5372314 L367,255.6139221 L354.920105,248.5374908 Z" style="fill:rgb(127,127,127);stroke:none" clip-path="url(#clip17)" />
<clipPath id="clip18"><path d="M187,241 L373,241 L373,268 L187,268 L187,241 Z" /></clipPath>
<path d="M354.831665,262.5372314 L367,255.6139221 L354.920105,248.5374908 Z" style="fill:none;stroke:rgb(127,127,127);stroke-width:5" clip-path="url(#clip18)" />
<clipPath id="clip19"><path d="M269,241 L291,241 L291,268 L269,268 L269,241 Z" /></clipPath>
<path d="M278.90625,254.2890625 L278.90625,251.421875 C277.1822815,252.6302032 275.1822815,253.658844 272.90625,254.5078125 C272.6666565,253.705719 272.4322815,252.971344 272.203125,252.3046875 C274.833313,251.5234375 277.098938,250.424469 279,249.0078125 L272.765625,249.0078125 L272.765625,247.1328125 L287.234375,247.1328125 L287.234375,249.0078125 L281.7421875,249.0078125 C281.2473755,249.5234375 280.7161255,250.0130157 280.1484375,250.4765625 L281.09375,250.4765625 L281.09375,254.2890625 Z M282.484375,250.0390625 C284.359375,250.8515625 286.130188,251.674469 287.796875,252.5078125 L286.78125,254.3203125 C284.9166565,253.3098907 283.130188,252.4348907 281.421875,251.6953125 Z M273.859375,261.8671875 L273.859375,254.8828125 L286.140625,254.8828125 L286.140625,261.8671875 L284.015625,261.8671875 L284.015625,261.1171875 L275.984375,261.1171875 L275.984375,261.8671875 Z M284.015625,256.7578125 L275.984375,256.7578125 L275.984375,259.2421875 L284.015625,259.2421875 Z" style="fill:rgb(102,102,102);stroke:none" clip-path="url(#clip19)" />
<clipPath id="clip20"><path d="M103,305 L129,305 L129,336 L103,336 L103,305 Z" /></clipPath>
<path d="M113.9481583,311.2492065 L117.171051,385" style="fill:none;stroke:rgb(127,127,127);stroke-width:5" clip-path="url(#clip20)" />
<clipPath id="clip21"><path d="M103,359 L129,359 L129,391 L103,391 L103,359 Z" /></clipPath>
<path d="M113.9481583,311.2492065 L117.171051,385" style="fill:none;stroke:rgb(127,127,127);stroke-width:5" clip-path="url(#clip21)" />
<clipPath id="clip22"><path d="M103,334 L107,334 L107,361 L103,361 L103,334 Z" /></clipPath>
<path d="M113.9481583,311.2492065 L117.171051,385" style="fill:none;stroke:rgb(127,127,127);stroke-width:5" clip-path="url(#clip22)" />
<clipPath id="clip23"><path d="M125,334 L129,334 L129,361 L125,361 L125,334 Z" /></clipPath>
<path d="M113.9481583,311.2492065 L117.171051,385" style="fill:none;stroke:rgb(127,127,127);stroke-width:5" clip-path="url(#clip23)" />
<clipPath id="clip24"><path d="M105,334 L127,334 L127,361 L105,361 L105,334 Z" /></clipPath>
<path d="M113.9481583,311.2492065 L117.171051,385" style="fill:none;stroke:rgb(127,127,127);opacity:0.09803921568627451;stroke-width:5" clip-path="url(#clip24)" />
<clipPath id="clip25"><path d="M103,305 L129,305 L129,391 L103,391 L103,305 Z" /></clipPath>
<path d="M109.6483994,373.1928101 L117.171051,385 L123.6350555,372.581604 Z" style="fill:rgb(127,127,127);stroke:none" clip-path="url(#clip25)" />
<clipPath id="clip26"><path d="M103,305 L129,305 L129,391 L103,391 L103,305 Z" /></clipPath>
<path d="M109.6483994,373.1928101 L117.171051,385 L123.6350555,372.581604 Z" style="fill:none;stroke:rgb(127,127,127);stroke-width:5" clip-path="url(#clip26)" />
<clipPath id="clip27"><path d="M105,334 L127,334 L127,361 L105,361 L105,334 Z" /></clipPath>
<path d="M110.078125,340 L121.90625,340 L121.90625,346.53125 L110.078125,346.53125 Z M119.734375,341.734375 L112.25,341.734375 L112.25,342.578125 L119.734375,342.578125 Z M119.734375,344.796875 L119.734375,343.953125 L112.25,343.953125 L112.25,344.796875 Z M110.03125,355 C109.4895859,354.583313 108.8958359,354.15625 108.25,353.71875 C109.4166641,352.6041565 110.3098984,351.0572815 110.9296875,349.078125 L108.28125,349.078125 L108.28125,347.28125 L123.71875,347.28125 L123.71875,349.078125 L117.203125,349.078125 L117.203125,350.03125 L122.515625,350.03125 L122.515625,351.734375 L117.203125,351.734375 L117.203125,352.7265625 C117.8854141,352.7421875 118.7239609,352.75 119.71875,352.75 C120.8541641,352.75 122.1979141,352.739563 123.75,352.71875 C123.4895859,353.395813 123.2864609,354.0104065 123.140625,354.5625 C122.3802109,354.578125 121.046875,354.5729065 119.140625,354.546875 L116.859375,354.515625 C114.4635391,354.515625 112.7239609,353.953125 111.640625,352.828125 C111.1614609,353.6822815 110.625,354.40625 110.03125,355 Z M115.09375,352.5546875 L115.09375,349.078125 L110.96875,349.078125 L112.9375,349.8125 C112.7864609,350.2760315 112.625,350.7161255 112.453125,351.1328125 C113.1302109,351.846344 114.0104141,352.3203125 115.09375,352.5546875 Z" style="fill:rgb(102,102,102);stroke:none" clip-path="url(#clip27)" />
<clipPath id="clip28"><path d="M91,102 L129,102 L129,201 L91,201 L91,102 Z" /></clipPath>
<path d="M108.9424057,108 L110.4328308,195.7631836" style="fill:none;stroke:rgb(127,127,127);stroke-width:5" clip-path="url(#clip28)" />
<clipPath id="clip29"><path d="M91,102 L129,102 L129,201 L91,201 L91,102 Z" /></clipPath>
<path d="M103.2279739,183.7594299 L110.4328308,195.7631836 L117.2259521,183.5217285 Z" style="fill:rgb(127,127,127);stroke:none" clip-path="url(#clip29)" />
<clipPath id="clip30"><path d="M91,102 L129,102 L129,201 L91,201 L91,102 Z" /></clipPath>
<path d="M103.2279739,183.7594299 L110.4328308,195.7631836 L117.2259521,183.5217285 Z" style="fill:none;stroke:rgb(127,127,127);stroke-width:5" clip-path="url(#clip30)" />
</svg>
